<svg xmlns="http://www.w3.org/2000/svg" xmlns:xlink="http://www.w3.org/1999/xlink" width="500" zoomAndPan="magnify" viewBox="0 0 375 374.999991" height="500" preserveAspectRatio="xMidYMid meet" version="1.0"><defs><g/></defs><g fill="#ffffff" fill-opacity="1"><g transform="translate(114.907273, 176.185253)"><g><path d="M 2.28125 -4.546875 C 1.945312 -5.066406 1.78125 -5.566406 1.78125 -6.046875 C 1.78125 -6.785156 2.164062 -7.414062 2.9375 -7.9375 C 3.3125 -8.195312 3.738281 -8.328125 4.21875 -8.328125 C 4.882812 -8.328125 5.492188 -8.046875 6.046875 -7.484375 C 7.148438 -6.234375 8.335938 -5.289062 9.609375 -4.65625 C 10.890625 -4.03125 12.421875 -3.71875 14.203125 -3.71875 C 15.609375 -3.75 16.847656 -4.070312 17.921875 -4.6875 C 18.992188 -5.300781 19.53125 -6.289062 19.53125 -7.65625 C 19.53125 -8.914062 18.984375 -9.875 17.890625 -10.53125 C 16.796875 -11.195312 15.195312 -11.8125 13.09375 -12.375 C 11.019531 -12.925781 9.296875 -13.503906 7.921875 -14.109375 C 6.554688 -14.722656 5.398438 -15.613281 4.453125 -16.78125 C 3.515625 -17.945312 3.046875 -19.472656 3.046875 -21.359375 C 3.046875 -23.023438 3.515625 -24.484375 4.453125 -25.734375 C 5.398438 -26.992188 6.660156 -27.972656 8.234375 -28.671875 C 9.804688 -29.378906 11.519531 -29.734375 13.375 -29.734375 C 15.144531 -29.734375 16.90625 -29.398438 18.65625 -28.734375 C 20.414062 -28.066406 21.851562 -27.050781 22.96875 -25.6875 C 23.40625 -25.164062 23.625 -24.628906 23.625 -24.078125 C 23.625 -23.484375 23.332031 -22.910156 22.75 -22.359375 C 22.375 -22.023438 21.910156 -21.859375 21.359375 -21.859375 C 20.691406 -21.859375 20.15625 -22.078125 19.75 -22.515625 C 18.96875 -23.410156 18.015625 -24.097656 16.890625 -24.578125 C 15.765625 -25.054688 14.515625 -25.296875 13.140625 -25.296875 C 11.734375 -25.296875 10.539062 -25.007812 9.5625 -24.4375 C 8.582031 -23.863281 8.09375 -22.890625 8.09375 -21.515625 C 8.132812 -20.222656 8.695312 -19.257812 9.78125 -18.625 C 10.875 -18 12.550781 -17.394531 14.8125 -16.8125 C 16.769531 -16.289062 18.394531 -15.734375 19.6875 -15.140625 C 20.988281 -14.546875 22.082031 -13.664062 22.96875 -12.5 C 23.851562 -11.34375 24.296875 -9.820312 24.296875 -7.9375 C 24.296875 -6.195312 23.796875 -4.6875 22.796875 -3.40625 C 21.796875 -2.132812 20.488281 -1.15625 18.875 -0.46875 C 17.269531 0.21875 15.5625 0.5625 13.75 0.5625 C 11.425781 0.5625 9.273438 0.15625 7.296875 -0.65625 C 5.316406 -1.476562 3.644531 -2.773438 2.28125 -4.546875 Z M 2.28125 -4.546875 "/></g></g></g><g fill="#ffffff" fill-opacity="1"><g transform="translate(144.68291, 176.185253)"><g><path d="M 8.9375 -2.65625 C 8.9375 -1.914062 8.6875 -1.285156 8.1875 -0.765625 C 7.6875 -0.253906 7.046875 0 6.265625 0 C 5.523438 0 4.90625 -0.253906 4.40625 -0.765625 C 3.90625 -1.285156 3.65625 -1.914062 3.65625 -2.65625 L 3.65625 -26.6875 C 3.65625 -27.425781 3.90625 -28.050781 4.40625 -28.5625 C 4.90625 -29.082031 5.523438 -29.34375 6.265625 -29.34375 C 7.046875 -29.34375 7.6875 -29.082031 8.1875 -28.5625 C 8.6875 -28.050781 8.9375 -27.425781 8.9375 -26.6875 Z M 6.265625 -33 C 5.191406 -33 4.421875 -33.191406 3.953125 -33.578125 C 3.492188 -33.972656 3.265625 -34.59375 3.265625 -35.4375 L 3.265625 -36.328125 C 3.265625 -37.210938 3.515625 -37.835938 4.015625 -38.203125 C 4.515625 -38.578125 5.28125 -38.765625 6.3125 -38.765625 C 7.351562 -38.765625 8.101562 -38.570312 8.5625 -38.1875 C 9.019531 -37.800781 9.25 -37.179688 9.25 -36.328125 L 9.25 -35.4375 C 9.25 -34.550781 9.007812 -33.921875 8.53125 -33.546875 C 8.050781 -33.179688 7.296875 -33 6.265625 -33 Z M 6.265625 -33 "/></g></g></g><g fill="#ffffff" fill-opacity="1"><g transform="translate(160.597445, 176.185253)"><g><path d="M 18.75 -29.734375 C 25.40625 -29.734375 28.734375 -25.738281 28.734375 -17.75 L 28.734375 -2.65625 C 28.734375 -1.914062 28.484375 -1.285156 27.984375 -0.765625 C 27.484375 -0.253906 26.847656 0 26.078125 0 C 25.335938 0 24.71875 -0.253906 24.21875 -0.765625 C 23.71875 -1.285156 23.46875 -1.914062 23.46875 -2.65625 L 23.46875 -17.6875 C 23.46875 -19.875 22.96875 -21.613281 21.96875 -22.90625 C 20.96875 -24.195312 19.335938 -24.84375 17.078125 -24.84375 C 15.597656 -24.84375 14.257812 -24.519531 13.0625 -23.875 C 11.863281 -23.226562 10.921875 -22.359375 10.234375 -21.265625 C 9.546875 -20.179688 9.203125 -18.988281 9.203125 -17.6875 L 9.203125 -2.65625 C 9.203125 -1.914062 8.953125 -1.285156 8.453125 -0.765625 C 7.953125 -0.253906 7.316406 0 6.546875 0 C 5.765625 0 5.132812 -0.25 4.65625 -0.75 C 4.175781 -1.25 3.9375 -1.882812 3.9375 -2.65625 L 3.9375 -26.40625 C 3.9375 -27.144531 4.1875 -27.769531 4.6875 -28.28125 C 5.1875 -28.800781 5.804688 -29.0625 6.546875 -29.0625 C 7.316406 -29.0625 7.953125 -28.800781 8.453125 -28.28125 C 8.953125 -27.769531 9.203125 -27.144531 9.203125 -26.40625 L 9.203125 -24.46875 C 10.171875 -25.945312 11.515625 -27.191406 13.234375 -28.203125 C 14.953125 -29.222656 16.789062 -29.734375 18.75 -29.734375 Z M 18.75 -29.734375 "/></g></g></g><g fill="#ffffff" fill-opacity="1"><g transform="translate(196.582808, 176.185253)"><g><path d="M 16.578125 -29.734375 C 19.503906 -29.734375 21.9375 -29.269531 23.875 -28.34375 C 25.820312 -27.414062 26.796875 -26.234375 26.796875 -24.796875 C 26.796875 -24.171875 26.59375 -23.609375 26.1875 -23.109375 C 25.78125 -22.609375 25.257812 -22.359375 24.625 -22.359375 C 24.144531 -22.359375 23.765625 -22.429688 23.484375 -22.578125 C 23.210938 -22.722656 22.835938 -22.960938 22.359375 -23.296875 C 22.128906 -23.515625 21.773438 -23.773438 21.296875 -24.078125 C 20.859375 -24.296875 20.226562 -24.476562 19.40625 -24.625 C 18.59375 -24.769531 17.859375 -24.84375 17.203125 -24.84375 C 15.273438 -24.84375 13.570312 -24.398438 12.09375 -23.515625 C 10.613281 -22.628906 9.46875 -21.398438 8.65625 -19.828125 C 7.84375 -18.253906 7.4375 -16.507812 7.4375 -14.59375 C 7.4375 -12.632812 7.832031 -10.875 8.625 -9.3125 C 9.414062 -7.757812 10.53125 -6.539062 11.96875 -5.65625 C 13.414062 -4.769531 15.066406 -4.328125 16.921875 -4.328125 C 18.835938 -4.328125 20.390625 -4.625 21.578125 -5.21875 C 21.835938 -5.363281 22.1875 -5.601562 22.625 -5.9375 C 23 -6.226562 23.320312 -6.445312 23.59375 -6.59375 C 23.875 -6.75 24.21875 -6.828125 24.625 -6.828125 C 25.363281 -6.828125 25.945312 -6.59375 26.375 -6.125 C 26.800781 -5.664062 27.015625 -5.066406 27.015625 -4.328125 C 27.015625 -3.546875 26.523438 -2.773438 25.546875 -2.015625 C 24.566406 -1.265625 23.253906 -0.644531 21.609375 -0.15625 C 19.960938 0.320312 18.195312 0.5625 16.3125 0.5625 C 13.5 0.5625 11.019531 -0.09375 8.875 -1.40625 C 6.726562 -2.726562 5.070312 -4.539062 3.90625 -6.84375 C 2.738281 -9.15625 2.15625 -11.738281 2.15625 -14.59375 C 2.15625 -17.4375 2.765625 -20.015625 3.984375 -22.328125 C 5.210938 -24.640625 6.914062 -26.453125 9.09375 -27.765625 C 11.28125 -29.078125 13.773438 -29.734375 16.578125 -29.734375 Z M 16.578125 -29.734375 "/></g></g></g><g fill="#ffffff" fill-opacity="1"><g transform="translate(228.409853, 176.185253)"><g><path d="M 29.453125 -15.640625 C 29.421875 -14.972656 29.144531 -14.40625 28.625 -13.9375 C 28.101562 -13.476562 27.492188 -13.25 26.796875 -13.25 L 7.265625 -13.25 C 7.523438 -10.550781 8.550781 -8.390625 10.34375 -6.765625 C 12.132812 -5.140625 14.328125 -4.328125 16.921875 -4.328125 C 18.691406 -4.328125 20.128906 -4.582031 21.234375 -5.09375 C 22.347656 -5.613281 23.332031 -6.28125 24.1875 -7.09375 C 24.738281 -7.425781 25.273438 -7.59375 25.796875 -7.59375 C 26.421875 -7.59375 26.945312 -7.367188 27.375 -6.921875 C 27.800781 -6.484375 28.015625 -5.96875 28.015625 -5.375 C 28.015625 -4.601562 27.644531 -3.898438 26.90625 -3.265625 C 25.832031 -2.203125 24.40625 -1.296875 22.625 -0.546875 C 20.851562 0.191406 19.046875 0.5625 17.203125 0.5625 C 14.203125 0.5625 11.5625 -0.0664062 9.28125 -1.328125 C 7.007812 -2.585938 5.253906 -4.34375 4.015625 -6.59375 C 2.773438 -8.851562 2.15625 -11.40625 2.15625 -14.25 C 2.15625 -17.363281 2.789062 -20.09375 4.0625 -22.4375 C 5.34375 -24.78125 7.03125 -26.582031 9.125 -27.84375 C 11.21875 -29.101562 13.460938 -29.734375 15.859375 -29.734375 C 18.234375 -29.734375 20.453125 -29.125 22.515625 -27.90625 C 24.585938 -26.6875 26.253906 -25.003906 27.515625 -22.859375 C 28.773438 -20.710938 29.421875 -18.304688 29.453125 -15.640625 Z M 15.859375 -24.84375 C 13.796875 -24.84375 12.003906 -24.257812 10.484375 -23.09375 C 8.960938 -21.9375 7.960938 -20.132812 7.484375 -17.6875 L 23.859375 -17.6875 L 23.859375 -18.140625 C 23.671875 -20.097656 22.789062 -21.703125 21.21875 -22.953125 C 19.644531 -24.210938 17.859375 -24.84375 15.859375 -24.84375 Z M 15.859375 -24.84375 "/></g></g></g><g fill="#ffffff" fill-opacity="1"><g transform="translate(120.773405, 228.665054)"><g><path d="M 25.953125 -4.875 C 26.660156 -4.875 27.253906 -4.632812 27.734375 -4.15625 C 28.210938 -3.675781 28.453125 -3.085938 28.453125 -2.390625 C 28.453125 -1.679688 28.210938 -1.101562 27.734375 -0.65625 C 27.253906 -0.21875 26.660156 0 25.953125 0 L 6.265625 0 C 5.523438 0 4.914062 -0.226562 4.4375 -0.6875 C 3.957031 -1.15625 3.71875 -1.773438 3.71875 -2.546875 C 3.71875 -3.210938 3.976562 -3.84375 4.5 -4.4375 L 16.859375 -17.859375 C 20.296875 -21.523438 22.015625 -24.757812 22.015625 -27.5625 C 22.015625 -29.5625 21.359375 -31.21875 20.046875 -32.53125 C 18.734375 -33.84375 17.0625 -34.5 15.03125 -34.5 C 13.664062 -34.5 12.351562 -34.109375 11.09375 -33.328125 C 9.832031 -32.554688 8.816406 -31.453125 8.046875 -30.015625 C 7.453125 -29.234375 6.75 -28.84375 5.9375 -28.84375 C 5.3125 -28.84375 4.71875 -29.082031 4.15625 -29.5625 C 3.601562 -30.039062 3.328125 -30.597656 3.328125 -31.234375 C 3.328125 -31.640625 3.460938 -32.0625 3.734375 -32.5 C 4.015625 -32.945312 4.414062 -33.46875 4.9375 -34.0625 C 6.15625 -35.6875 7.707031 -36.976562 9.59375 -37.9375 C 11.476562 -38.90625 13.382812 -39.390625 15.3125 -39.390625 C 17.789062 -39.390625 19.9375 -38.890625 21.75 -37.890625 C 23.5625 -36.890625 24.957031 -35.519531 25.9375 -33.78125 C 26.914062 -32.039062 27.40625 -30.046875 27.40625 -27.796875 C 27.40625 -23.535156 25.113281 -18.945312 20.53125 -14.03125 L 12.140625 -4.875 Z M 25.953125 -4.875 "/></g></g></g><g fill="#ffffff" fill-opacity="1"><g transform="translate(154.540982, 228.665054)"><g><path d="M 16.8125 0.5625 C 13.78125 0.5625 11.191406 -0.285156 9.046875 -1.984375 C 6.898438 -3.691406 5.28125 -6.039062 4.1875 -9.03125 C 3.09375 -12.03125 2.546875 -15.492188 2.546875 -19.421875 C 2.546875 -23.335938 3.09375 -26.789062 4.1875 -29.78125 C 5.28125 -32.78125 6.898438 -35.128906 9.046875 -36.828125 C 11.191406 -38.535156 13.78125 -39.390625 16.8125 -39.390625 C 19.84375 -39.390625 22.429688 -38.535156 24.578125 -36.828125 C 26.722656 -35.128906 28.335938 -32.78125 29.421875 -29.78125 C 30.515625 -26.789062 31.0625 -23.335938 31.0625 -19.421875 C 31.0625 -15.492188 30.515625 -12.03125 29.421875 -9.03125 C 28.335938 -6.039062 26.722656 -3.691406 24.578125 -1.984375 C 22.429688 -0.285156 19.84375 0.5625 16.8125 0.5625 Z M 16.8125 -4.765625 C 19.507812 -4.765625 21.601562 -6.039062 23.09375 -8.59375 C 24.59375 -11.144531 25.34375 -14.753906 25.34375 -19.421875 C 25.34375 -24.078125 24.59375 -27.679688 23.09375 -30.234375 C 21.601562 -32.785156 19.507812 -34.0625 16.8125 -34.0625 C 14.113281 -34.0625 12.015625 -32.785156 10.515625 -30.234375 C 9.015625 -27.679688 8.265625 -24.078125 8.265625 -19.421875 C 8.265625 -14.753906 9.015625 -11.144531 10.515625 -8.59375 C 12.015625 -6.039062 14.113281 -4.765625 16.8125 -4.765625 Z M 16.8125 -4.765625 "/></g></g></g><g fill="#ffffff" fill-opacity="1"><g transform="translate(191.468923, 228.665054)"><g><path d="M 25.953125 -4.875 C 26.660156 -4.875 27.253906 -4.632812 27.734375 -4.15625 C 28.210938 -3.675781 28.453125 -3.085938 28.453125 -2.390625 C 28.453125 -1.679688 28.210938 -1.101562 27.734375 -0.65625 C 27.253906 -0.21875 26.660156 0 25.953125 0 L 6.265625 0 C 5.523438 0 4.914062 -0.226562 4.4375 -0.6875 C 3.957031 -1.15625 3.71875 -1.773438 3.71875 -2.546875 C 3.71875 -3.210938 3.976562 -3.84375 4.5 -4.4375 L 16.859375 -17.859375 C 20.296875 -21.523438 22.015625 -24.757812 22.015625 -27.5625 C 22.015625 -29.5625 21.359375 -31.21875 20.046875 -32.53125 C 18.734375 -33.84375 17.0625 -34.5 15.03125 -34.5 C 13.664062 -34.5 12.351562 -34.109375 11.09375 -33.328125 C 9.832031 -32.554688 8.816406 -31.453125 8.046875 -30.015625 C 7.453125 -29.234375 6.75 -28.84375 5.9375 -28.84375 C 5.3125 -28.84375 4.71875 -29.082031 4.15625 -29.5625 C 3.601562 -30.039062 3.328125 -30.597656 3.328125 -31.234375 C 3.328125 -31.640625 3.460938 -32.0625 3.734375 -32.5 C 4.015625 -32.945312 4.414062 -33.46875 4.9375 -34.0625 C 6.15625 -35.6875 7.707031 -36.976562 9.59375 -37.9375 C 11.476562 -38.90625 13.382812 -39.390625 15.3125 -39.390625 C 17.789062 -39.390625 19.9375 -38.890625 21.75 -37.890625 C 23.5625 -36.890625 24.957031 -35.519531 25.9375 -33.78125 C 26.914062 -32.039062 27.40625 -30.046875 27.40625 -27.796875 C 27.40625 -23.535156 25.113281 -18.945312 20.53125 -14.03125 L 12.140625 -4.875 Z M 25.953125 -4.875 "/></g></g></g><g fill="#ffffff" fill-opacity="1"><g transform="translate(225.236501, 228.665054)"><g><path d="M 15.25 -24.578125 C 17.363281 -24.578125 19.257812 -24.046875 20.9375 -22.984375 C 22.625 -21.929688 23.945312 -20.5 24.90625 -18.6875 C 25.863281 -16.875 26.34375 -14.84375 26.34375 -12.59375 C 26.34375 -9.96875 25.734375 -7.65625 24.515625 -5.65625 C 23.296875 -3.65625 21.613281 -2.117188 19.46875 -1.046875 C 17.320312 0.0234375 14.863281 0.5625 12.09375 0.5625 C 10.613281 0.5625 9.179688 0.359375 7.796875 -0.046875 C 6.410156 -0.460938 5.21875 -1.054688 4.21875 -1.828125 C 3.21875 -2.378906 2.71875 -3.140625 2.71875 -4.109375 C 2.71875 -4.804688 2.96875 -5.453125 3.46875 -6.046875 C 3.96875 -6.640625 4.566406 -6.9375 5.265625 -6.9375 C 5.929688 -6.9375 6.597656 -6.695312 7.265625 -6.21875 C 8.785156 -4.8125 10.691406 -4.109375 12.984375 -4.109375 C 14.421875 -4.109375 15.757812 -4.441406 17 -5.109375 C 18.238281 -5.773438 19.226562 -6.722656 19.96875 -7.953125 C 20.707031 -9.191406 21.078125 -10.628906 21.078125 -12.265625 C 21.078125 -14.660156 20.335938 -16.503906 18.859375 -17.796875 C 17.378906 -19.097656 15.601562 -19.75 13.53125 -19.75 C 12.9375 -19.75 12.085938 -19.617188 10.984375 -19.359375 C 10.171875 -19.140625 9.5625 -19.03125 9.15625 -19.03125 C 8.488281 -19.03125 7.953125 -19.257812 7.546875 -19.71875 C 7.140625 -20.175781 6.9375 -20.757812 6.9375 -21.46875 C 6.9375 -21.875 7.007812 -22.222656 7.15625 -22.515625 C 7.300781 -22.816406 7.539062 -23.171875 7.875 -23.578125 L 17.3125 -33.953125 L 4.5 -33.953125 C 3.789062 -33.953125 3.195312 -34.191406 2.71875 -34.671875 C 2.238281 -35.148438 2 -35.738281 2 -36.4375 C 2 -37.144531 2.238281 -37.71875 2.71875 -38.15625 C 3.195312 -38.601562 3.789062 -38.828125 4.5 -38.828125 L 22.1875 -38.828125 C 23.039062 -38.828125 23.707031 -38.566406 24.1875 -38.046875 C 24.664062 -37.535156 24.90625 -36.910156 24.90625 -36.171875 C 24.90625 -35.503906 24.554688 -34.816406 23.859375 -34.109375 Z M 15.25 -24.578125 "/></g></g></g></svg>