<svg xmlns="http://www.w3.org/2000/svg" xmlns:xlink="http://www.w3.org/1999/xlink" width="492" zoomAndPan="magnify" viewBox="0 0 369 399.74999" height="533" preserveAspectRatio="xMidYMid meet" version="1.0"><defs><g/><clipPath id="fe2ec780d6"><path d="M 0.117188 0 L 335.847656 0 L 335.847656 58.707031 L 0.117188 58.707031 Z M 0.117188 0 " clip-rule="nonzero"/></clipPath><clipPath id="b65b95767c"><path d="M 306.296875 0 C 322.511719 0 335.652344 13.140625 335.652344 29.355469 C 335.652344 45.566406 322.511719 58.707031 306.296875 58.707031 L 29.46875 58.707031 C 13.257812 58.707031 0.117188 45.566406 0.117188 29.355469 C 0.117188 13.140625 13.257812 0 29.46875 0 Z M 306.296875 0 " clip-rule="nonzero"/></clipPath><clipPath id="b6e1e84946"><path d="M 131.074219 82.191406 L 155.808594 82.191406 L 155.808594 106.925781 L 131.074219 106.925781 Z M 131.074219 82.191406 " clip-rule="nonzero"/></clipPath><clipPath id="8175d93401"><path d="M 131.074219 126.09375 L 155.808594 126.09375 L 155.808594 150.828125 L 131.074219 150.828125 Z M 131.074219 126.09375 " clip-rule="nonzero"/></clipPath><clipPath id="6d997ee45b"><path d="M 131.074219 166.878906 L 155.808594 166.878906 L 155.808594 191.613281 L 131.074219 191.613281 Z M 131.074219 166.878906 " clip-rule="nonzero"/></clipPath><clipPath id="4a2ad327d6"><path d="M 131.074219 207.542969 L 155.808594 207.542969 L 155.808594 232 L 131.074219 232 Z M 131.074219 207.542969 " clip-rule="nonzero"/></clipPath><clipPath id="ee3aac7c1b"><path d="M 131.074219 248.003906 L 155.808594 248.003906 L 155.808594 272.738281 L 131.074219 272.738281 Z M 131.074219 248.003906 " clip-rule="nonzero"/></clipPath><clipPath id="7b21015b4e"><path d="M 131.074219 286.074219 L 155.808594 286.074219 L 155.808594 310.808594 L 131.074219 310.808594 Z M 131.074219 286.074219 " clip-rule="nonzero"/></clipPath><clipPath id="b065e59cb4"><path d="M 131.074219 326.738281 L 155.808594 326.738281 L 155.808594 351.472656 L 131.074219 351.472656 Z M 131.074219 326.738281 " clip-rule="nonzero"/></clipPath><clipPath id="5f2eeaf4f3"><path d="M 131.074219 367.253906 L 155.808594 367.253906 L 155.808594 391.988281 L 131.074219 391.988281 Z M 131.074219 367.253906 " clip-rule="nonzero"/></clipPath></defs><g clip-path="url(#fe2ec780d6)"><g clip-path="url(#b65b95767c)"><path fill="#ffffff" d="M 0.117188 0 L 335.617188 0 L 335.617188 58.707031 L 0.117188 58.707031 Z M 0.117188 0 " fill-opacity="1" fill-rule="nonzero"/></g></g><g fill="#000000" fill-opacity="1"><g transform="translate(143.477045, 37.014705)"><g><path d="M 1.609375 0 L 1.609375 -17.96875 L 7.140625 -17.96875 C 8.710938 -17.96875 10.125 -17.613281 11.375 -16.90625 C 12.625 -16.195312 13.597656 -15.1875 14.296875 -13.875 C 14.992188 -12.5625 15.34375 -11.066406 15.34375 -9.390625 L 15.34375 -8.5625 C 15.34375 -6.894531 15 -5.410156 14.3125 -4.109375 C 13.625 -2.804688 12.65625 -1.796875 11.40625 -1.078125 C 10.15625 -0.367188 8.742188 -0.0078125 7.171875 0 Z M 5.3125 -14.96875 L 5.3125 -2.96875 L 7.09375 -2.96875 C 8.539062 -2.96875 9.644531 -3.441406 10.40625 -4.390625 C 11.175781 -5.335938 11.570312 -6.691406 11.59375 -8.453125 L 11.59375 -9.40625 C 11.59375 -11.226562 11.210938 -12.609375 10.453125 -13.546875 C 9.691406 -14.492188 8.585938 -14.96875 7.140625 -14.96875 Z M 5.3125 -14.96875 "/></g></g></g><g fill="#000000" fill-opacity="1"><g transform="translate(159.901211, 37.014705)"><g><path d="M 5.546875 0 L 1.84375 0 L 1.84375 -17.96875 L 5.546875 -17.96875 Z M 5.546875 0 "/></g></g></g><g fill="#000000" fill-opacity="1"><g transform="translate(167.268026, 37.014705)"><g><path d="M 10.921875 -4.71875 C 10.921875 -5.414062 10.671875 -5.953125 10.171875 -6.328125 C 9.679688 -6.703125 8.796875 -7.097656 7.515625 -7.515625 C 6.234375 -7.929688 5.21875 -8.335938 4.46875 -8.734375 C 2.425781 -9.835938 1.40625 -11.328125 1.40625 -13.203125 C 1.40625 -14.171875 1.675781 -15.035156 2.21875 -15.796875 C 2.769531 -16.554688 3.554688 -17.148438 4.578125 -17.578125 C 5.609375 -18.003906 6.757812 -18.21875 8.03125 -18.21875 C 9.320312 -18.21875 10.46875 -17.984375 11.46875 -17.515625 C 12.46875 -17.054688 13.242188 -16.398438 13.796875 -15.546875 C 14.359375 -14.703125 14.640625 -13.742188 14.640625 -12.671875 L 10.9375 -12.671875 C 10.9375 -13.492188 10.675781 -14.128906 10.15625 -14.578125 C 9.632812 -15.035156 8.90625 -15.265625 7.96875 -15.265625 C 7.0625 -15.265625 6.359375 -15.070312 5.859375 -14.6875 C 5.359375 -14.3125 5.109375 -13.8125 5.109375 -13.1875 C 5.109375 -12.601562 5.398438 -12.113281 5.984375 -11.71875 C 6.578125 -11.320312 7.445312 -10.953125 8.59375 -10.609375 C 10.695312 -9.972656 12.226562 -9.1875 13.1875 -8.25 C 14.15625 -7.3125 14.640625 -6.140625 14.640625 -4.734375 C 14.640625 -3.179688 14.050781 -1.960938 12.875 -1.078125 C 11.695312 -0.191406 10.113281 0.25 8.125 0.25 C 6.738281 0.25 5.476562 0 4.34375 -0.5 C 3.207031 -1.007812 2.34375 -1.703125 1.75 -2.578125 C 1.15625 -3.460938 0.859375 -4.488281 0.859375 -5.65625 L 4.5625 -5.65625 C 4.5625 -3.664062 5.75 -2.671875 8.125 -2.671875 C 9 -2.671875 9.679688 -2.847656 10.171875 -3.203125 C 10.671875 -3.566406 10.921875 -4.070312 10.921875 -4.71875 Z M 10.921875 -4.71875 "/></g></g></g><g fill="#000000" fill-opacity="1"><g transform="translate(182.803732, 37.014705)"><g><path d="M 12.421875 -7.796875 L 5.3125 -7.796875 L 5.3125 -2.96875 L 13.65625 -2.96875 L 13.65625 0 L 1.609375 0 L 1.609375 -17.96875 L 13.625 -17.96875 L 13.625 -14.96875 L 5.3125 -14.96875 L 5.3125 -10.6875 L 12.421875 -10.6875 Z M 12.421875 -7.796875 "/></g></g></g><g fill="#000000" fill-opacity="1"><g transform="translate(197.019084, 37.014705)"><g><path d="M 16.21875 0 L 12.515625 0 L 5.3125 -11.828125 L 5.3125 0 L 1.609375 0 L 1.609375 -17.96875 L 5.3125 -17.96875 L 12.53125 -6.125 L 12.53125 -17.96875 L 16.21875 -17.96875 Z M 13.59375 -22.609375 C 13.59375 -21.679688 13.320312 -20.898438 12.78125 -20.265625 C 12.238281 -19.640625 11.578125 -19.328125 10.796875 -19.328125 C 10.484375 -19.328125 10.203125 -19.359375 9.953125 -19.421875 C 9.710938 -19.492188 9.378906 -19.644531 8.953125 -19.875 C 8.523438 -20.113281 8.21875 -20.257812 8.03125 -20.3125 C 7.84375 -20.363281 7.640625 -20.390625 7.421875 -20.390625 C 7.128906 -20.390625 6.878906 -20.285156 6.671875 -20.078125 C 6.472656 -19.867188 6.375 -19.578125 6.375 -19.203125 L 4.296875 -19.328125 C 4.296875 -20.242188 4.566406 -21.019531 5.109375 -21.65625 C 5.648438 -22.300781 6.3125 -22.625 7.09375 -22.625 C 7.34375 -22.625 7.578125 -22.59375 7.796875 -22.53125 C 8.015625 -22.46875 8.367188 -22.316406 8.859375 -22.078125 C 9.347656 -21.835938 9.6875 -21.691406 9.875 -21.640625 C 10.070312 -21.597656 10.269531 -21.578125 10.46875 -21.578125 C 10.757812 -21.578125 11.007812 -21.675781 11.21875 -21.875 C 11.425781 -22.070312 11.53125 -22.363281 11.53125 -22.75 Z M 13.59375 -22.609375 "/></g></g></g><g fill="#000000" fill-opacity="1"><g transform="translate(214.862313, 37.014705)"><g><path d="M 16.375 -8.578125 C 16.375 -6.804688 16.0625 -5.253906 15.4375 -3.921875 C 14.8125 -2.585938 13.914062 -1.554688 12.75 -0.828125 C 11.582031 -0.109375 10.242188 0.25 8.734375 0.25 C 7.242188 0.25 5.914062 -0.109375 4.75 -0.828125 C 3.582031 -1.546875 2.675781 -2.566406 2.03125 -3.890625 C 1.394531 -5.222656 1.070312 -6.753906 1.0625 -8.484375 L 1.0625 -9.375 C 1.0625 -11.132812 1.378906 -12.6875 2.015625 -14.03125 C 2.648438 -15.382812 3.550781 -16.421875 4.71875 -17.140625 C 5.882812 -17.859375 7.21875 -18.21875 8.71875 -18.21875 C 10.21875 -18.21875 11.546875 -17.859375 12.703125 -17.140625 C 13.867188 -16.421875 14.769531 -15.382812 15.40625 -14.03125 C 16.050781 -12.6875 16.375 -11.132812 16.375 -9.375 Z M 12.609375 -9.390625 C 12.609375 -11.273438 12.269531 -12.707031 11.59375 -13.6875 C 10.925781 -14.664062 9.96875 -15.15625 8.71875 -15.15625 C 7.46875 -15.15625 6.503906 -14.671875 5.828125 -13.703125 C 5.160156 -12.742188 4.820312 -11.328125 4.8125 -9.453125 L 4.8125 -8.578125 C 4.8125 -6.742188 5.148438 -5.320312 5.828125 -4.3125 C 6.503906 -3.300781 7.472656 -2.796875 8.734375 -2.796875 C 9.984375 -2.796875 10.941406 -3.28125 11.609375 -4.25 C 12.273438 -5.226562 12.609375 -6.648438 12.609375 -8.515625 Z M 12.609375 -9.390625 "/></g></g></g><g fill="#000000" fill-opacity="1"><g transform="translate(232.31067, 37.014705)"><g/></g></g><g fill="#000000" fill-opacity="1"><g transform="translate(238.603925, 37.014705)"><g><path d="M 1.609375 0 L 1.609375 -17.96875 L 7.140625 -17.96875 C 8.710938 -17.96875 10.125 -17.613281 11.375 -16.90625 C 12.625 -16.195312 13.597656 -15.1875 14.296875 -13.875 C 14.992188 -12.5625 15.34375 -11.066406 15.34375 -9.390625 L 15.34375 -8.5625 C 15.34375 -6.894531 15 -5.410156 14.3125 -4.109375 C 13.625 -2.804688 12.65625 -1.796875 11.40625 -1.078125 C 10.15625 -0.367188 8.742188 -0.0078125 7.171875 0 Z M 5.3125 -14.96875 L 5.3125 -2.96875 L 7.09375 -2.96875 C 8.539062 -2.96875 9.644531 -3.441406 10.40625 -4.390625 C 11.175781 -5.335938 11.570312 -6.691406 11.59375 -8.453125 L 11.59375 -9.40625 C 11.59375 -11.226562 11.210938 -12.609375 10.453125 -13.546875 C 9.691406 -14.492188 8.585938 -14.96875 7.140625 -14.96875 Z M 5.3125 -14.96875 "/></g></g></g><g fill="#000000" fill-opacity="1"><g transform="translate(255.028091, 37.014705)"><g><path d="M 12.421875 -7.796875 L 5.3125 -7.796875 L 5.3125 -2.96875 L 13.65625 -2.96875 L 13.65625 0 L 1.609375 0 L 1.609375 -17.96875 L 13.625 -17.96875 L 13.625 -14.96875 L 5.3125 -14.96875 L 5.3125 -10.6875 L 12.421875 -10.6875 Z M 12.421875 -7.796875 "/></g></g></g><g fill="#000000" fill-opacity="1"><g transform="translate(269.243443, 37.014705)"><g><path d="M 1.546875 -1.75 C 1.546875 -2.320312 1.734375 -2.785156 2.109375 -3.140625 C 2.492188 -3.492188 2.972656 -3.671875 3.546875 -3.671875 C 4.128906 -3.671875 4.613281 -3.492188 5 -3.140625 C 5.382812 -2.785156 5.578125 -2.320312 5.578125 -1.75 C 5.578125 -1.1875 5.382812 -0.726562 5 -0.375 C 4.625 -0.03125 4.140625 0.140625 3.546875 0.140625 C 2.960938 0.140625 2.484375 -0.03125 2.109375 -0.375 C 1.734375 -0.726562 1.546875 -1.1875 1.546875 -1.75 Z M 1.546875 -11.859375 C 1.546875 -12.429688 1.734375 -12.894531 2.109375 -13.25 C 2.492188 -13.601562 2.972656 -13.78125 3.546875 -13.78125 C 4.128906 -13.78125 4.613281 -13.601562 5 -13.25 C 5.382812 -12.894531 5.578125 -12.429688 5.578125 -11.859375 C 5.578125 -11.296875 5.382812 -10.835938 5 -10.484375 C 4.625 -10.140625 4.140625 -9.96875 3.546875 -9.96875 C 2.960938 -9.96875 2.484375 -10.140625 2.109375 -10.484375 C 1.734375 -10.835938 1.546875 -11.296875 1.546875 -11.859375 Z M 1.546875 -11.859375 "/></g></g></g><g clip-path="url(#b6e1e84946)"><path fill="#ffffff" d="M 155.449219 94.378906 C 155.449219 95.179688 155.371094 95.96875 155.214844 96.753906 C 155.058594 97.539062 154.824219 98.300781 154.519531 99.042969 C 154.214844 99.78125 153.839844 100.484375 153.394531 101.148438 C 152.949219 101.8125 152.445312 102.429688 151.878906 102.996094 C 151.3125 103.558594 150.695312 104.066406 150.03125 104.511719 C 149.367188 104.953125 148.664062 105.328125 147.925781 105.636719 C 147.1875 105.941406 146.421875 106.171875 145.640625 106.328125 C 144.855469 106.484375 144.0625 106.5625 143.261719 106.5625 C 142.460938 106.5625 141.667969 106.484375 140.882812 106.328125 C 140.097656 106.171875 139.335938 105.941406 138.597656 105.636719 C 137.859375 105.328125 137.15625 104.953125 136.492188 104.511719 C 135.828125 104.066406 135.210938 103.558594 134.644531 102.996094 C 134.078125 102.429688 133.574219 101.8125 133.128906 101.148438 C 132.683594 100.484375 132.308594 99.78125 132.003906 99.042969 C 131.695312 98.300781 131.464844 97.539062 131.308594 96.753906 C 131.152344 95.96875 131.074219 95.179688 131.074219 94.378906 C 131.074219 93.578125 131.152344 92.785156 131.308594 92 C 131.464844 91.214844 131.695312 90.453125 132.003906 89.714844 C 132.308594 88.976562 132.683594 88.273438 133.128906 87.609375 C 133.574219 86.941406 134.078125 86.328125 134.644531 85.761719 C 135.210938 85.195312 135.828125 84.691406 136.492188 84.246094 C 137.15625 83.800781 137.859375 83.425781 138.597656 83.121094 C 139.335938 82.8125 140.097656 82.582031 140.882812 82.425781 C 141.667969 82.269531 142.460938 82.191406 143.261719 82.191406 C 144.0625 82.191406 144.855469 82.269531 145.640625 82.425781 C 146.421875 82.582031 147.1875 82.8125 147.925781 83.121094 C 148.664062 83.425781 149.367188 83.800781 150.03125 84.246094 C 150.695312 84.691406 151.3125 85.195312 151.878906 85.761719 C 152.445312 86.328125 152.949219 86.941406 153.394531 87.609375 C 153.839844 88.273438 154.214844 88.976562 154.519531 89.714844 C 154.824219 90.453125 155.058594 91.214844 155.214844 92 C 155.371094 92.785156 155.449219 93.578125 155.449219 94.378906 Z M 155.449219 94.378906 " fill-opacity="1" fill-rule="nonzero"/></g><path fill="#000000" d="M 140.492188 97.695312 L 149.59375 88.34375 C 150.050781 87.875 150.769531 87.898438 151.199219 88.398438 C 151.625 88.894531 151.601562 89.683594 151.148438 90.152344 L 141.164062 100.410156 C 140.925781 100.65625 140.640625 100.769531 140.316406 100.746094 C 139.992188 100.722656 139.71875 100.570312 139.511719 100.296875 L 135.277344 94.671875 C 134.878906 94.140625 134.949219 93.359375 135.429688 92.921875 C 135.914062 92.488281 136.628906 92.5625 137.027344 93.09375 Z M 140.492188 97.695312 " fill-opacity="1" fill-rule="evenodd"/><g clip-path="url(#8175d93401)"><path fill="#ffffff" d="M 155.449219 138.28125 C 155.449219 139.078125 155.371094 139.871094 155.214844 140.65625 C 155.058594 141.441406 154.824219 142.203125 154.519531 142.941406 C 154.214844 143.683594 153.839844 144.382812 153.394531 145.050781 C 152.949219 145.714844 152.445312 146.332031 151.878906 146.898438 C 151.3125 147.460938 150.695312 147.96875 150.03125 148.410156 C 149.367188 148.855469 148.664062 149.230469 147.925781 149.539062 C 147.1875 149.84375 146.421875 150.074219 145.640625 150.230469 C 144.855469 150.386719 144.0625 150.464844 143.261719 150.464844 C 142.460938 150.464844 141.667969 150.386719 140.882812 150.230469 C 140.097656 150.074219 139.335938 149.84375 138.597656 149.539062 C 137.859375 149.230469 137.15625 148.855469 136.492188 148.410156 C 135.828125 147.96875 135.210938 147.460938 134.644531 146.898438 C 134.078125 146.332031 133.574219 145.714844 133.128906 145.050781 C 132.683594 144.382812 132.308594 143.683594 132.003906 142.941406 C 131.695312 142.203125 131.464844 141.441406 131.308594 140.65625 C 131.152344 139.871094 131.074219 139.078125 131.074219 138.28125 C 131.074219 137.480469 131.152344 136.6875 131.308594 135.902344 C 131.464844 135.117188 131.695312 134.355469 132.003906 133.617188 C 132.308594 132.878906 132.683594 132.175781 133.128906 131.511719 C 133.574219 130.84375 134.078125 130.230469 134.644531 129.664062 C 135.210938 129.097656 135.828125 128.59375 136.492188 128.148438 C 137.15625 127.703125 137.859375 127.328125 138.597656 127.023438 C 139.335938 126.714844 140.097656 126.484375 140.882812 126.328125 C 141.667969 126.171875 142.460938 126.09375 143.261719 126.09375 C 144.0625 126.09375 144.855469 126.171875 145.640625 126.328125 C 146.421875 126.484375 147.1875 126.714844 147.925781 127.023438 C 148.664062 127.328125 149.367188 127.703125 150.03125 128.148438 C 150.695312 128.59375 151.3125 129.097656 151.878906 129.664062 C 152.445312 130.230469 152.949219 130.84375 153.394531 131.511719 C 153.839844 132.175781 154.214844 132.878906 154.519531 133.617188 C 154.824219 134.355469 155.058594 135.117188 155.214844 135.902344 C 155.371094 136.6875 155.449219 137.480469 155.449219 138.28125 Z M 155.449219 138.28125 " fill-opacity="1" fill-rule="nonzero"/></g><path fill="#000000" d="M 140.492188 141.597656 L 149.59375 132.246094 C 150.050781 131.777344 150.769531 131.800781 151.199219 132.300781 C 151.625 132.796875 151.601562 133.585938 151.148438 134.054688 L 141.164062 144.3125 C 140.925781 144.554688 140.640625 144.671875 140.316406 144.648438 C 139.992188 144.625 139.71875 144.472656 139.511719 144.199219 L 135.277344 138.570312 C 134.878906 138.042969 134.949219 137.261719 135.429688 136.824219 C 135.914062 136.390625 136.628906 136.464844 137.027344 136.996094 Z M 140.492188 141.597656 " fill-opacity="1" fill-rule="evenodd"/><g clip-path="url(#6d997ee45b)"><path fill="#ffffff" d="M 155.449219 179.066406 C 155.449219 179.863281 155.371094 180.65625 155.214844 181.441406 C 155.058594 182.226562 154.824219 182.988281 154.519531 183.726562 C 154.214844 184.46875 153.839844 185.167969 153.394531 185.835938 C 152.949219 186.5 152.445312 187.117188 151.878906 187.679688 C 151.3125 188.246094 150.695312 188.753906 150.03125 189.195312 C 149.367188 189.640625 148.664062 190.015625 147.925781 190.324219 C 147.1875 190.628906 146.421875 190.859375 145.640625 191.015625 C 144.855469 191.171875 144.0625 191.25 143.261719 191.25 C 142.460938 191.25 141.667969 191.171875 140.882812 191.015625 C 140.097656 190.859375 139.335938 190.628906 138.597656 190.324219 C 137.859375 190.015625 137.15625 189.640625 136.492188 189.195312 C 135.828125 188.753906 135.210938 188.246094 134.644531 187.679688 C 134.078125 187.117188 133.574219 186.5 133.128906 185.835938 C 132.683594 185.167969 132.308594 184.46875 132.003906 183.726562 C 131.695312 182.988281 131.464844 182.226562 131.308594 181.441406 C 131.152344 180.65625 131.074219 179.863281 131.074219 179.066406 C 131.074219 178.265625 131.152344 177.472656 131.308594 176.6875 C 131.464844 175.902344 131.695312 175.140625 132.003906 174.402344 C 132.308594 173.660156 132.683594 172.960938 133.128906 172.292969 C 133.574219 171.628906 134.078125 171.015625 134.644531 170.449219 C 135.210938 169.882812 135.828125 169.378906 136.492188 168.933594 C 137.15625 168.488281 137.859375 168.113281 138.597656 167.804688 C 139.335938 167.5 140.097656 167.269531 140.882812 167.113281 C 141.667969 166.957031 142.460938 166.878906 143.261719 166.878906 C 144.0625 166.878906 144.855469 166.957031 145.640625 167.113281 C 146.421875 167.269531 147.1875 167.5 147.925781 167.804688 C 148.664062 168.113281 149.367188 168.488281 150.03125 168.933594 C 150.695312 169.378906 151.3125 169.882812 151.878906 170.449219 C 152.445312 171.015625 152.949219 171.628906 153.394531 172.292969 C 153.839844 172.960938 154.214844 173.660156 154.519531 174.402344 C 154.824219 175.140625 155.058594 175.902344 155.214844 176.6875 C 155.371094 177.472656 155.449219 178.265625 155.449219 179.066406 Z M 155.449219 179.066406 " fill-opacity="1" fill-rule="nonzero"/></g><path fill="#000000" d="M 140.492188 182.382812 L 149.59375 173.03125 C 150.050781 172.5625 150.769531 172.585938 151.199219 173.085938 C 151.625 173.582031 151.601562 174.371094 151.148438 174.839844 L 141.164062 185.097656 C 140.925781 185.339844 140.640625 185.453125 140.316406 185.433594 C 139.992188 185.410156 139.71875 185.257812 139.511719 184.984375 L 135.277344 179.355469 C 134.878906 178.828125 134.949219 178.042969 135.429688 177.609375 C 135.914062 177.175781 136.628906 177.25 137.027344 177.777344 Z M 140.492188 182.382812 " fill-opacity="1" fill-rule="evenodd"/><g fill="#ffffff" fill-opacity="1"><g transform="translate(165.412002, 102.249267)"><g><path d="M 5.3125 -2.96875 L 13.171875 -2.96875 L 13.171875 0 L 1.609375 0 L 1.609375 -17.96875 L 5.3125 -17.96875 Z M 5.3125 -2.96875 "/></g></g></g><g fill="#ffffff" fill-opacity="1"><g transform="translate(179.097569, 102.249267)"><g><path d="M 16.375 -8.578125 C 16.375 -6.804688 16.0625 -5.253906 15.4375 -3.921875 C 14.8125 -2.585938 13.914062 -1.554688 12.75 -0.828125 C 11.582031 -0.109375 10.242188 0.25 8.734375 0.25 C 7.242188 0.25 5.914062 -0.109375 4.75 -0.828125 C 3.582031 -1.546875 2.675781 -2.566406 2.03125 -3.890625 C 1.394531 -5.222656 1.070312 -6.753906 1.0625 -8.484375 L 1.0625 -9.375 C 1.0625 -11.132812 1.378906 -12.6875 2.015625 -14.03125 C 2.648438 -15.382812 3.550781 -16.421875 4.71875 -17.140625 C 5.882812 -17.859375 7.21875 -18.21875 8.71875 -18.21875 C 10.21875 -18.21875 11.546875 -17.859375 12.703125 -17.140625 C 13.867188 -16.421875 14.769531 -15.382812 15.40625 -14.03125 C 16.050781 -12.6875 16.375 -11.132812 16.375 -9.375 Z M 12.609375 -9.390625 C 12.609375 -11.273438 12.269531 -12.707031 11.59375 -13.6875 C 10.925781 -14.664062 9.96875 -15.15625 8.71875 -15.15625 C 7.46875 -15.15625 6.503906 -14.671875 5.828125 -13.703125 C 5.160156 -12.742188 4.820312 -11.328125 4.8125 -9.453125 L 4.8125 -8.578125 C 4.8125 -6.742188 5.148438 -5.320312 5.828125 -4.3125 C 6.503906 -3.300781 7.472656 -2.796875 8.734375 -2.796875 C 9.984375 -2.796875 10.941406 -3.28125 11.609375 -4.25 C 12.273438 -5.226562 12.609375 -6.648438 12.609375 -8.515625 Z M 12.609375 -9.390625 "/></g></g></g><g fill="#ffffff" fill-opacity="1"><g transform="translate(196.546974, 102.249267)"><g><path d="M 15.828125 -2.265625 C 15.160156 -1.472656 14.21875 -0.851562 13 -0.40625 C 11.78125 0.03125 10.429688 0.25 8.953125 0.25 C 7.390625 0.25 6.019531 -0.0859375 4.84375 -0.765625 C 3.675781 -1.453125 2.773438 -2.441406 2.140625 -3.734375 C 1.503906 -5.023438 1.175781 -6.539062 1.15625 -8.28125 L 1.15625 -9.5 C 1.15625 -11.300781 1.457031 -12.859375 2.0625 -14.171875 C 2.664062 -15.484375 3.535156 -16.484375 4.671875 -17.171875 C 5.816406 -17.867188 7.15625 -18.21875 8.6875 -18.21875 C 10.820312 -18.21875 12.488281 -17.707031 13.6875 -16.6875 C 14.882812 -15.675781 15.597656 -14.203125 15.828125 -12.265625 L 12.21875 -12.265625 C 12.050781 -13.285156 11.6875 -14.035156 11.125 -14.515625 C 10.5625 -14.992188 9.785156 -15.234375 8.796875 -15.234375 C 7.535156 -15.234375 6.578125 -14.757812 5.921875 -13.8125 C 5.265625 -12.863281 4.929688 -11.457031 4.921875 -9.59375 L 4.921875 -8.4375 C 4.921875 -6.550781 5.28125 -5.128906 6 -4.171875 C 6.71875 -3.210938 7.765625 -2.734375 9.140625 -2.734375 C 10.535156 -2.734375 11.53125 -3.023438 12.125 -3.609375 L 12.125 -6.71875 L 8.75 -6.71875 L 8.75 -9.4375 L 15.828125 -9.4375 Z M 15.828125 -2.265625 "/></g></g></g><g fill="#ffffff" fill-opacity="1"><g transform="translate(213.761911, 102.249267)"><g><path d="M 16.375 -8.578125 C 16.375 -6.804688 16.0625 -5.253906 15.4375 -3.921875 C 14.8125 -2.585938 13.914062 -1.554688 12.75 -0.828125 C 11.582031 -0.109375 10.242188 0.25 8.734375 0.25 C 7.242188 0.25 5.914062 -0.109375 4.75 -0.828125 C 3.582031 -1.546875 2.675781 -2.566406 2.03125 -3.890625 C 1.394531 -5.222656 1.070312 -6.753906 1.0625 -8.484375 L 1.0625 -9.375 C 1.0625 -11.132812 1.378906 -12.6875 2.015625 -14.03125 C 2.648438 -15.382812 3.550781 -16.421875 4.71875 -17.140625 C 5.882812 -17.859375 7.21875 -18.21875 8.71875 -18.21875 C 10.21875 -18.21875 11.546875 -17.859375 12.703125 -17.140625 C 13.867188 -16.421875 14.769531 -15.382812 15.40625 -14.03125 C 16.050781 -12.6875 16.375 -11.132812 16.375 -9.375 Z M 12.609375 -9.390625 C 12.609375 -11.273438 12.269531 -12.707031 11.59375 -13.6875 C 10.925781 -14.664062 9.96875 -15.15625 8.71875 -15.15625 C 7.46875 -15.15625 6.503906 -14.671875 5.828125 -13.703125 C 5.160156 -12.742188 4.820312 -11.328125 4.8125 -9.453125 L 4.8125 -8.578125 C 4.8125 -6.742188 5.148438 -5.320312 5.828125 -4.3125 C 6.503906 -3.300781 7.472656 -2.796875 8.734375 -2.796875 C 9.984375 -2.796875 10.941406 -3.28125 11.609375 -4.25 C 12.273438 -5.226562 12.609375 -6.648438 12.609375 -8.515625 Z M 12.609375 -9.390625 "/></g></g></g><g fill="#ffffff" fill-opacity="1"><g transform="translate(231.211317, 102.249267)"><g><path d="M 10.921875 -4.71875 C 10.921875 -5.414062 10.671875 -5.953125 10.171875 -6.328125 C 9.679688 -6.703125 8.796875 -7.097656 7.515625 -7.515625 C 6.234375 -7.929688 5.21875 -8.335938 4.46875 -8.734375 C 2.425781 -9.835938 1.40625 -11.328125 1.40625 -13.203125 C 1.40625 -14.171875 1.675781 -15.035156 2.21875 -15.796875 C 2.769531 -16.554688 3.554688 -17.148438 4.578125 -17.578125 C 5.609375 -18.003906 6.757812 -18.21875 8.03125 -18.21875 C 9.320312 -18.21875 10.46875 -17.984375 11.46875 -17.515625 C 12.46875 -17.054688 13.242188 -16.398438 13.796875 -15.546875 C 14.359375 -14.703125 14.640625 -13.742188 14.640625 -12.671875 L 10.9375 -12.671875 C 10.9375 -13.492188 10.675781 -14.128906 10.15625 -14.578125 C 9.632812 -15.035156 8.90625 -15.265625 7.96875 -15.265625 C 7.0625 -15.265625 6.359375 -15.070312 5.859375 -14.6875 C 5.359375 -14.3125 5.109375 -13.8125 5.109375 -13.1875 C 5.109375 -12.601562 5.398438 -12.113281 5.984375 -11.71875 C 6.578125 -11.320312 7.445312 -10.953125 8.59375 -10.609375 C 10.695312 -9.972656 12.226562 -9.1875 13.1875 -8.25 C 14.15625 -7.3125 14.640625 -6.140625 14.640625 -4.734375 C 14.640625 -3.179688 14.050781 -1.960938 12.875 -1.078125 C 11.695312 -0.191406 10.113281 0.25 8.125 0.25 C 6.738281 0.25 5.476562 0 4.34375 -0.5 C 3.207031 -1.007812 2.34375 -1.703125 1.75 -2.578125 C 1.15625 -3.460938 0.859375 -4.488281 0.859375 -5.65625 L 4.5625 -5.65625 C 4.5625 -3.664062 5.75 -2.671875 8.125 -2.671875 C 9 -2.671875 9.679688 -2.847656 10.171875 -3.203125 C 10.671875 -3.566406 10.921875 -4.070312 10.921875 -4.71875 Z M 10.921875 -4.71875 "/></g></g></g><g fill="#ffffff" fill-opacity="1"><g transform="translate(164.957181, 146.151389)"><g><path d="M 5.546875 0 L 1.84375 0 L 1.84375 -17.96875 L 5.546875 -17.96875 Z M 5.546875 0 "/></g></g></g><g fill="#ffffff" fill-opacity="1"><g transform="translate(172.324434, 146.151389)"><g><path d="M 16.21875 0 L 12.515625 0 L 5.3125 -11.828125 L 5.3125 0 L 1.609375 0 L 1.609375 -17.96875 L 5.3125 -17.96875 L 12.53125 -6.125 L 12.53125 -17.96875 L 16.21875 -17.96875 Z M 16.21875 0 "/></g></g></g><g fill="#ffffff" fill-opacity="1"><g transform="translate(190.168734, 146.151389)"><g><path d="M 8.25 -4.453125 L 12.3125 -17.96875 L 16.4375 -17.96875 L 10.1875 0 L 6.328125 0 L 0.09375 -17.96875 L 4.203125 -17.96875 Z M 8.25 -4.453125 "/></g></g></g><g fill="#ffffff" fill-opacity="1"><g transform="translate(206.692605, 146.151389)"><g><path d="M 5.546875 0 L 1.84375 0 L 1.84375 -17.96875 L 5.546875 -17.96875 Z M 5.546875 0 "/></g></g></g><g fill="#ffffff" fill-opacity="1"><g transform="translate(214.059858, 146.151389)"><g><path d="M 15.140625 -14.96875 L 9.625 -14.96875 L 9.625 0 L 5.921875 0 L 5.921875 -14.96875 L 0.5 -14.96875 L 0.5 -17.96875 L 15.140625 -17.96875 Z M 15.140625 -14.96875 "/></g></g></g><g fill="#ffffff" fill-opacity="1"><g transform="translate(229.695217, 146.151389)"><g><path d="M 11.75 -3.703125 L 5.265625 -3.703125 L 4.03125 0 L 0.09375 0 L 6.78125 -17.96875 L 10.203125 -17.96875 L 16.9375 0 L 13 0 Z M 6.265625 -6.703125 L 10.75 -6.703125 L 8.5 -13.4375 Z M 6.265625 -6.703125 "/></g></g></g><g fill="#ffffff" fill-opacity="1"><g transform="translate(246.700366, 146.151389)"><g><path d="M 15.71875 -5.984375 C 15.570312 -4.054688 14.851562 -2.535156 13.5625 -1.421875 C 12.28125 -0.304688 10.585938 0.25 8.484375 0.25 C 6.179688 0.25 4.367188 -0.523438 3.046875 -2.078125 C 1.722656 -3.628906 1.0625 -5.757812 1.0625 -8.46875 L 1.0625 -9.5625 C 1.0625 -11.289062 1.363281 -12.8125 1.96875 -14.125 C 2.582031 -15.445312 3.453125 -16.457031 4.578125 -17.15625 C 5.710938 -17.863281 7.03125 -18.21875 8.53125 -18.21875 C 10.601562 -18.21875 12.269531 -17.660156 13.53125 -16.546875 C 14.800781 -15.441406 15.535156 -13.882812 15.734375 -11.875 L 12.03125 -11.875 C 11.945312 -13.03125 11.625 -13.867188 11.0625 -14.390625 C 10.507812 -14.921875 9.664062 -15.1875 8.53125 -15.1875 C 7.289062 -15.1875 6.363281 -14.742188 5.75 -13.859375 C 5.144531 -12.972656 4.832031 -11.597656 4.8125 -9.734375 L 4.8125 -8.375 C 4.8125 -6.4375 5.101562 -5.019531 5.6875 -4.125 C 6.28125 -3.226562 7.210938 -2.78125 8.484375 -2.78125 C 9.628906 -2.78125 10.484375 -3.039062 11.046875 -3.5625 C 11.609375 -4.082031 11.929688 -4.890625 12.015625 -5.984375 Z M 15.71875 -5.984375 "/></g></g></g><g fill="#ffffff" fill-opacity="1"><g transform="translate(263.236578, 146.151389)"><g><path d="M 5.546875 0 L 1.84375 0 L 1.84375 -17.96875 L 5.546875 -17.96875 Z M 5.546875 0 "/></g></g></g><g fill="#ffffff" fill-opacity="1"><g transform="translate(270.603831, 146.151389)"><g><path d="M 16.375 -8.578125 C 16.375 -6.804688 16.0625 -5.253906 15.4375 -3.921875 C 14.8125 -2.585938 13.914062 -1.554688 12.75 -0.828125 C 11.582031 -0.109375 10.242188 0.25 8.734375 0.25 C 7.242188 0.25 5.914062 -0.109375 4.75 -0.828125 C 3.582031 -1.546875 2.675781 -2.566406 2.03125 -3.890625 C 1.394531 -5.222656 1.070312 -6.753906 1.0625 -8.484375 L 1.0625 -9.375 C 1.0625 -11.132812 1.378906 -12.6875 2.015625 -14.03125 C 2.648438 -15.382812 3.550781 -16.421875 4.71875 -17.140625 C 5.882812 -17.859375 7.21875 -18.21875 8.71875 -18.21875 C 10.21875 -18.21875 11.546875 -17.859375 12.703125 -17.140625 C 13.867188 -16.421875 14.769531 -15.382812 15.40625 -14.03125 C 16.050781 -12.6875 16.375 -11.132812 16.375 -9.375 Z M 12.609375 -9.390625 C 12.609375 -11.273438 12.269531 -12.707031 11.59375 -13.6875 C 10.925781 -14.664062 9.96875 -15.15625 8.71875 -15.15625 C 7.46875 -15.15625 6.503906 -14.671875 5.828125 -13.703125 C 5.160156 -12.742188 4.820312 -11.328125 4.8125 -9.453125 L 4.8125 -8.578125 C 4.8125 -6.742188 5.148438 -5.320312 5.828125 -4.3125 C 6.503906 -3.300781 7.472656 -2.796875 8.734375 -2.796875 C 9.984375 -2.796875 10.941406 -3.28125 11.609375 -4.25 C 12.273438 -5.226562 12.609375 -6.648438 12.609375 -8.515625 Z M 12.609375 -9.390625 "/></g></g></g><g fill="#ffffff" fill-opacity="1"><g transform="translate(288.053236, 146.151389)"><g><path d="M 16.21875 0 L 12.515625 0 L 5.3125 -11.828125 L 5.3125 0 L 1.609375 0 L 1.609375 -17.96875 L 5.3125 -17.96875 L 12.53125 -6.125 L 12.53125 -17.96875 L 16.21875 -17.96875 Z M 16.21875 0 "/></g></g></g><g fill="#ffffff" fill-opacity="1"><g transform="translate(305.897536, 146.151389)"><g><path d="M 12.421875 -7.796875 L 5.3125 -7.796875 L 5.3125 -2.96875 L 13.65625 -2.96875 L 13.65625 0 L 1.609375 0 L 1.609375 -17.96875 L 13.625 -17.96875 L 13.625 -14.96875 L 5.3125 -14.96875 L 5.3125 -10.6875 L 12.421875 -10.6875 Z M 12.421875 -7.796875 "/></g></g></g><g fill="#ffffff" fill-opacity="1"><g transform="translate(320.113742, 146.151389)"><g><path d="M 10.921875 -4.71875 C 10.921875 -5.414062 10.671875 -5.953125 10.171875 -6.328125 C 9.679688 -6.703125 8.796875 -7.097656 7.515625 -7.515625 C 6.234375 -7.929688 5.21875 -8.335938 4.46875 -8.734375 C 2.425781 -9.835938 1.40625 -11.328125 1.40625 -13.203125 C 1.40625 -14.171875 1.675781 -15.035156 2.21875 -15.796875 C 2.769531 -16.554688 3.554688 -17.148438 4.578125 -17.578125 C 5.609375 -18.003906 6.757812 -18.21875 8.03125 -18.21875 C 9.320312 -18.21875 10.46875 -17.984375 11.46875 -17.515625 C 12.46875 -17.054688 13.242188 -16.398438 13.796875 -15.546875 C 14.359375 -14.703125 14.640625 -13.742188 14.640625 -12.671875 L 10.9375 -12.671875 C 10.9375 -13.492188 10.675781 -14.128906 10.15625 -14.578125 C 9.632812 -15.035156 8.90625 -15.265625 7.96875 -15.265625 C 7.0625 -15.265625 6.359375 -15.070312 5.859375 -14.6875 C 5.359375 -14.3125 5.109375 -13.8125 5.109375 -13.1875 C 5.109375 -12.601562 5.398438 -12.113281 5.984375 -11.71875 C 6.578125 -11.320312 7.445312 -10.953125 8.59375 -10.609375 C 10.695312 -9.972656 12.226562 -9.1875 13.1875 -8.25 C 14.15625 -7.3125 14.640625 -6.140625 14.640625 -4.734375 C 14.640625 -3.179688 14.050781 -1.960938 12.875 -1.078125 C 11.695312 -0.191406 10.113281 0.25 8.125 0.25 C 6.738281 0.25 5.476562 0 4.34375 -0.5 C 3.207031 -1.007812 2.34375 -1.703125 1.75 -2.578125 C 1.15625 -3.460938 0.859375 -4.488281 0.859375 -5.65625 L 4.5625 -5.65625 C 4.5625 -3.664062 5.75 -2.671875 8.125 -2.671875 C 9 -2.671875 9.679688 -2.847656 10.171875 -3.203125 C 10.671875 -3.566406 10.921875 -4.070312 10.921875 -4.71875 Z M 10.921875 -4.71875 "/></g></g></g><g fill="#ffffff" fill-opacity="1"><g transform="translate(166.484966, 186.935979)"><g><path d="M 6.4375 -17.96875 L 11.0625 -4.9375 L 15.65625 -17.96875 L 20.515625 -17.96875 L 20.515625 0 L 16.796875 0 L 16.796875 -4.90625 L 17.171875 -13.390625 L 12.3125 0 L 9.78125 0 L 4.9375 -13.375 L 5.3125 -4.90625 L 5.3125 0 L 1.609375 0 L 1.609375 -17.96875 Z M 6.4375 -17.96875 "/></g></g></g><g fill="#ffffff" fill-opacity="1"><g transform="translate(188.623746, 186.935979)"><g><path d="M 12.421875 -7.796875 L 5.3125 -7.796875 L 5.3125 -2.96875 L 13.65625 -2.96875 L 13.65625 0 L 1.609375 0 L 1.609375 -17.96875 L 13.625 -17.96875 L 13.625 -14.96875 L 5.3125 -14.96875 L 5.3125 -10.6875 L 12.421875 -10.6875 Z M 12.421875 -7.796875 "/></g></g></g><g fill="#ffffff" fill-opacity="1"><g transform="translate(202.839952, 186.935979)"><g><path d="M 16.21875 0 L 12.515625 0 L 5.3125 -11.828125 L 5.3125 0 L 1.609375 0 L 1.609375 -17.96875 L 5.3125 -17.96875 L 12.53125 -6.125 L 12.53125 -17.96875 L 16.21875 -17.96875 Z M 16.21875 0 "/></g></g></g><g fill="#ffffff" fill-opacity="1"><g transform="translate(220.684252, 186.935979)"><g><path d="M 15.203125 -17.96875 L 15.203125 -6.140625 C 15.203125 -4.171875 14.585938 -2.613281 13.359375 -1.46875 C 12.128906 -0.320312 10.445312 0.25 8.3125 0.25 C 6.21875 0.25 4.550781 -0.304688 3.3125 -1.421875 C 2.082031 -2.535156 1.457031 -4.0625 1.4375 -6 L 1.4375 -17.96875 L 5.140625 -17.96875 L 5.140625 -6.109375 C 5.140625 -4.929688 5.421875 -4.070312 5.984375 -3.53125 C 6.546875 -3 7.320312 -2.734375 8.3125 -2.734375 C 10.394531 -2.734375 11.457031 -3.828125 11.5 -6.015625 L 11.5 -17.96875 Z M 15.203125 -17.96875 "/></g></g></g><g clip-path="url(#4a2ad327d6)"><path fill="#ffffff" d="M 155.449219 219.730469 C 155.449219 220.53125 155.371094 221.324219 155.214844 222.109375 C 155.058594 222.890625 154.824219 223.65625 154.519531 224.394531 C 154.214844 225.132812 153.839844 225.835938 153.394531 226.5 C 152.949219 227.164062 152.445312 227.78125 151.878906 228.347656 C 151.3125 228.914062 150.695312 229.417969 150.03125 229.863281 C 149.367188 230.308594 148.664062 230.683594 147.925781 230.988281 C 147.1875 231.292969 146.421875 231.527344 145.640625 231.683594 C 144.855469 231.839844 144.0625 231.914062 143.261719 231.914062 C 142.460938 231.914062 141.667969 231.839844 140.882812 231.683594 C 140.097656 231.527344 139.335938 231.292969 138.597656 230.988281 C 137.859375 230.683594 137.15625 230.308594 136.492188 229.863281 C 135.828125 229.417969 135.210938 228.914062 134.644531 228.347656 C 134.078125 227.78125 133.574219 227.164062 133.128906 226.5 C 132.683594 225.835938 132.308594 225.132812 132.003906 224.394531 C 131.695312 223.65625 131.464844 222.890625 131.308594 222.109375 C 131.152344 221.324219 131.074219 220.53125 131.074219 219.730469 C 131.074219 218.929688 131.152344 218.136719 131.308594 217.351562 C 131.464844 216.566406 131.695312 215.804688 132.003906 215.066406 C 132.308594 214.328125 132.683594 213.625 133.128906 212.960938 C 133.574219 212.296875 134.078125 211.679688 134.644531 211.113281 C 135.210938 210.546875 135.828125 210.042969 136.492188 209.597656 C 137.15625 209.152344 137.859375 208.777344 138.597656 208.472656 C 139.335938 208.164062 140.097656 207.933594 140.882812 207.777344 C 141.667969 207.621094 142.460938 207.542969 143.261719 207.542969 C 144.0625 207.542969 144.855469 207.621094 145.640625 207.777344 C 146.421875 207.933594 147.1875 208.164062 147.925781 208.472656 C 148.664062 208.777344 149.367188 209.152344 150.03125 209.597656 C 150.695312 210.042969 151.3125 210.546875 151.878906 211.113281 C 152.445312 211.679688 152.949219 212.296875 153.394531 212.960938 C 153.839844 213.625 154.214844 214.328125 154.519531 215.066406 C 154.824219 215.804688 155.058594 216.566406 155.214844 217.351562 C 155.371094 218.136719 155.449219 218.929688 155.449219 219.730469 Z M 155.449219 219.730469 " fill-opacity="1" fill-rule="nonzero"/></g><path fill="#000000" d="M 140.492188 223.046875 L 149.59375 213.695312 C 150.050781 213.226562 150.769531 213.253906 151.199219 213.75 C 151.625 214.246094 151.601562 215.035156 151.148438 215.503906 L 141.164062 225.761719 C 140.925781 226.007812 140.640625 226.121094 140.316406 226.097656 C 139.992188 226.074219 139.71875 225.921875 139.511719 225.648438 L 135.277344 220.023438 C 134.878906 219.492188 134.949219 218.710938 135.429688 218.273438 C 135.914062 217.839844 136.628906 217.917969 137.027344 218.445312 Z M 140.492188 223.046875 " fill-opacity="1" fill-rule="evenodd"/><g fill="#ffffff" fill-opacity="1"><g transform="translate(164.093068, 227.601706)"><g><path d="M 15.140625 -14.96875 L 9.625 -14.96875 L 9.625 0 L 5.921875 0 L 5.921875 -14.96875 L 0.5 -14.96875 L 0.5 -17.96875 L 15.140625 -17.96875 Z M 15.140625 -14.96875 "/></g></g></g><g fill="#ffffff" fill-opacity="1"><g transform="translate(179.728427, 227.601706)"><g><path d="M 11.75 -3.703125 L 5.265625 -3.703125 L 4.03125 0 L 0.09375 0 L 6.78125 -17.96875 L 10.203125 -17.96875 L 16.9375 0 L 13 0 Z M 6.265625 -6.703125 L 10.75 -6.703125 L 8.5 -13.4375 Z M 6.265625 -6.703125 "/></g></g></g><g fill="#ffffff" fill-opacity="1"><g transform="translate(196.733576, 227.601706)"><g><path d="M 8.265625 -6.578125 L 5.3125 -6.578125 L 5.3125 0 L 1.609375 0 L 1.609375 -17.96875 L 8.28125 -17.96875 C 10.40625 -17.96875 12.039062 -17.492188 13.1875 -16.546875 C 14.34375 -15.609375 14.921875 -14.273438 14.921875 -12.546875 C 14.921875 -11.316406 14.65625 -10.289062 14.125 -9.46875 C 13.59375 -8.65625 12.789062 -8.003906 11.71875 -7.515625 L 15.609375 -0.171875 L 15.609375 0 L 11.625 0 Z M 5.3125 -9.578125 L 8.296875 -9.578125 C 9.222656 -9.578125 9.941406 -9.8125 10.453125 -10.28125 C 10.960938 -10.757812 11.21875 -11.414062 11.21875 -12.25 C 11.21875 -13.09375 10.976562 -13.753906 10.5 -14.234375 C 10.019531 -14.722656 9.28125 -14.96875 8.28125 -14.96875 L 5.3125 -14.96875 Z M 5.3125 -9.578125 "/></g></g></g><g fill="#ffffff" fill-opacity="1"><g transform="translate(212.862553, 227.601706)"><g><path d="M 8.84375 -17.96875 L 12.546875 -17.96875 L 12.546875 -5.53125 C 12.546875 -4.382812 12.289062 -3.375 11.78125 -2.5 C 11.28125 -1.625 10.566406 -0.945312 9.640625 -0.46875 C 8.722656 0.0078125 7.6875 0.25 6.53125 0.25 C 4.625 0.25 3.140625 -0.234375 2.078125 -1.203125 C 1.023438 -2.171875 0.5 -3.539062 0.5 -5.3125 L 4.21875 -5.3125 C 4.21875 -4.425781 4.398438 -3.773438 4.765625 -3.359375 C 5.140625 -2.941406 5.726562 -2.734375 6.53125 -2.734375 C 7.238281 -2.734375 7.800781 -2.972656 8.21875 -3.453125 C 8.632812 -3.941406 8.84375 -4.632812 8.84375 -5.53125 Z M 8.84375 -17.96875 "/></g></g></g><g fill="#ffffff" fill-opacity="1"><g transform="translate(226.980035, 227.601706)"><g><path d="M 12.421875 -7.796875 L 5.3125 -7.796875 L 5.3125 -2.96875 L 13.65625 -2.96875 L 13.65625 0 L 1.609375 0 L 1.609375 -17.96875 L 13.625 -17.96875 L 13.625 -14.96875 L 5.3125 -14.96875 L 5.3125 -10.6875 L 12.421875 -10.6875 Z M 12.421875 -7.796875 "/></g></g></g><g fill="#ffffff" fill-opacity="1"><g transform="translate(241.196241, 227.601706)"><g><path d="M 15.140625 -14.96875 L 9.625 -14.96875 L 9.625 0 L 5.921875 0 L 5.921875 -14.96875 L 0.5 -14.96875 L 0.5 -17.96875 L 15.140625 -17.96875 Z M 15.140625 -14.96875 "/></g></g></g><g fill="#ffffff" fill-opacity="1"><g transform="translate(256.8316, 227.601706)"><g><path d="M 11.75 -3.703125 L 5.265625 -3.703125 L 4.03125 0 L 0.09375 0 L 6.78125 -17.96875 L 10.203125 -17.96875 L 16.9375 0 L 13 0 Z M 6.265625 -6.703125 L 10.75 -6.703125 L 8.5 -13.4375 Z M 6.265625 -6.703125 "/></g></g></g><g fill="#ffffff" fill-opacity="1"><g transform="translate(273.83675, 227.601706)"><g><path d="M 10.921875 -4.71875 C 10.921875 -5.414062 10.671875 -5.953125 10.171875 -6.328125 C 9.679688 -6.703125 8.796875 -7.097656 7.515625 -7.515625 C 6.234375 -7.929688 5.21875 -8.335938 4.46875 -8.734375 C 2.425781 -9.835938 1.40625 -11.328125 1.40625 -13.203125 C 1.40625 -14.171875 1.675781 -15.035156 2.21875 -15.796875 C 2.769531 -16.554688 3.554688 -17.148438 4.578125 -17.578125 C 5.609375 -18.003906 6.757812 -18.21875 8.03125 -18.21875 C 9.320312 -18.21875 10.46875 -17.984375 11.46875 -17.515625 C 12.46875 -17.054688 13.242188 -16.398438 13.796875 -15.546875 C 14.359375 -14.703125 14.640625 -13.742188 14.640625 -12.671875 L 10.9375 -12.671875 C 10.9375 -13.492188 10.675781 -14.128906 10.15625 -14.578125 C 9.632812 -15.035156 8.90625 -15.265625 7.96875 -15.265625 C 7.0625 -15.265625 6.359375 -15.070312 5.859375 -14.6875 C 5.359375 -14.3125 5.109375 -13.8125 5.109375 -13.1875 C 5.109375 -12.601562 5.398438 -12.113281 5.984375 -11.71875 C 6.578125 -11.320312 7.445312 -10.953125 8.59375 -10.609375 C 10.695312 -9.972656 12.226562 -9.1875 13.1875 -8.25 C 14.15625 -7.3125 14.640625 -6.140625 14.640625 -4.734375 C 14.640625 -3.179688 14.050781 -1.960938 12.875 -1.078125 C 11.695312 -0.191406 10.113281 0.25 8.125 0.25 C 6.738281 0.25 5.476562 0 4.34375 -0.5 C 3.207031 -1.007812 2.34375 -1.703125 1.75 -2.578125 C 1.15625 -3.460938 0.859375 -4.488281 0.859375 -5.65625 L 4.5625 -5.65625 C 4.5625 -3.664062 5.75 -2.671875 8.125 -2.671875 C 9 -2.671875 9.679688 -2.847656 10.171875 -3.203125 C 10.671875 -3.566406 10.921875 -4.070312 10.921875 -4.71875 Z M 10.921875 -4.71875 "/></g></g></g><g clip-path="url(#ee3aac7c1b)"><path fill="#ffffff" d="M 155.449219 260.1875 C 155.449219 260.988281 155.371094 261.78125 155.214844 262.566406 C 155.058594 263.351562 154.824219 264.113281 154.519531 264.851562 C 154.214844 265.589844 153.839844 266.292969 153.394531 266.957031 C 152.949219 267.625 152.445312 268.238281 151.878906 268.804688 C 151.3125 269.371094 150.695312 269.875 150.03125 270.320312 C 149.367188 270.765625 148.664062 271.140625 147.925781 271.445312 C 147.1875 271.753906 146.421875 271.984375 145.640625 272.140625 C 144.855469 272.296875 144.0625 272.375 143.261719 272.375 C 142.460938 272.375 141.667969 272.296875 140.882812 272.140625 C 140.097656 271.984375 139.335938 271.753906 138.597656 271.445312 C 137.859375 271.140625 137.15625 270.765625 136.492188 270.320312 C 135.828125 269.875 135.210938 269.371094 134.644531 268.804688 C 134.078125 268.238281 133.574219 267.625 133.128906 266.957031 C 132.683594 266.292969 132.308594 265.589844 132.003906 264.851562 C 131.695312 264.113281 131.464844 263.351562 131.308594 262.566406 C 131.152344 261.78125 131.074219 260.988281 131.074219 260.1875 C 131.074219 259.386719 131.152344 258.59375 131.308594 257.8125 C 131.464844 257.027344 131.695312 256.265625 132.003906 255.523438 C 132.308594 254.785156 132.683594 254.082031 133.128906 253.417969 C 133.574219 252.753906 134.078125 252.136719 134.644531 251.570312 C 135.210938 251.003906 135.828125 250.5 136.492188 250.054688 C 137.15625 249.613281 137.859375 249.234375 138.597656 248.929688 C 139.335938 248.625 140.097656 248.394531 140.882812 248.238281 C 141.667969 248.082031 142.460938 248.003906 143.261719 248.003906 C 144.0625 248.003906 144.855469 248.082031 145.640625 248.238281 C 146.421875 248.394531 147.1875 248.625 147.925781 248.929688 C 148.664062 249.234375 149.367188 249.613281 150.03125 250.054688 C 150.695312 250.5 151.3125 251.003906 151.878906 251.570312 C 152.445312 252.136719 152.949219 252.753906 153.394531 253.417969 C 153.839844 254.082031 154.214844 254.785156 154.519531 255.523438 C 154.824219 256.265625 155.058594 257.027344 155.214844 257.8125 C 155.371094 258.59375 155.449219 259.386719 155.449219 260.1875 Z M 155.449219 260.1875 " fill-opacity="1" fill-rule="nonzero"/></g><path fill="#000000" d="M 140.492188 263.503906 L 149.59375 254.152344 C 150.050781 253.6875 150.769531 253.710938 151.199219 254.207031 C 151.625 254.707031 151.601562 255.492188 151.148438 255.960938 L 141.164062 266.222656 C 140.925781 266.464844 140.640625 266.578125 140.316406 266.554688 C 139.992188 266.53125 139.71875 266.378906 139.511719 266.105469 L 135.277344 260.480469 C 134.878906 259.953125 134.949219 259.167969 135.429688 258.734375 C 135.914062 258.296875 136.628906 258.375 137.027344 258.902344 Z M 140.492188 263.503906 " fill-opacity="1" fill-rule="evenodd"/><g fill="#ffffff" fill-opacity="1"><g transform="translate(167.875858, 268.059645)"><g><path d="M 12.421875 -7.34375 L 5.3125 -7.34375 L 5.3125 0 L 1.609375 0 L 1.609375 -17.96875 L 13.3125 -17.96875 L 13.3125 -14.96875 L 5.3125 -14.96875 L 5.3125 -10.328125 L 12.421875 -10.328125 Z M 12.421875 -7.34375 "/></g></g></g><g fill="#ffffff" fill-opacity="1"><g transform="translate(181.721851, 268.059645)"><g><path d="M 16.375 -8.578125 C 16.375 -6.804688 16.0625 -5.253906 15.4375 -3.921875 C 14.8125 -2.585938 13.914062 -1.554688 12.75 -0.828125 C 11.582031 -0.109375 10.242188 0.25 8.734375 0.25 C 7.242188 0.25 5.914062 -0.109375 4.75 -0.828125 C 3.582031 -1.546875 2.675781 -2.566406 2.03125 -3.890625 C 1.394531 -5.222656 1.070312 -6.753906 1.0625 -8.484375 L 1.0625 -9.375 C 1.0625 -11.132812 1.378906 -12.6875 2.015625 -14.03125 C 2.648438 -15.382812 3.550781 -16.421875 4.71875 -17.140625 C 5.882812 -17.859375 7.21875 -18.21875 8.71875 -18.21875 C 10.21875 -18.21875 11.546875 -17.859375 12.703125 -17.140625 C 13.867188 -16.421875 14.769531 -15.382812 15.40625 -14.03125 C 16.050781 -12.6875 16.375 -11.132812 16.375 -9.375 Z M 12.609375 -9.390625 C 12.609375 -11.273438 12.269531 -12.707031 11.59375 -13.6875 C 10.925781 -14.664062 9.96875 -15.15625 8.71875 -15.15625 C 7.46875 -15.15625 6.503906 -14.671875 5.828125 -13.703125 C 5.160156 -12.742188 4.820312 -11.328125 4.8125 -9.453125 L 4.8125 -8.578125 C 4.8125 -6.742188 5.148438 -5.320312 5.828125 -4.3125 C 6.503906 -3.300781 7.472656 -2.796875 8.734375 -2.796875 C 9.984375 -2.796875 10.941406 -3.28125 11.609375 -4.25 C 12.273438 -5.226562 12.609375 -6.648438 12.609375 -8.515625 Z M 12.609375 -9.390625 "/></g></g></g><g fill="#ffffff" fill-opacity="1"><g transform="translate(199.171256, 268.059645)"><g><path d="M 5.3125 -2.96875 L 13.171875 -2.96875 L 13.171875 0 L 1.609375 0 L 1.609375 -17.96875 L 5.3125 -17.96875 Z M 5.3125 -2.96875 "/></g></g></g><g fill="#ffffff" fill-opacity="1"><g transform="translate(212.856823, 268.059645)"><g><path d="M 5.3125 -2.96875 L 13.171875 -2.96875 L 13.171875 0 L 1.609375 0 L 1.609375 -17.96875 L 5.3125 -17.96875 Z M 5.3125 -2.96875 "/></g></g></g><g fill="#ffffff" fill-opacity="1"><g transform="translate(226.542389, 268.059645)"><g><path d="M 12.421875 -7.796875 L 5.3125 -7.796875 L 5.3125 -2.96875 L 13.65625 -2.96875 L 13.65625 0 L 1.609375 0 L 1.609375 -17.96875 L 13.625 -17.96875 L 13.625 -14.96875 L 5.3125 -14.96875 L 5.3125 -10.6875 L 12.421875 -10.6875 Z M 12.421875 -7.796875 "/></g></g></g><g fill="#ffffff" fill-opacity="1"><g transform="translate(240.758595, 268.059645)"><g><path d="M 15.140625 -14.96875 L 9.625 -14.96875 L 9.625 0 L 5.921875 0 L 5.921875 -14.96875 L 0.5 -14.96875 L 0.5 -17.96875 L 15.140625 -17.96875 Z M 15.140625 -14.96875 "/></g></g></g><g fill="#ffffff" fill-opacity="1"><g transform="translate(256.393954, 268.059645)"><g><path d="M 16.375 -8.578125 C 16.375 -6.804688 16.0625 -5.253906 15.4375 -3.921875 C 14.8125 -2.585938 13.914062 -1.554688 12.75 -0.828125 C 11.582031 -0.109375 10.242188 0.25 8.734375 0.25 C 7.242188 0.25 5.914062 -0.109375 4.75 -0.828125 C 3.582031 -1.546875 2.675781 -2.566406 2.03125 -3.890625 C 1.394531 -5.222656 1.070312 -6.753906 1.0625 -8.484375 L 1.0625 -9.375 C 1.0625 -11.132812 1.378906 -12.6875 2.015625 -14.03125 C 2.648438 -15.382812 3.550781 -16.421875 4.71875 -17.140625 C 5.882812 -17.859375 7.21875 -18.21875 8.71875 -18.21875 C 10.21875 -18.21875 11.546875 -17.859375 12.703125 -17.140625 C 13.867188 -16.421875 14.769531 -15.382812 15.40625 -14.03125 C 16.050781 -12.6875 16.375 -11.132812 16.375 -9.375 Z M 12.609375 -9.390625 C 12.609375 -11.273438 12.269531 -12.707031 11.59375 -13.6875 C 10.925781 -14.664062 9.96875 -15.15625 8.71875 -15.15625 C 7.46875 -15.15625 6.503906 -14.671875 5.828125 -13.703125 C 5.160156 -12.742188 4.820312 -11.328125 4.8125 -9.453125 L 4.8125 -8.578125 C 4.8125 -6.742188 5.148438 -5.320312 5.828125 -4.3125 C 6.503906 -3.300781 7.472656 -2.796875 8.734375 -2.796875 C 9.984375 -2.796875 10.941406 -3.28125 11.609375 -4.25 C 12.273438 -5.226562 12.609375 -6.648438 12.609375 -8.515625 Z M 12.609375 -9.390625 "/></g></g></g><g fill="#ffffff" fill-opacity="1"><g transform="translate(273.84336, 268.059645)"><g><path d="M 10.921875 -4.71875 C 10.921875 -5.414062 10.671875 -5.953125 10.171875 -6.328125 C 9.679688 -6.703125 8.796875 -7.097656 7.515625 -7.515625 C 6.234375 -7.929688 5.21875 -8.335938 4.46875 -8.734375 C 2.425781 -9.835938 1.40625 -11.328125 1.40625 -13.203125 C 1.40625 -14.171875 1.675781 -15.035156 2.21875 -15.796875 C 2.769531 -16.554688 3.554688 -17.148438 4.578125 -17.578125 C 5.609375 -18.003906 6.757812 -18.21875 8.03125 -18.21875 C 9.320312 -18.21875 10.46875 -17.984375 11.46875 -17.515625 C 12.46875 -17.054688 13.242188 -16.398438 13.796875 -15.546875 C 14.359375 -14.703125 14.640625 -13.742188 14.640625 -12.671875 L 10.9375 -12.671875 C 10.9375 -13.492188 10.675781 -14.128906 10.15625 -14.578125 C 9.632812 -15.035156 8.90625 -15.265625 7.96875 -15.265625 C 7.0625 -15.265625 6.359375 -15.070312 5.859375 -14.6875 C 5.359375 -14.3125 5.109375 -13.8125 5.109375 -13.1875 C 5.109375 -12.601562 5.398438 -12.113281 5.984375 -11.71875 C 6.578125 -11.320312 7.445312 -10.953125 8.59375 -10.609375 C 10.695312 -9.972656 12.226562 -9.1875 13.1875 -8.25 C 14.15625 -7.3125 14.640625 -6.140625 14.640625 -4.734375 C 14.640625 -3.179688 14.050781 -1.960938 12.875 -1.078125 C 11.695312 -0.191406 10.113281 0.25 8.125 0.25 C 6.738281 0.25 5.476562 0 4.34375 -0.5 C 3.207031 -1.007812 2.34375 -1.703125 1.75 -2.578125 C 1.15625 -3.460938 0.859375 -4.488281 0.859375 -5.65625 L 4.5625 -5.65625 C 4.5625 -3.664062 5.75 -2.671875 8.125 -2.671875 C 9 -2.671875 9.679688 -2.847656 10.171875 -3.203125 C 10.671875 -3.566406 10.921875 -4.070312 10.921875 -4.71875 Z M 10.921875 -4.71875 "/></g></g></g><g clip-path="url(#7b21015b4e)"><path fill="#ffffff" d="M 155.449219 298.257812 C 155.449219 299.058594 155.371094 299.851562 155.214844 300.636719 C 155.058594 301.421875 154.824219 302.183594 154.519531 302.921875 C 154.214844 303.660156 153.839844 304.363281 153.394531 305.027344 C 152.949219 305.691406 152.445312 306.308594 151.878906 306.875 C 151.3125 307.441406 150.695312 307.945312 150.03125 308.390625 C 149.367188 308.835938 148.664062 309.210938 147.925781 309.515625 C 147.1875 309.824219 146.421875 310.054688 145.640625 310.210938 C 144.855469 310.367188 144.0625 310.445312 143.261719 310.445312 C 142.460938 310.445312 141.667969 310.367188 140.882812 310.210938 C 140.097656 310.054688 139.335938 309.824219 138.597656 309.515625 C 137.859375 309.210938 137.15625 308.835938 136.492188 308.390625 C 135.828125 307.945312 135.210938 307.441406 134.644531 306.875 C 134.078125 306.308594 133.574219 305.691406 133.128906 305.027344 C 132.683594 304.363281 132.308594 303.660156 132.003906 302.921875 C 131.695312 302.183594 131.464844 301.421875 131.308594 300.636719 C 131.152344 299.851562 131.074219 299.058594 131.074219 298.257812 C 131.074219 297.457031 131.152344 296.664062 131.308594 295.878906 C 131.464844 295.097656 131.695312 294.332031 132.003906 293.59375 C 132.308594 292.855469 132.683594 292.152344 133.128906 291.488281 C 133.574219 290.824219 134.078125 290.207031 134.644531 289.640625 C 135.210938 289.074219 135.828125 288.570312 136.492188 288.125 C 137.15625 287.679688 137.859375 287.304688 138.597656 287 C 139.335938 286.695312 140.097656 286.460938 140.882812 286.304688 C 141.667969 286.148438 142.460938 286.074219 143.261719 286.074219 C 144.0625 286.074219 144.855469 286.148438 145.640625 286.304688 C 146.421875 286.460938 147.1875 286.695312 147.925781 287 C 148.664062 287.304688 149.367188 287.679688 150.03125 288.125 C 150.695312 288.570312 151.3125 289.074219 151.878906 289.640625 C 152.445312 290.207031 152.949219 290.824219 153.394531 291.488281 C 153.839844 292.152344 154.214844 292.855469 154.519531 293.59375 C 154.824219 294.332031 155.058594 295.097656 155.214844 295.878906 C 155.371094 296.664062 155.449219 297.457031 155.449219 298.257812 Z M 155.449219 298.257812 " fill-opacity="1" fill-rule="nonzero"/></g><path fill="#000000" d="M 140.492188 301.574219 L 149.59375 292.222656 C 150.050781 291.753906 150.769531 291.78125 151.199219 292.277344 C 151.625 292.777344 151.601562 293.5625 151.148438 294.03125 L 141.164062 304.292969 C 140.925781 304.535156 140.640625 304.648438 140.316406 304.625 C 139.992188 304.601562 139.71875 304.449219 139.511719 304.175781 L 135.277344 298.550781 C 134.878906 298.023438 134.949219 297.238281 135.429688 296.800781 C 135.914062 296.367188 136.628906 296.445312 137.027344 296.972656 Z M 140.492188 301.574219 " fill-opacity="1" fill-rule="evenodd"/><g fill="#ffffff" fill-opacity="1"><g transform="translate(168.370506, 306.129505)"><g><path d="M 5.3125 -6.328125 L 5.3125 0 L 1.609375 0 L 1.609375 -17.96875 L 8.609375 -17.96875 C 9.960938 -17.96875 11.148438 -17.71875 12.171875 -17.21875 C 13.203125 -16.726562 13.992188 -16.03125 14.546875 -15.125 C 15.097656 -14.21875 15.375 -13.179688 15.375 -12.015625 C 15.375 -10.253906 14.769531 -8.863281 13.5625 -7.84375 C 12.351562 -6.832031 10.679688 -6.328125 8.546875 -6.328125 Z M 5.3125 -9.328125 L 8.609375 -9.328125 C 9.585938 -9.328125 10.332031 -9.554688 10.84375 -10.015625 C 11.363281 -10.484375 11.625 -11.144531 11.625 -12 C 11.625 -12.875 11.363281 -13.582031 10.84375 -14.125 C 10.332031 -14.675781 9.617188 -14.957031 8.703125 -14.96875 L 5.3125 -14.96875 Z M 5.3125 -9.328125 "/></g></g></g><g fill="#ffffff" fill-opacity="1"><g transform="translate(184.672249, 306.129505)"><g><path d="M 15.203125 -17.96875 L 15.203125 -6.140625 C 15.203125 -4.171875 14.585938 -2.613281 13.359375 -1.46875 C 12.128906 -0.320312 10.445312 0.25 8.3125 0.25 C 6.21875 0.25 4.550781 -0.304688 3.3125 -1.421875 C 2.082031 -2.535156 1.457031 -4.0625 1.4375 -6 L 1.4375 -17.96875 L 5.140625 -17.96875 L 5.140625 -6.109375 C 5.140625 -4.929688 5.421875 -4.070312 5.984375 -3.53125 C 6.546875 -3 7.320312 -2.734375 8.3125 -2.734375 C 10.394531 -2.734375 11.457031 -3.828125 11.5 -6.015625 L 11.5 -17.96875 Z M 15.203125 -17.96875 "/></g></g></g><g fill="#ffffff" fill-opacity="1"><g transform="translate(201.307185, 306.129505)"><g><path d="M 1.609375 0 L 1.609375 -17.96875 L 7.90625 -17.96875 C 10.082031 -17.96875 11.734375 -17.550781 12.859375 -16.71875 C 13.984375 -15.882812 14.546875 -14.660156 14.546875 -13.046875 C 14.546875 -12.171875 14.320312 -11.394531 13.875 -10.71875 C 13.425781 -10.050781 12.796875 -9.5625 11.984375 -9.25 C 12.910156 -9.019531 13.640625 -8.550781 14.171875 -7.84375 C 14.703125 -7.144531 14.96875 -6.289062 14.96875 -5.28125 C 14.96875 -3.550781 14.414062 -2.242188 13.3125 -1.359375 C 12.207031 -0.472656 10.632812 -0.0195312 8.59375 0 Z M 5.3125 -7.828125 L 5.3125 -2.96875 L 8.484375 -2.96875 C 9.359375 -2.96875 10.039062 -3.175781 10.53125 -3.59375 C 11.019531 -4.007812 11.265625 -4.585938 11.265625 -5.328125 C 11.265625 -6.972656 10.410156 -7.804688 8.703125 -7.828125 Z M 5.3125 -10.4375 L 8.046875 -10.4375 C 9.910156 -10.476562 10.84375 -11.222656 10.84375 -12.671875 C 10.84375 -13.492188 10.609375 -14.082031 10.140625 -14.4375 C 9.671875 -14.789062 8.925781 -14.96875 7.90625 -14.96875 L 5.3125 -14.96875 Z M 5.3125 -10.4375 "/></g></g></g><g fill="#ffffff" fill-opacity="1"><g transform="translate(217.436161, 306.129505)"><g><path d="M 5.3125 -2.96875 L 13.171875 -2.96875 L 13.171875 0 L 1.609375 0 L 1.609375 -17.96875 L 5.3125 -17.96875 Z M 5.3125 -2.96875 "/></g></g></g><g fill="#ffffff" fill-opacity="1"><g transform="translate(231.121728, 306.129505)"><g><path d="M 5.546875 0 L 1.84375 0 L 1.84375 -17.96875 L 5.546875 -17.96875 Z M 5.546875 0 "/></g></g></g><g fill="#ffffff" fill-opacity="1"><g transform="translate(238.48898, 306.129505)"><g><path d="M 15.71875 -5.984375 C 15.570312 -4.054688 14.851562 -2.535156 13.5625 -1.421875 C 12.28125 -0.304688 10.585938 0.25 8.484375 0.25 C 6.179688 0.25 4.367188 -0.523438 3.046875 -2.078125 C 1.722656 -3.628906 1.0625 -5.757812 1.0625 -8.46875 L 1.0625 -9.5625 C 1.0625 -11.289062 1.363281 -12.8125 1.96875 -14.125 C 2.582031 -15.445312 3.453125 -16.457031 4.578125 -17.15625 C 5.710938 -17.863281 7.03125 -18.21875 8.53125 -18.21875 C 10.601562 -18.21875 12.269531 -17.660156 13.53125 -16.546875 C 14.800781 -15.441406 15.535156 -13.882812 15.734375 -11.875 L 12.03125 -11.875 C 11.945312 -13.03125 11.625 -13.867188 11.0625 -14.390625 C 10.507812 -14.921875 9.664062 -15.1875 8.53125 -15.1875 C 7.289062 -15.1875 6.363281 -14.742188 5.75 -13.859375 C 5.144531 -12.972656 4.832031 -11.597656 4.8125 -9.734375 L 4.8125 -8.375 C 4.8125 -6.4375 5.101562 -5.019531 5.6875 -4.125 C 6.28125 -3.226562 7.210938 -2.78125 8.484375 -2.78125 C 9.628906 -2.78125 10.484375 -3.039062 11.046875 -3.5625 C 11.609375 -4.082031 11.929688 -4.890625 12.015625 -5.984375 Z M 15.71875 -5.984375 "/></g></g></g><g fill="#ffffff" fill-opacity="1"><g transform="translate(255.025193, 306.129505)"><g><path d="M 11.75 -3.703125 L 5.265625 -3.703125 L 4.03125 0 L 0.09375 0 L 6.78125 -17.96875 L 10.203125 -17.96875 L 16.9375 0 L 13 0 Z M 6.265625 -6.703125 L 10.75 -6.703125 L 8.5 -13.4375 Z M 6.265625 -6.703125 "/></g></g></g><g fill="#ffffff" fill-opacity="1"><g transform="translate(272.030342, 306.129505)"><g><path d="M 15.71875 -5.984375 C 15.570312 -4.054688 14.851562 -2.535156 13.5625 -1.421875 C 12.28125 -0.304688 10.585938 0.25 8.484375 0.25 C 6.179688 0.25 4.367188 -0.523438 3.046875 -2.078125 C 1.722656 -3.628906 1.0625 -5.757812 1.0625 -8.46875 L 1.0625 -9.5625 C 1.0625 -11.289062 1.363281 -12.8125 1.96875 -14.125 C 2.582031 -15.445312 3.453125 -16.457031 4.578125 -17.15625 C 5.710938 -17.863281 7.03125 -18.21875 8.53125 -18.21875 C 10.601562 -18.21875 12.269531 -17.660156 13.53125 -16.546875 C 14.800781 -15.441406 15.535156 -13.882812 15.734375 -11.875 L 12.03125 -11.875 C 11.945312 -13.03125 11.625 -13.867188 11.0625 -14.390625 C 10.507812 -14.921875 9.664062 -15.1875 8.53125 -15.1875 C 7.289062 -15.1875 6.363281 -14.742188 5.75 -13.859375 C 5.144531 -12.972656 4.832031 -11.597656 4.8125 -9.734375 L 4.8125 -8.375 C 4.8125 -6.4375 5.101562 -5.019531 5.6875 -4.125 C 6.28125 -3.226562 7.210938 -2.78125 8.484375 -2.78125 C 9.628906 -2.78125 10.484375 -3.039062 11.046875 -3.5625 C 11.609375 -4.082031 11.929688 -4.890625 12.015625 -5.984375 Z M 15.71875 -5.984375 "/></g></g></g><g fill="#ffffff" fill-opacity="1"><g transform="translate(288.566554, 306.129505)"><g><path d="M 5.546875 0 L 1.84375 0 L 1.84375 -17.96875 L 5.546875 -17.96875 Z M 5.546875 0 "/></g></g></g><g fill="#ffffff" fill-opacity="1"><g transform="translate(295.933807, 306.129505)"><g><path d="M 16.375 -8.578125 C 16.375 -6.804688 16.0625 -5.253906 15.4375 -3.921875 C 14.8125 -2.585938 13.914062 -1.554688 12.75 -0.828125 C 11.582031 -0.109375 10.242188 0.25 8.734375 0.25 C 7.242188 0.25 5.914062 -0.109375 4.75 -0.828125 C 3.582031 -1.546875 2.675781 -2.566406 2.03125 -3.890625 C 1.394531 -5.222656 1.070312 -6.753906 1.0625 -8.484375 L 1.0625 -9.375 C 1.0625 -11.132812 1.378906 -12.6875 2.015625 -14.03125 C 2.648438 -15.382812 3.550781 -16.421875 4.71875 -17.140625 C 5.882812 -17.859375 7.21875 -18.21875 8.71875 -18.21875 C 10.21875 -18.21875 11.546875 -17.859375 12.703125 -17.140625 C 13.867188 -16.421875 14.769531 -15.382812 15.40625 -14.03125 C 16.050781 -12.6875 16.375 -11.132812 16.375 -9.375 Z M 12.609375 -9.390625 C 12.609375 -11.273438 12.269531 -12.707031 11.59375 -13.6875 C 10.925781 -14.664062 9.96875 -15.15625 8.71875 -15.15625 C 7.46875 -15.15625 6.503906 -14.671875 5.828125 -13.703125 C 5.160156 -12.742188 4.820312 -11.328125 4.8125 -9.453125 L 4.8125 -8.578125 C 4.8125 -6.742188 5.148438 -5.320312 5.828125 -4.3125 C 6.503906 -3.300781 7.472656 -2.796875 8.734375 -2.796875 C 9.984375 -2.796875 10.941406 -3.28125 11.609375 -4.25 C 12.273438 -5.226562 12.609375 -6.648438 12.609375 -8.515625 Z M 12.609375 -9.390625 "/></g></g></g><g fill="#ffffff" fill-opacity="1"><g transform="translate(313.383212, 306.129505)"><g><path d="M 16.21875 0 L 12.515625 0 L 5.3125 -11.828125 L 5.3125 0 L 1.609375 0 L 1.609375 -17.96875 L 5.3125 -17.96875 L 12.53125 -6.125 L 12.53125 -17.96875 L 16.21875 -17.96875 Z M 16.21875 0 "/></g></g></g><g fill="#ffffff" fill-opacity="1"><g transform="translate(331.227512, 306.129505)"><g><path d="M 12.421875 -7.796875 L 5.3125 -7.796875 L 5.3125 -2.96875 L 13.65625 -2.96875 L 13.65625 0 L 1.609375 0 L 1.609375 -17.96875 L 13.625 -17.96875 L 13.625 -14.96875 L 5.3125 -14.96875 L 5.3125 -10.6875 L 12.421875 -10.6875 Z M 12.421875 -7.796875 "/></g></g></g><g fill="#ffffff" fill-opacity="1"><g transform="translate(345.443718, 306.129505)"><g><path d="M 10.921875 -4.71875 C 10.921875 -5.414062 10.671875 -5.953125 10.171875 -6.328125 C 9.679688 -6.703125 8.796875 -7.097656 7.515625 -7.515625 C 6.234375 -7.929688 5.21875 -8.335938 4.46875 -8.734375 C 2.425781 -9.835938 1.40625 -11.328125 1.40625 -13.203125 C 1.40625 -14.171875 1.675781 -15.035156 2.21875 -15.796875 C 2.769531 -16.554688 3.554688 -17.148438 4.578125 -17.578125 C 5.609375 -18.003906 6.757812 -18.21875 8.03125 -18.21875 C 9.320312 -18.21875 10.46875 -17.984375 11.46875 -17.515625 C 12.46875 -17.054688 13.242188 -16.398438 13.796875 -15.546875 C 14.359375 -14.703125 14.640625 -13.742188 14.640625 -12.671875 L 10.9375 -12.671875 C 10.9375 -13.492188 10.675781 -14.128906 10.15625 -14.578125 C 9.632812 -15.035156 8.90625 -15.265625 7.96875 -15.265625 C 7.0625 -15.265625 6.359375 -15.070312 5.859375 -14.6875 C 5.359375 -14.3125 5.109375 -13.8125 5.109375 -13.1875 C 5.109375 -12.601562 5.398438 -12.113281 5.984375 -11.71875 C 6.578125 -11.320312 7.445312 -10.953125 8.59375 -10.609375 C 10.695312 -9.972656 12.226562 -9.1875 13.1875 -8.25 C 14.15625 -7.3125 14.640625 -6.140625 14.640625 -4.734375 C 14.640625 -3.179688 14.050781 -1.960938 12.875 -1.078125 C 11.695312 -0.191406 10.113281 0.25 8.125 0.25 C 6.738281 0.25 5.476562 0 4.34375 -0.5 C 3.207031 -1.007812 2.34375 -1.703125 1.75 -2.578125 C 1.15625 -3.460938 0.859375 -4.488281 0.859375 -5.65625 L 4.5625 -5.65625 C 4.5625 -3.664062 5.75 -2.671875 8.125 -2.671875 C 9 -2.671875 9.679688 -2.847656 10.171875 -3.203125 C 10.671875 -3.566406 10.921875 -4.070312 10.921875 -4.71875 Z M 10.921875 -4.71875 "/></g></g></g><g clip-path="url(#b065e59cb4)"><path fill="#ffffff" d="M 155.449219 338.921875 C 155.449219 339.722656 155.371094 340.515625 155.214844 341.300781 C 155.058594 342.085938 154.824219 342.847656 154.519531 343.585938 C 154.214844 344.328125 153.839844 345.027344 153.394531 345.695312 C 152.949219 346.359375 152.445312 346.976562 151.878906 347.539062 C 151.3125 348.105469 150.695312 348.609375 150.03125 349.054688 C 149.367188 349.5 148.664062 349.875 147.925781 350.183594 C 147.1875 350.488281 146.421875 350.71875 145.640625 350.875 C 144.855469 351.03125 144.0625 351.109375 143.261719 351.109375 C 142.460938 351.109375 141.667969 351.03125 140.882812 350.875 C 140.097656 350.71875 139.335938 350.488281 138.597656 350.183594 C 137.859375 349.875 137.15625 349.5 136.492188 349.054688 C 135.828125 348.609375 135.210938 348.105469 134.644531 347.539062 C 134.078125 346.976562 133.574219 346.359375 133.128906 345.695312 C 132.683594 345.027344 132.308594 344.328125 132.003906 343.585938 C 131.695312 342.847656 131.464844 342.085938 131.308594 341.300781 C 131.152344 340.515625 131.074219 339.722656 131.074219 338.921875 C 131.074219 338.125 131.152344 337.332031 131.308594 336.546875 C 131.464844 335.761719 131.695312 335 132.003906 334.261719 C 132.308594 333.519531 132.683594 332.820312 133.128906 332.152344 C 133.574219 331.488281 134.078125 330.871094 134.644531 330.308594 C 135.210938 329.742188 135.828125 329.234375 136.492188 328.792969 C 137.15625 328.347656 137.859375 327.972656 138.597656 327.664062 C 139.335938 327.359375 140.097656 327.128906 140.882812 326.972656 C 141.667969 326.816406 142.460938 326.738281 143.261719 326.738281 C 144.0625 326.738281 144.855469 326.816406 145.640625 326.972656 C 146.421875 327.128906 147.1875 327.359375 147.925781 327.664062 C 148.664062 327.972656 149.367188 328.347656 150.03125 328.792969 C 150.695312 329.234375 151.3125 329.742188 151.878906 330.308594 C 152.445312 330.871094 152.949219 331.488281 153.394531 332.152344 C 153.839844 332.820312 154.214844 333.519531 154.519531 334.261719 C 154.824219 335 155.058594 335.761719 155.214844 336.546875 C 155.371094 337.332031 155.449219 338.125 155.449219 338.921875 Z M 155.449219 338.921875 " fill-opacity="1" fill-rule="nonzero"/></g><path fill="#000000" d="M 140.492188 342.242188 L 149.59375 332.890625 C 150.050781 332.421875 150.769531 332.445312 151.199219 332.945312 C 151.625 333.441406 151.601562 334.230469 151.148438 334.699219 L 141.164062 344.957031 C 140.925781 345.199219 140.640625 345.3125 140.316406 345.292969 C 139.992188 345.269531 139.71875 345.117188 139.511719 344.839844 L 135.277344 339.214844 C 134.878906 338.6875 134.949219 337.902344 135.429688 337.46875 C 135.914062 337.035156 136.628906 337.109375 137.027344 337.636719 Z M 140.492188 342.242188 " fill-opacity="1" fill-rule="evenodd"/><g fill="#ffffff" fill-opacity="1"><g transform="translate(169.047572, 346.795233)"><g><path d="M 16.234375 0 L 12.53125 0 L 12.53125 -7.703125 L 5.3125 -7.703125 L 5.3125 0 L 1.609375 0 L 1.609375 -17.96875 L 5.3125 -17.96875 L 5.3125 -10.6875 L 12.53125 -10.6875 L 12.53125 -17.96875 L 16.234375 -17.96875 Z M 16.234375 0 "/></g></g></g><g fill="#ffffff" fill-opacity="1"><g transform="translate(186.904213, 346.795233)"><g><path d="M 5.546875 0 L 1.84375 0 L 1.84375 -17.96875 L 5.546875 -17.96875 Z M 5.546875 0 "/></g></g></g><g fill="#ffffff" fill-opacity="1"><g transform="translate(194.271466, 346.795233)"><g><path d="M 10.921875 -4.71875 C 10.921875 -5.414062 10.671875 -5.953125 10.171875 -6.328125 C 9.679688 -6.703125 8.796875 -7.097656 7.515625 -7.515625 C 6.234375 -7.929688 5.21875 -8.335938 4.46875 -8.734375 C 2.425781 -9.835938 1.40625 -11.328125 1.40625 -13.203125 C 1.40625 -14.171875 1.675781 -15.035156 2.21875 -15.796875 C 2.769531 -16.554688 3.554688 -17.148438 4.578125 -17.578125 C 5.609375 -18.003906 6.757812 -18.21875 8.03125 -18.21875 C 9.320312 -18.21875 10.46875 -17.984375 11.46875 -17.515625 C 12.46875 -17.054688 13.242188 -16.398438 13.796875 -15.546875 C 14.359375 -14.703125 14.640625 -13.742188 14.640625 -12.671875 L 10.9375 -12.671875 C 10.9375 -13.492188 10.675781 -14.128906 10.15625 -14.578125 C 9.632812 -15.035156 8.90625 -15.265625 7.96875 -15.265625 C 7.0625 -15.265625 6.359375 -15.070312 5.859375 -14.6875 C 5.359375 -14.3125 5.109375 -13.8125 5.109375 -13.1875 C 5.109375 -12.601562 5.398438 -12.113281 5.984375 -11.71875 C 6.578125 -11.320312 7.445312 -10.953125 8.59375 -10.609375 C 10.695312 -9.972656 12.226562 -9.1875 13.1875 -8.25 C 14.15625 -7.3125 14.640625 -6.140625 14.640625 -4.734375 C 14.640625 -3.179688 14.050781 -1.960938 12.875 -1.078125 C 11.695312 -0.191406 10.113281 0.25 8.125 0.25 C 6.738281 0.25 5.476562 0 4.34375 -0.5 C 3.207031 -1.007812 2.34375 -1.703125 1.75 -2.578125 C 1.15625 -3.460938 0.859375 -4.488281 0.859375 -5.65625 L 4.5625 -5.65625 C 4.5625 -3.664062 5.75 -2.671875 8.125 -2.671875 C 9 -2.671875 9.679688 -2.847656 10.171875 -3.203125 C 10.671875 -3.566406 10.921875 -4.070312 10.921875 -4.71875 Z M 10.921875 -4.71875 "/></g></g></g><g fill="#ffffff" fill-opacity="1"><g transform="translate(209.808101, 346.795233)"><g><path d="M 15.140625 -14.96875 L 9.625 -14.96875 L 9.625 0 L 5.921875 0 L 5.921875 -14.96875 L 0.5 -14.96875 L 0.5 -17.96875 L 15.140625 -17.96875 Z M 15.140625 -14.96875 "/></g></g></g><g fill="#ffffff" fill-opacity="1"><g transform="translate(225.443459, 346.795233)"><g><path d="M 16.375 -8.578125 C 16.375 -6.804688 16.0625 -5.253906 15.4375 -3.921875 C 14.8125 -2.585938 13.914062 -1.554688 12.75 -0.828125 C 11.582031 -0.109375 10.242188 0.25 8.734375 0.25 C 7.242188 0.25 5.914062 -0.109375 4.75 -0.828125 C 3.582031 -1.546875 2.675781 -2.566406 2.03125 -3.890625 C 1.394531 -5.222656 1.070312 -6.753906 1.0625 -8.484375 L 1.0625 -9.375 C 1.0625 -11.132812 1.378906 -12.6875 2.015625 -14.03125 C 2.648438 -15.382812 3.550781 -16.421875 4.71875 -17.140625 C 5.882812 -17.859375 7.21875 -18.21875 8.71875 -18.21875 C 10.21875 -18.21875 11.546875 -17.859375 12.703125 -17.140625 C 13.867188 -16.421875 14.769531 -15.382812 15.40625 -14.03125 C 16.050781 -12.6875 16.375 -11.132812 16.375 -9.375 Z M 12.609375 -9.390625 C 12.609375 -11.273438 12.269531 -12.707031 11.59375 -13.6875 C 10.925781 -14.664062 9.96875 -15.15625 8.71875 -15.15625 C 7.46875 -15.15625 6.503906 -14.671875 5.828125 -13.703125 C 5.160156 -12.742188 4.820312 -11.328125 4.8125 -9.453125 L 4.8125 -8.578125 C 4.8125 -6.742188 5.148438 -5.320312 5.828125 -4.3125 C 6.503906 -3.300781 7.472656 -2.796875 8.734375 -2.796875 C 9.984375 -2.796875 10.941406 -3.28125 11.609375 -4.25 C 12.273438 -5.226562 12.609375 -6.648438 12.609375 -8.515625 Z M 12.609375 -9.390625 "/></g></g></g><g fill="#ffffff" fill-opacity="1"><g transform="translate(242.892865, 346.795233)"><g><path d="M 8.265625 -6.578125 L 5.3125 -6.578125 L 5.3125 0 L 1.609375 0 L 1.609375 -17.96875 L 8.28125 -17.96875 C 10.40625 -17.96875 12.039062 -17.492188 13.1875 -16.546875 C 14.34375 -15.609375 14.921875 -14.273438 14.921875 -12.546875 C 14.921875 -11.316406 14.65625 -10.289062 14.125 -9.46875 C 13.59375 -8.65625 12.789062 -8.003906 11.71875 -7.515625 L 15.609375 -0.171875 L 15.609375 0 L 11.625 0 Z M 5.3125 -9.578125 L 8.296875 -9.578125 C 9.222656 -9.578125 9.941406 -9.8125 10.453125 -10.28125 C 10.960938 -10.757812 11.21875 -11.414062 11.21875 -12.25 C 11.21875 -13.09375 10.976562 -13.753906 10.5 -14.234375 C 10.019531 -14.722656 9.28125 -14.96875 8.28125 -14.96875 L 5.3125 -14.96875 Z M 5.3125 -9.578125 "/></g></g></g><g fill="#ffffff" fill-opacity="1"><g transform="translate(259.021842, 346.795233)"><g><path d="M 5.546875 0 L 1.84375 0 L 1.84375 -17.96875 L 5.546875 -17.96875 Z M 5.546875 0 "/></g></g></g><g fill="#ffffff" fill-opacity="1"><g transform="translate(266.389094, 346.795233)"><g><path d="M 11.75 -3.703125 L 5.265625 -3.703125 L 4.03125 0 L 0.09375 0 L 6.78125 -17.96875 L 10.203125 -17.96875 L 16.9375 0 L 13 0 Z M 6.265625 -6.703125 L 10.75 -6.703125 L 8.5 -13.4375 Z M 6.265625 -6.703125 "/></g></g></g><g fill="#ffffff" fill-opacity="1"><g transform="translate(283.394244, 346.795233)"><g><path d="M 10.921875 -4.71875 C 10.921875 -5.414062 10.671875 -5.953125 10.171875 -6.328125 C 9.679688 -6.703125 8.796875 -7.097656 7.515625 -7.515625 C 6.234375 -7.929688 5.21875 -8.335938 4.46875 -8.734375 C 2.425781 -9.835938 1.40625 -11.328125 1.40625 -13.203125 C 1.40625 -14.171875 1.675781 -15.035156 2.21875 -15.796875 C 2.769531 -16.554688 3.554688 -17.148438 4.578125 -17.578125 C 5.609375 -18.003906 6.757812 -18.21875 8.03125 -18.21875 C 9.320312 -18.21875 10.46875 -17.984375 11.46875 -17.515625 C 12.46875 -17.054688 13.242188 -16.398438 13.796875 -15.546875 C 14.359375 -14.703125 14.640625 -13.742188 14.640625 -12.671875 L 10.9375 -12.671875 C 10.9375 -13.492188 10.675781 -14.128906 10.15625 -14.578125 C 9.632812 -15.035156 8.90625 -15.265625 7.96875 -15.265625 C 7.0625 -15.265625 6.359375 -15.070312 5.859375 -14.6875 C 5.359375 -14.3125 5.109375 -13.8125 5.109375 -13.1875 C 5.109375 -12.601562 5.398438 -12.113281 5.984375 -11.71875 C 6.578125 -11.320312 7.445312 -10.953125 8.59375 -10.609375 C 10.695312 -9.972656 12.226562 -9.1875 13.1875 -8.25 C 14.15625 -7.3125 14.640625 -6.140625 14.640625 -4.734375 C 14.640625 -3.179688 14.050781 -1.960938 12.875 -1.078125 C 11.695312 -0.191406 10.113281 0.25 8.125 0.25 C 6.738281 0.25 5.476562 0 4.34375 -0.5 C 3.207031 -1.007812 2.34375 -1.703125 1.75 -2.578125 C 1.15625 -3.460938 0.859375 -4.488281 0.859375 -5.65625 L 4.5625 -5.65625 C 4.5625 -3.664062 5.75 -2.671875 8.125 -2.671875 C 9 -2.671875 9.679688 -2.847656 10.171875 -3.203125 C 10.671875 -3.566406 10.921875 -4.070312 10.921875 -4.71875 Z M 10.921875 -4.71875 "/></g></g></g><g fill="#ffffff" fill-opacity="1"><g transform="translate(169.586385, 384.865093)"><g><path d="M 12.421875 -7.34375 L 5.3125 -7.34375 L 5.3125 0 L 1.609375 0 L 1.609375 -17.96875 L 13.3125 -17.96875 L 13.3125 -14.96875 L 5.3125 -14.96875 L 5.3125 -10.328125 L 12.421875 -10.328125 Z M 12.421875 -7.34375 "/></g></g></g><g fill="#ffffff" fill-opacity="1"><g transform="translate(183.432378, 384.865093)"><g><path d="M 5.3125 -2.96875 L 13.171875 -2.96875 L 13.171875 0 L 1.609375 0 L 1.609375 -17.96875 L 5.3125 -17.96875 Z M 5.3125 -2.96875 "/></g></g></g><g fill="#ffffff" fill-opacity="1"><g transform="translate(197.117944, 384.865093)"><g><path d="M 11.75 -3.703125 L 5.265625 -3.703125 L 4.03125 0 L 0.09375 0 L 6.78125 -17.96875 L 10.203125 -17.96875 L 16.9375 0 L 13 0 Z M 6.265625 -6.703125 L 10.75 -6.703125 L 8.5 -13.4375 Z M 6.265625 -6.703125 "/></g></g></g><g fill="#ffffff" fill-opacity="1"><g transform="translate(214.123094, 384.865093)"><g><path d="M 7.796875 -9.875 L 11.546875 -17.96875 L 15.59375 -17.96875 L 9.6875 -6.515625 L 9.6875 0 L 5.921875 0 L 5.921875 -6.515625 L 0.03125 -17.96875 L 4.09375 -17.96875 Z M 7.796875 -9.875 "/></g></g></g><g fill="#ffffff" fill-opacity="1"><g transform="translate(229.746112, 384.865093)"><g><path d="M 12.421875 -7.796875 L 5.3125 -7.796875 L 5.3125 -2.96875 L 13.65625 -2.96875 L 13.65625 0 L 1.609375 0 L 1.609375 -17.96875 L 13.625 -17.96875 L 13.625 -14.96875 L 5.3125 -14.96875 L 5.3125 -10.6875 L 12.421875 -10.6875 Z M 12.421875 -7.796875 "/></g></g></g><g fill="#ffffff" fill-opacity="1"><g transform="translate(243.962318, 384.865093)"><g><path d="M 8.265625 -6.578125 L 5.3125 -6.578125 L 5.3125 0 L 1.609375 0 L 1.609375 -17.96875 L 8.28125 -17.96875 C 10.40625 -17.96875 12.039062 -17.492188 13.1875 -16.546875 C 14.34375 -15.609375 14.921875 -14.273438 14.921875 -12.546875 C 14.921875 -11.316406 14.65625 -10.289062 14.125 -9.46875 C 13.59375 -8.65625 12.789062 -8.003906 11.71875 -7.515625 L 15.609375 -0.171875 L 15.609375 0 L 11.625 0 Z M 5.3125 -9.578125 L 8.296875 -9.578125 C 9.222656 -9.578125 9.941406 -9.8125 10.453125 -10.28125 C 10.960938 -10.757812 11.21875 -11.414062 11.21875 -12.25 C 11.21875 -13.09375 10.976562 -13.753906 10.5 -14.234375 C 10.019531 -14.722656 9.28125 -14.96875 8.28125 -14.96875 L 5.3125 -14.96875 Z M 5.3125 -9.578125 "/></g></g></g><g fill="#ffffff" fill-opacity="1"><g transform="translate(260.091295, 384.865093)"><g><path d="M 10.921875 -4.71875 C 10.921875 -5.414062 10.671875 -5.953125 10.171875 -6.328125 C 9.679688 -6.703125 8.796875 -7.097656 7.515625 -7.515625 C 6.234375 -7.929688 5.21875 -8.335938 4.46875 -8.734375 C 2.425781 -9.835938 1.40625 -11.328125 1.40625 -13.203125 C 1.40625 -14.171875 1.675781 -15.035156 2.21875 -15.796875 C 2.769531 -16.554688 3.554688 -17.148438 4.578125 -17.578125 C 5.609375 -18.003906 6.757812 -18.21875 8.03125 -18.21875 C 9.320312 -18.21875 10.46875 -17.984375 11.46875 -17.515625 C 12.46875 -17.054688 13.242188 -16.398438 13.796875 -15.546875 C 14.359375 -14.703125 14.640625 -13.742188 14.640625 -12.671875 L 10.9375 -12.671875 C 10.9375 -13.492188 10.675781 -14.128906 10.15625 -14.578125 C 9.632812 -15.035156 8.90625 -15.265625 7.96875 -15.265625 C 7.0625 -15.265625 6.359375 -15.070312 5.859375 -14.6875 C 5.359375 -14.3125 5.109375 -13.8125 5.109375 -13.1875 C 5.109375 -12.601562 5.398438 -12.113281 5.984375 -11.71875 C 6.578125 -11.320312 7.445312 -10.953125 8.59375 -10.609375 C 10.695312 -9.972656 12.226562 -9.1875 13.1875 -8.25 C 14.15625 -7.3125 14.640625 -6.140625 14.640625 -4.734375 C 14.640625 -3.179688 14.050781 -1.960938 12.875 -1.078125 C 11.695312 -0.191406 10.113281 0.25 8.125 0.25 C 6.738281 0.25 5.476562 0 4.34375 -0.5 C 3.207031 -1.007812 2.34375 -1.703125 1.75 -2.578125 C 1.15625 -3.460938 0.859375 -4.488281 0.859375 -5.65625 L 4.5625 -5.65625 C 4.5625 -3.664062 5.75 -2.671875 8.125 -2.671875 C 9 -2.671875 9.679688 -2.847656 10.171875 -3.203125 C 10.671875 -3.566406 10.921875 -4.070312 10.921875 -4.71875 Z M 10.921875 -4.71875 "/></g></g></g><g clip-path="url(#5f2eeaf4f3)"><path fill="#ffffff" d="M 155.449219 379.441406 C 155.449219 380.242188 155.371094 381.03125 155.214844 381.816406 C 155.058594 382.601562 154.824219 383.363281 154.519531 384.105469 C 154.214844 384.84375 153.839844 385.546875 153.394531 386.210938 C 152.949219 386.875 152.445312 387.492188 151.878906 388.058594 C 151.3125 388.621094 150.695312 389.128906 150.03125 389.574219 C 149.367188 390.015625 148.664062 390.390625 147.925781 390.699219 C 147.1875 391.003906 146.421875 391.234375 145.640625 391.390625 C 144.855469 391.546875 144.0625 391.625 143.261719 391.625 C 142.460938 391.625 141.667969 391.546875 140.882812 391.390625 C 140.097656 391.234375 139.335938 391.003906 138.597656 390.699219 C 137.859375 390.390625 137.15625 390.015625 136.492188 389.574219 C 135.828125 389.128906 135.210938 388.621094 134.644531 388.058594 C 134.078125 387.492188 133.574219 386.875 133.128906 386.210938 C 132.683594 385.546875 132.308594 384.84375 132.003906 384.105469 C 131.695312 383.363281 131.464844 382.601562 131.308594 381.816406 C 131.152344 381.03125 131.074219 380.242188 131.074219 379.441406 C 131.074219 378.640625 131.152344 377.847656 131.308594 377.0625 C 131.464844 376.277344 131.695312 375.515625 132.003906 374.777344 C 132.308594 374.039062 132.683594 373.335938 133.128906 372.671875 C 133.574219 372.003906 134.078125 371.390625 134.644531 370.824219 C 135.210938 370.257812 135.828125 369.753906 136.492188 369.308594 C 137.15625 368.863281 137.859375 368.488281 138.597656 368.183594 C 139.335938 367.875 140.097656 367.644531 140.882812 367.488281 C 141.667969 367.332031 142.460938 367.253906 143.261719 367.253906 C 144.0625 367.253906 144.855469 367.332031 145.640625 367.488281 C 146.421875 367.644531 147.1875 367.875 147.925781 368.183594 C 148.664062 368.488281 149.367188 368.863281 150.03125 369.308594 C 150.695312 369.753906 151.3125 370.257812 151.878906 370.824219 C 152.445312 371.390625 152.949219 372.003906 153.394531 372.671875 C 153.839844 373.335938 154.214844 374.039062 154.519531 374.777344 C 154.824219 375.515625 155.058594 376.277344 155.214844 377.0625 C 155.371094 377.847656 155.449219 378.640625 155.449219 379.441406 Z M 155.449219 379.441406 " fill-opacity="1" fill-rule="nonzero"/></g><path fill="#000000" d="M 140.492188 382.757812 L 149.59375 373.40625 C 150.050781 372.9375 150.769531 372.964844 151.199219 373.460938 C 151.625 373.957031 151.601562 374.746094 151.148438 375.214844 L 141.164062 385.472656 C 140.925781 385.71875 140.640625 385.832031 140.316406 385.808594 C 139.992188 385.785156 139.71875 385.632812 139.511719 385.359375 L 135.277344 379.734375 C 134.878906 379.203125 134.949219 378.421875 135.429688 377.984375 C 135.914062 377.550781 136.628906 377.625 137.027344 378.15625 Z M 140.492188 382.757812 " fill-opacity="1" fill-rule="evenodd"/></svg>