<svg xmlns="http://www.w3.org/2000/svg" xmlns:xlink="http://www.w3.org/1999/xlink" width="859" zoomAndPan="magnify" viewBox="0 0 644.25 299.999988" height="400" preserveAspectRatio="xMidYMid meet" version="1.0"><defs><g/></defs><path stroke-linecap="butt" transform="matrix(3.212541, 0, 0, 3.212541, 151.264692, 192.32327)" fill="none" stroke-linejoin="miter" d="M 9.808046 22.406384 C 11.470233 22.406384 13.375608 22.046467 14.636536 20.308891 L 14.636536 22.000261 L 18.51781 22.000261 L 18.51781 11.860554 L 10.470732 11.860554 L 10.470732 15.288283 L 14.253515 15.288283 C 14.136785 17.619237 12.684955 18.594419 10.278614 18.594419 C 6.949376 18.594419 5.234903 16.358309 5.234903 12.906261 C 5.234903 9.484612 6.949376 7.270388 9.808046 7.270388 C 12.045372 7.270388 13.352505 8.171399 13.782947 9.984362 L 18.442422 9.984362 C 17.85026 6.055666 14.944168 3.458423 9.808046 3.458423 C 3.590955 3.458423 0.738365 7.839447 0.738365 12.906261 C 0.738365 17.979154 3.590955 22.406384 9.808046 22.406384 Z M 32.81724 14.219474 C 34.410119 13.3136 35.40962 11.62223 35.40962 9.315596 C 35.40962 5.363798 33.009359 3.841443 29.674041 3.841443 L 21.108974 3.841443 L 21.108974 22.000261 L 25.368404 22.000261 L 25.368404 15.003754 L 28.820452 15.003754 L 31.463901 22.000261 L 35.961656 22.000261 Z M 29.081879 7.648545 C 30.458321 7.648545 31.196395 8.269889 31.196395 9.455429 C 31.196395 10.693254 30.458321 11.314598 29.081879 11.314598 L 25.368404 11.314598 L 25.368404 7.648545 Z M 41.095346 22.000261 L 42.071744 18.740331 L 48.11982 18.740331 L 49.096218 22.000261 L 53.617075 22.000261 L 47.404848 3.841443 L 42.7855 3.841443 L 36.574489 22.000261 Z M 45.098214 8.577522 L 46.998725 15.051176 L 43.192839 15.051176 Z M 59.350223 22.000261 L 59.350223 14.812852 L 66.706648 14.812852 L 66.706648 11.030069 L 59.350223 11.030069 L 59.350223 7.648545 L 67.490928 7.648545 L 67.490928 3.841443 L 55.090792 3.841443 L 55.090792 22.000261 Z M 73.771247 22.000261 L 73.771247 3.841443 L 69.511817 3.841443 L 69.511817 22.000261 Z M 85.05272 22.406384 C 89.835004 22.406384 92.618286 19.762935 93.094933 15.835456 L 88.429379 15.835456 C 88.14485 17.74083 86.767192 18.594419 84.954229 18.594419 C 82.078535 18.594419 80.480793 16.358309 80.480793 12.906261 C 80.480793 9.484612 82.078535 7.270388 84.954229 7.270388 C 86.767192 7.270388 88.167953 8.123977 88.429379 9.984362 L 93.094933 9.984362 C 92.618286 6.078769 89.835004 3.458423 85.05272 3.458423 C 78.841709 3.458423 75.983038 7.839447 75.983038 12.906261 C 75.983038 17.979154 78.841709 22.406384 85.05272 22.406384 Z M 103.59091 22.406384 C 109.755716 22.406384 112.632625 17.979154 112.632625 12.906261 C 112.632625 7.839447 109.755716 3.458423 103.59091 3.458423 C 97.379899 3.458423 94.520013 7.839447 94.520013 12.906261 C 94.520013 17.979154 97.379899 22.406384 103.59091 22.406384 Z M 103.59091 18.594419 C 100.73224 18.594419 99.017767 16.358309 99.017767 12.906261 C 99.017767 9.484612 100.73224 7.270388 103.59091 7.270388 C 106.443501 7.270388 108.13487 9.484612 108.13487 12.906261 C 108.13487 16.358309 106.443501 18.594419 103.59091 18.594419 Z M 103.59091 18.594419 " stroke="#ffffff" stroke-width="0.89256" stroke-opacity="1" stroke-miterlimit="4"/><g fill="#ffffff" fill-opacity="1"><g transform="translate(33.923023, 176.295382)"><g><path d="M 42.277344 0 C 80.046875 0 100.824219 -19.757812 100.824219 -55.640625 C 100.824219 -91.234375 80.046875 -110.847656 42.277344 -110.847656 L 8.714844 -110.847656 L 8.714844 0 Z M 34.722656 -87.601562 L 41.984375 -87.601562 C 62.179688 -87.601562 74.820312 -76.707031 74.820312 -55.640625 C 74.820312 -33.125 63.339844 -23.246094 41.984375 -23.246094 L 34.722656 -23.246094 Z M 34.722656 -87.601562 "/></g></g></g><g fill="#ffffff" fill-opacity="1"><g transform="translate(139.390663, 176.295382)"><g><path d="M 34.722656 0 L 34.722656 -110.847656 L 8.714844 -110.847656 L 8.714844 0 Z M 34.722656 0 "/></g></g></g><g fill="#ffffff" fill-opacity="1"><g transform="translate(182.972333, 176.295382)"><g><path d="M 55.351562 2.46875 C 82.226562 2.46875 98.644531 -11.1875 98.644531 -32.976562 C 98.644531 -58.691406 75.398438 -63.921875 56.660156 -68.136719 C 44.019531 -71.042969 33.269531 -73.511719 33.269531 -81.5 C 33.269531 -88.472656 40.53125 -91.378906 47.941406 -91.378906 C 58.835938 -91.378906 66.390625 -85.714844 69.007812 -76.269531 L 95.882812 -76.269531 C 92.398438 -100.96875 71.765625 -113.171875 48.523438 -113.171875 C 25.859375 -113.171875 7.410156 -102.277344 7.410156 -79.320312 C 7.410156 -54.914062 29.636719 -49.976562 48.230469 -45.761719 C 61.308594 -42.855469 72.492188 -40.386719 72.492188 -31.671875 C 72.492188 -22.953125 64.066406 -19.320312 55.207031 -19.320312 C 45.179688 -19.320312 35.15625 -23.097656 31.378906 -37.628906 L 4.503906 -37.628906 C 6.539062 -6.539062 34.429688 2.46875 55.351562 2.46875 Z M 55.351562 2.46875 "/></g></g></g><g fill="#ffffff" fill-opacity="1"><g transform="translate(286.406162, 176.295382)"><g><path d="M 84.40625 0 L 84.40625 -23.246094 L 34.722656 -23.246094 L 34.722656 -43.875 L 79.613281 -43.875 L 79.613281 -66.972656 L 34.722656 -66.972656 L 34.722656 -87.601562 L 84.40625 -87.601562 L 84.40625 -110.847656 L 8.714844 -110.847656 L 8.714844 0 Z M 84.40625 0 "/></g></g></g><g fill="#ffffff" fill-opacity="1"><g transform="translate(377.056031, 176.295382)"><g><path d="M 65.8125 -115.785156 C 77.289062 -115.785156 82.226562 -123.488281 83.097656 -139.320312 L 69.734375 -139.320312 C 69.441406 -132.929688 67.992188 -129.878906 65.957031 -129.878906 C 62.035156 -129.878906 57.53125 -139.902344 46.925781 -139.902344 C 36.320312 -139.902344 29.636719 -130.605469 29.054688 -115.933594 L 41.984375 -115.933594 C 42.277344 -122.179688 43.582031 -125.8125 46.054688 -125.8125 C 50.558594 -125.8125 53.753906 -115.785156 65.8125 -115.785156 Z M 34.722656 0 L 34.722656 -67.699219 L 77.289062 0 L 103.730469 0 L 103.730469 -110.847656 L 77.722656 -110.847656 L 77.722656 -43.582031 L 35.15625 -110.847656 L 8.714844 -110.847656 L 8.714844 0 Z M 34.722656 0 "/></g></g></g><g fill="#ffffff" fill-opacity="1"><g transform="translate(489.496746, 176.295382)"><g><path d="M 60 2.46875 C 97.628906 2.46875 115.207031 -24.550781 115.207031 -55.496094 C 115.207031 -86.441406 97.628906 -113.171875 60 -113.171875 C 22.082031 -113.171875 4.648438 -86.441406 4.648438 -55.496094 C 4.648438 -24.550781 22.082031 2.46875 60 2.46875 Z M 60 -20.773438 C 42.566406 -20.773438 32.105469 -34.429688 32.105469 -55.496094 C 32.105469 -76.417969 42.566406 -89.925781 60 -89.925781 C 77.433594 -89.925781 87.75 -76.417969 87.75 -55.496094 C 87.75 -34.429688 77.433594 -20.773438 60 -20.773438 Z M 60 -20.773438 "/></g></g></g><path stroke-linecap="butt" transform="matrix(0.749128, 0, 0, 0.749128, 33.923023, 38.455853)" fill="none" stroke-linejoin="miter" d="M 56.439098 184.001993 C 106.862315 184.001993 134.602906 157.627574 134.602906 109.712482 C 134.602906 62.22497 106.862315 36.043484 56.439098 36.043484 L 11.64743 36.043484 L 11.64743 184.001993 Z M 46.354455 67.053501 L 56.058447 67.053501 C 82.996021 67.053501 99.854166 81.59124 99.854166 109.712482 C 99.854166 139.778694 84.56034 152.986761 56.058447 152.986761 L 46.354455 152.986761 Z M 187.137954 184.001993 L 187.137954 36.043484 L 152.436143 36.043484 L 152.436143 184.001993 Z M 272.873066 187.313135 C 308.711616 187.313135 330.63294 169.083604 330.63294 139.966412 C 330.63294 105.640038 299.622922 98.684032 274.578174 93.047269 C 257.720029 89.167758 243.375224 85.851402 243.375224 75.198389 C 243.375224 65.916763 253.079216 62.037252 262.976141 62.037252 C 277.508665 62.037252 287.593309 69.566841 291.097383 82.206539 L 326.941147 82.206539 C 322.300334 49.204621 294.747461 32.92006 263.732229 32.92006 C 233.478298 32.92006 208.861131 47.452584 208.861131 78.134095 C 208.861131 110.708431 238.546692 117.289 263.356792 122.925763 C 280.825021 126.805274 295.738196 130.074701 295.738196 141.718449 C 295.738196 153.367412 284.469885 158.195943 272.633204 158.195943 C 259.284348 158.195943 245.883348 153.179693 240.867099 133.766494 L 204.976406 133.766494 C 207.677463 175.288736 244.934328 187.313135 272.873066 187.313135 Z M 449.719334 184.001993 L 449.719334 152.986761 L 383.386992 152.986761 L 383.386992 125.433888 L 443.326483 125.433888 L 443.326483 94.611589 L 383.386992 94.611589 L 383.386992 67.053501 L 449.719334 67.053501 L 449.719334 36.043484 L 348.685181 36.043484 L 348.685181 184.001993 Z M 545.872811 29.415985 C 561.208352 29.415985 567.794135 19.138409 568.977803 -1.974683 L 551.123709 -1.974683 C 550.748272 6.545641 548.808516 10.618085 546.107459 10.618085 C 540.851347 10.618085 534.839147 -2.730771 520.68206 -2.730771 C 506.524973 -2.730771 497.623997 9.669065 496.82098 29.223053 L 514.101491 29.223053 C 514.482142 20.890447 516.23418 16.061915 519.498392 16.061915 C 525.510591 16.061915 529.817683 29.415985 545.872811 29.415985 Z M 504.397499 184.001993 L 504.397499 93.615639 L 561.208352 184.001993 L 596.530676 184.001993 L 596.530676 36.043484 L 561.776721 36.043484 L 561.776721 125.809325 L 504.965868 36.043484 L 469.690474 36.043484 L 469.690474 184.001993 Z M 688.246701 187.313135 C 738.4822 187.313135 761.920914 151.234723 761.920914 109.905414 C 761.920914 68.61782 738.4822 32.92006 688.246701 32.92006 C 637.635766 32.92006 614.343055 68.61782 614.343055 109.905414 C 614.343055 151.234723 637.635766 187.313135 688.246701 187.313135 Z M 688.246701 156.256188 C 664.953991 156.256188 650.984622 138.026656 650.984622 109.905414 C 650.984622 82.01882 664.953991 63.977007 688.246701 63.977007 C 711.497697 63.977007 725.274133 82.01882 725.274133 109.905414 C 725.274133 138.026656 711.497697 156.256188 688.246701 156.256188 Z M 688.246701 156.256188 " stroke="#ffffff" stroke-width="7.272488" stroke-opacity="1" stroke-miterlimit="4"/></svg>