<svg xmlns="http://www.w3.org/2000/svg" xmlns:xlink="http://www.w3.org/1999/xlink" width="500" zoomAndPan="magnify" viewBox="0 0 375 374.999991" height="500" preserveAspectRatio="xMidYMid meet" version="1.0"><defs><g/><clipPath id="637c0b788e"><path d="M 43 182 L 93 182 L 93 234 L 43 234 Z M 43 182 " clip-rule="nonzero"/></clipPath><clipPath id="7cfec99085"><path d="M 37.5 227.476562 L 44.234375 180.953125 L 94.507812 188.230469 L 87.773438 234.757812 Z M 37.5 227.476562 " clip-rule="nonzero"/></clipPath><clipPath id="761e9863c4"><path d="M 37.5 227.476562 L 44.234375 180.953125 L 94.507812 188.230469 L 87.773438 234.757812 Z M 37.5 227.476562 " clip-rule="nonzero"/></clipPath><clipPath id="f0e2b8c152"><path d="M 89.972656 160.566406 L 116.203125 160.566406 L 116.203125 192.835938 L 89.972656 192.835938 Z M 89.972656 160.566406 " clip-rule="nonzero"/></clipPath></defs><path fill="#000000" d="M 96.0625 175.761719 L 95.363281 175.070312 L 95.292969 175 C 93.109375 172.738281 93.132812 169.101562 95.363281 166.871094 C 97.589844 164.644531 101.230469 164.621094 103.488281 166.800781 L 103.558594 166.871094 L 104.261719 167.566406 L 106.171875 169.480469 C 108.421875 171.734375 108.421875 175.421875 106.171875 177.679688 C 103.917969 179.933594 100.222656 179.933594 97.972656 177.679688 Z M 57.394531 207.480469 L 48.792969 216.082031 C 46.539062 218.335938 46.539062 222.019531 48.792969 224.28125 C 51.054688 226.53125 54.738281 226.53125 56.992188 224.28125 L 64.136719 217.132812 L 69.691406 211.578125 C 71.945312 209.324219 71.945312 205.640625 69.691406 203.378906 L 65.59375 199.28125 L 64.859375 198.554688 L 56.9375 190.632812 C 54.683594 188.378906 51 188.378906 48.738281 190.632812 C 46.484375 192.882812 46.484375 196.578125 48.738281 198.828125 L 56.664062 206.753906 Z M 105.84375 224.226562 L 105.84375 224.234375 C 103.589844 226.484375 99.898438 226.484375 97.644531 224.234375 L 48.847656 175.425781 C 46.585938 173.175781 46.585938 169.480469 48.847656 167.230469 C 51.097656 164.976562 54.785156 164.976562 57.046875 167.230469 L 105.84375 216.035156 C 108.09375 218.289062 108.09375 221.972656 105.84375 224.226562 Z M 105.914062 200.863281 C 103.660156 203.113281 99.976562 203.113281 97.714844 200.863281 L 92.160156 195.308594 L 80.136719 183.28125 L 72.210938 175.359375 C 69.957031 173.105469 69.957031 169.410156 72.210938 167.160156 C 74.46875 164.90625 78.15625 164.90625 80.40625 167.160156 L 100.355469 187.109375 L 105.914062 192.664062 C 108.164062 194.917969 108.164062 198.609375 105.914062 200.863281 Z M 105.914062 200.863281 " fill-opacity="1" fill-rule="evenodd"/><g clip-path="url(#637c0b788e)"><g clip-path="url(#7cfec99085)"><g clip-path="url(#761e9863c4)"><path fill="#000000" d="M 84.632812 231.707031 C 84.730469 231.523438 84.863281 231.34375 84.664062 231.128906 C 84.59375 231.042969 84.523438 231.011719 84.414062 231.050781 C 84.140625 231.144531 84.269531 231.402344 84.195312 231.558594 C 84.003906 232.011719 83.949219 232.335938 84.53125 232.484375 C 84.550781 232.488281 84.539062 232.652344 84.535156 232.746094 C 84.464844 232.722656 84.394531 232.714844 84.335938 232.675781 C 83.949219 232.398438 83.582031 232.117188 83.195312 232.707031 C 83.140625 232.792969 82.742188 232.808594 82.71875 232.761719 C 82.414062 231.980469 81.65625 232.683594 81.214844 232.285156 C 80.945312 232.046875 80.570312 232.054688 80.1875 232.261719 C 79.859375 232.433594 79.886719 231.957031 79.71875 231.820312 C 79.328125 231.492188 78.851562 231.339844 78.445312 231.050781 L 78.453125 231.0625 C 78.4375 231.019531 78.425781 230.964844 78.410156 230.921875 C 78.382812 230.957031 78.355469 231.007812 78.332031 231.042969 L 78.339844 231.035156 C 76.855469 230.425781 75.519531 229.585938 74.347656 228.476562 C 73.117188 227.328125 71.859375 226.21875 70.503906 225.203125 C 69.386719 224.363281 68.234375 223.527344 67.390625 222.375 C 67.199219 222.117188 66.886719 222.042969 66.714844 221.734375 C 66.613281 221.5625 66.285156 221.527344 66.023438 221.6875 C 65.097656 222.25 64.179688 222.828125 63.21875 223.332031 C 61.808594 224.078125 60.382812 224.808594 58.875 225.351562 C 58.0625 225.640625 57.703125 226.328125 57.402344 227.023438 C 57.261719 227.339844 57.59375 227.425781 57.824219 227.417969 C 58.558594 227.398438 59.230469 227.558594 59.871094 227.902344 C 60.035156 227.988281 60.21875 228.078125 60.214844 228.253906 C 60.210938 228.496094 59.988281 228.535156 59.792969 228.570312 C 59.039062 228.6875 58.292969 228.433594 57.535156 228.417969 C 56.453125 228.386719 55.367188 228.429688 54.285156 228.398438 C 53.601562 228.371094 52.910156 228.769531 52.195312 228.867188 C 51.613281 228.949219 51.023438 229.0625 50.40625 228.992188 C 50.253906 228.980469 49.898438 228.617188 49.761719 229.117188 C 49.722656 229.246094 49.652344 229.027344 49.617188 228.980469 C 49.152344 228.363281 48.597656 227.949219 47.765625 228.003906 C 47.609375 228.015625 47.46875 227.972656 47.378906 228.167969 C 47.292969 228.332031 47.171875 228.304688 47.078125 228.144531 C 46.863281 227.761719 46.675781 227.347656 46.097656 227.378906 C 45.929688 227.386719 46.027344 227.148438 46 227.03125 C 45.863281 226.394531 45.34375 226.113281 44.820312 225.910156 C 44.492188 225.792969 44.523438 225.648438 44.726562 225.542969 C 45.097656 225.347656 44.957031 225.023438 44.878906 224.835938 C 44.671875 224.328125 44.929688 224 45.207031 223.65625 C 45.308594 223.542969 45.398438 223.410156 45.246094 223.316406 C 44.894531 223.097656 44.945312 222.742188 45.054688 222.484375 C 45.339844 221.871094 45.046875 221.171875 45.398438 220.546875 C 45.523438 220.324219 45.269531 219.910156 45.398438 219.523438 C 45.769531 218.410156 46.554688 217.667969 47.410156 216.929688 C 48.183594 216.269531 48.9375 215.597656 49.164062 214.460938 C 49.414062 213.183594 50.550781 212.726562 51.652344 212.332031 C 52.035156 212.191406 52.394531 211.867188 52.859375 212.046875 C 52.898438 212.0625 53.007812 212.027344 53.011719 211.996094 C 53.15625 211.152344 54.097656 210.976562 54.441406 210.277344 C 54.558594 210.03125 54.976562 209.949219 55.226562 209.742188 C 55.554688 209.480469 55.84375 209.0625 55.824219 208.703125 C 55.804688 208.398438 56.308594 208.085938 55.851562 207.792969 C 55.839844 207.789062 55.863281 207.71875 55.875 207.691406 C 56.148438 207.386719 56.148438 207.25 55.789062 206.917969 C 55.128906 206.300781 54.46875 205.675781 53.820312 205.050781 C 53.152344 204.421875 52.585938 203.722656 51.960938 203.070312 C 51.492188 202.566406 50.953125 202.121094 50.507812 201.589844 C 50.214844 201.242188 50.375 200.765625 50.132812 200.566406 C 49.941406 200.402344 49.453125 200.882812 49.164062 200.507812 C 48.777344 200.003906 48.09375 199.757812 47.925781 199.058594 C 47.855469 198.753906 47.71875 198.695312 47.554688 199.023438 C 47.523438 199.09375 47.402344 199.128906 47.324219 199.179688 C 47.316406 199.085938 47.339844 198.984375 47.300781 198.90625 C 47.0625 198.472656 47.140625 197.839844 46.535156 197.648438 C 46.507812 197.621094 46.46875 197.597656 46.441406 197.582031 C 46.453125 197.625 46.460938 197.65625 46.476562 197.703125 C 46.417969 197.871094 46.492188 198.164062 46.214844 198.132812 C 46.007812 198.113281 45.972656 197.773438 45.734375 197.699219 C 45.695312 197.683594 45.820312 197.535156 45.917969 197.527344 C 46.554688 197.503906 46.257812 197.191406 46.128906 196.910156 C 46.011719 196.664062 45.914062 196.683594 45.800781 196.894531 C 45.753906 196.984375 45.730469 197.074219 45.667969 197.148438 C 45.527344 197.34375 45.320312 197.460938 45.074219 197.445312 C 44.917969 197.433594 45.023438 197.292969 45.003906 197.21875 C 44.9375 196.9375 45 196.800781 45.3125 196.730469 C 45.464844 196.691406 45.570312 196.464844 45.695312 196.328125 C 45.546875 196.253906 45.410156 196.121094 45.265625 196.109375 C 44.835938 196.066406 44.824219 195.421875 44.324219 195.484375 C 44.261719 195.496094 44.351562 195.382812 44.414062 195.371094 C 44.671875 195.316406 44.691406 195.121094 44.644531 194.925781 C 44.605469 194.710938 44.5 194.570312 44.835938 194.402344 C 45.0625 194.289062 44.800781 194.074219 44.550781 194.066406 L 44.558594 194.078125 C 44.839844 193.527344 44.34375 192.847656 44.882812 192.292969 C 45.078125 192.082031 44.417969 191.328125 44.019531 191.269531 L 44.027344 191.28125 C 44.058594 191.058594 44.21875 191.113281 44.386719 191.105469 C 45.003906 191.101562 45.285156 190.722656 44.953125 190.226562 C 44.652344 189.777344 45.042969 189.523438 45.113281 189.1875 C 45.199219 188.804688 45.695312 188.617188 45.597656 188.070312 C 45.503906 187.566406 45.957031 188.332031 46.007812 187.964844 C 46.054688 187.648438 45.519531 187.882812 45.597656 187.558594 C 45.632812 187.386719 45.792969 187.371094 45.980469 187.4375 C 46.316406 187.558594 46.621094 187.6875 46.679688 187.082031 C 46.710938 186.71875 47.070312 186.449219 47.5 186.367188 C 48.21875 186.230469 48.851562 185.957031 49.050781 185.152344 C 49.097656 184.980469 49.214844 184.96875 49.355469 184.9375 C 49.941406 184.832031 50.53125 184.71875 51.132812 184.746094 C 51.246094 184.75 51.375 184.800781 51.425781 184.652344 C 51.527344 184.386719 51.832031 183.949219 51.90625 184.003906 C 52.269531 184.242188 52.6875 183.730469 53.039062 184.113281 C 53.261719 184.367188 53.382812 184.101562 53.496094 183.972656 C 53.648438 183.785156 53.851562 183.824219 53.960938 183.925781 C 54.238281 184.164062 53.851562 184.105469 53.796875 184.191406 C 53.628906 184.480469 53.683594 184.542969 53.992188 184.648438 C 54.210938 184.722656 54.28125 185.023438 54.519531 185.183594 C 54.964844 185.476562 55.371094 185.492188 55.824219 185.308594 C 55.914062 185.269531 56.042969 185.175781 56.058594 185.199219 C 56.148438 185.304688 56.003906 185.355469 55.972656 185.433594 C 55.925781 185.554688 55.769531 185.675781 55.878906 185.796875 C 56.011719 185.960938 56.089844 185.691406 56.222656 185.710938 C 56.449219 185.742188 56.71875 185.6875 56.847656 185.9375 C 56.996094 186.199219 56.648438 186.097656 56.621094 186.214844 C 56.585938 186.378906 56.515625 186.648438 56.589844 186.703125 C 56.769531 186.832031 56.726562 186.554688 56.820312 186.496094 C 57.070312 186.34375 57.109375 186.570312 57.09375 186.691406 C 56.957031 187.566406 57.953125 187.316406 58.183594 187.808594 C 58.242188 187.765625 58.328125 187.734375 58.359375 187.675781 C 58.492188 187.382812 58.722656 187.449219 58.882812 187.574219 C 59.050781 187.714844 59 187.925781 58.859375 188.09375 C 58.785156 188.175781 58.644531 188.34375 58.714844 188.363281 C 59.246094 188.453125 59.191406 189.171875 59.703125 189.257812 C 59.722656 189.261719 59.742188 189.265625 59.765625 189.257812 C 60.398438 189.203125 59.707031 189.957031 60.0625 189.851562 C 60.53125 189.710938 60.503906 189.84375 60.675781 190.222656 C 60.859375 190.625 61.179688 190.992188 61.378906 191.417969 C 61.328125 191.421875 61.265625 191.414062 61.328125 191.492188 C 61.351562 191.476562 61.367188 191.449219 61.386719 191.429688 C 61.730469 191.238281 62.007812 191.476562 62.308594 191.550781 L 62.300781 191.539062 C 62.261719 191.660156 62.308594 191.855469 62.101562 191.835938 C 61.96875 191.828125 61.886719 191.449219 61.699219 191.726562 C 61.5 192.019531 61.359375 192.363281 61.246094 192.703125 C 61.210938 192.8125 61.335938 193.007812 61.5 192.832031 C 61.785156 192.519531 61.996094 192.925781 62.253906 192.878906 C 62.277344 193.070312 62.59375 193.335938 62.101562 193.410156 C 62.007812 193.425781 62.117188 193.597656 62.195312 193.621094 C 62.871094 193.863281 62.972656 194.453125 63.085938 195.042969 C 63.171875 195.449219 63.335938 195.816406 63.789062 196.019531 C 63.976562 196.097656 64.273438 196.191406 64.085938 196.613281 C 63.964844 196.898438 64.324219 197.054688 64.625 197.015625 C 64.996094 196.964844 65.199219 197.058594 65.277344 197.464844 C 65.347656 197.839844 66.484375 198.046875 66.890625 197.832031 C 67.46875 197.511719 67.65625 196.808594 68.269531 196.511719 C 68.863281 196.230469 69.414062 195.886719 69.976562 195.539062 C 70.15625 195.429688 70.152344 195.617188 70.242188 195.640625 C 70.332031 195.664062 70.5 195.71875 70.503906 195.707031 C 70.722656 194.980469 71.589844 195.242188 72.03125 194.710938 C 72.285156 194.414062 72.792969 194.132812 73.179688 193.835938 C 73.578125 193.539062 74.125 193.792969 74.566406 193.554688 C 74.65625 193.507812 74.851562 193.585938 74.84375 193.441406 C 74.839844 192.96875 75.199219 192.855469 75.488281 192.59375 C 76.144531 192.003906 76.84375 191.574219 77.761719 191.621094 C 77.929688 191.636719 78.027344 191.523438 78.058594 191.394531 C 78.113281 191.152344 78.195312 191.152344 78.347656 191.34375 C 78.417969 191.425781 78.585938 191.417969 78.59375 191.347656 C 78.636719 190.351562 79.269531 191.078125 79.449219 191.136719 C 80.207031 191.363281 80.949219 191.28125 81.710938 191.214844 C 81.828125 191.199219 81.984375 191.179688 82.019531 191.300781 C 82.140625 191.683594 82.339844 191.816406 82.707031 191.589844 C 82.753906 191.5625 82.898438 191.648438 82.898438 191.648438 C 82.640625 192.566406 83.566406 192.222656 83.875 192.527344 C 84.003906 192.652344 84.273438 192.648438 84.34375 192.898438 C 84.539062 193.625 85.207031 193.910156 85.703125 194.367188 C 86.234375 194.859375 86.195312 195.574219 86.339844 196.21875 C 86.320312 196.21875 86.3125 196.214844 86.289062 196.222656 C 86.277344 196.222656 86.277344 196.242188 86.273438 196.25 C 86.296875 196.234375 86.3125 196.214844 86.335938 196.199219 C 86.675781 196.582031 86.554688 197.117188 86.78125 197.566406 C 87.105469 198.226562 87.457031 198.453125 88.214844 198.535156 C 89.480469 198.664062 90.734375 198.617188 91.984375 198.714844 C 92.457031 198.75 92.796875 199.007812 92.78125 199.476562 C 92.765625 200.003906 92.28125 200.039062 91.902344 199.996094 C 90.601562 199.847656 89.316406 200.078125 88.019531 200.101562 C 87.589844 200.109375 87.25 200.519531 86.773438 200.429688 C 86.660156 200.414062 86.597656 200.632812 86.683594 200.707031 C 86.996094 200.972656 87.085938 201.515625 87.648438 201.515625 C 87.972656 201.511719 88.300781 201.609375 88.628906 201.667969 C 89.011719 201.734375 89.210938 201.960938 89.195312 202.355469 C 89.175781 202.777344 88.847656 202.878906 88.527344 202.851562 C 87.847656 202.804688 87.175781 202.832031 86.503906 202.871094 C 86.03125 202.898438 85.617188 203.035156 85.339844 203.421875 C 85.222656 203.59375 84.726562 204.0625 85.546875 203.929688 C 85.613281 203.917969 85.738281 203.988281 85.734375 204.019531 C 85.71875 204.195312 85.570312 204.132812 85.464844 204.160156 C 85.140625 204.238281 85.128906 204.246094 85.1875 204.484375 C 85.203125 204.527344 85.167969 204.617188 85.148438 204.613281 C 84.160156 204.667969 84.703125 205.371094 84.628906 205.808594 C 84.617188 205.910156 84.875 206.054688 84.617188 206.109375 C 84.46875 206.140625 84.3125 206.054688 84.347656 205.832031 C 84.363281 205.71875 84.414062 205.570312 84.25 205.546875 C 84.128906 205.527344 84.019531 205.636719 84.003906 205.75 C 83.925781 206.425781 83.039062 206.871094 83.472656 207.683594 C 83.488281 207.71875 83.46875 207.789062 83.46875 207.796875 C 82.960938 207.839844 82.742188 208.402344 82.246094 208.445312 C 82.078125 208.460938 82.101562 208.300781 82.03125 208.214844 C 81.949219 208.121094 81.824219 207.90625 81.738281 208.078125 C 81.527344 208.527344 81.121094 208.230469 80.859375 208.378906 C 80.328125 208.679688 79.777344 208.960938 79.355469 209.421875 C 78.847656 209.964844 78.390625 210.535156 78.160156 211.273438 C 78.039062 211.671875 77.550781 211.652344 77.222656 211.761719 C 76.828125 211.902344 76.375 212.160156 76.363281 212.460938 C 76.34375 213.03125 76.144531 213.617188 76.339844 214.1875 C 76.402344 214.351562 76.484375 214.5 76.457031 214.683594 C 76.328125 215.425781 76.703125 215.9375 77.234375 216.359375 C 77.40625 216.488281 77.414062 216.71875 77.4375 216.835938 C 77.636719 217.6875 78.320312 218.089844 78.914062 218.59375 C 79.425781 219.019531 79.609375 219.691406 79.960938 220.203125 C 80.503906 220.988281 80.8125 221.953125 81.597656 222.574219 C 81.757812 222.703125 81.882812 222.847656 81.882812 223.066406 C 81.882812 223.285156 81.941406 223.460938 82.21875 223.40625 C 82.25 223.398438 82.332031 223.410156 82.332031 223.421875 C 82.371094 224.28125 83.164062 224.085938 83.554688 224.101562 C 84.445312 224.144531 83.953125 224.449219 83.757812 224.722656 C 83.679688 224.835938 83.765625 224.890625 83.785156 224.964844 C 83.988281 226.015625 84.597656 226.917969 84.875 227.9375 C 84.917969 228.078125 85.109375 228.191406 85.230469 228.300781 C 85.285156 228.351562 85.480469 228.433594 85.3125 228.449219 C 84.75 228.515625 85.074219 228.882812 85.027344 229.117188 C 84.980469 229.371094 84.761719 229.652344 85.28125 229.675781 C 85.5 229.683594 85.351562 229.832031 85.273438 229.882812 C 84.847656 230.152344 84.789062 230.488281 84.988281 230.964844 C 85.0625 231.269531 85.242188 231.734375 84.632812 231.707031 Z M 53.054688 184.566406 C 53.070312 184.390625 52.941406 184.414062 52.875 184.371094 C 52.808594 184.332031 52.730469 184.296875 52.695312 184.398438 C 52.660156 184.496094 52.707031 184.597656 52.808594 184.613281 C 52.878906 184.621094 52.96875 184.582031 53.054688 184.566406 Z M 56.5 227.207031 C 56.667969 227.273438 56.734375 227.324219 56.777344 227.308594 C 56.90625 227.285156 57.054688 227.277344 57.136719 227.195312 C 57.1875 227.148438 57.058594 227.101562 56.996094 227.101562 C 56.867188 227.113281 56.75 227.148438 56.5 227.207031 Z M 64.164062 197.167969 C 64.152344 197.175781 64.140625 197.195312 64.117188 197.203125 C 64.144531 197.226562 64.175781 197.242188 64.203125 197.257812 C 64.214844 197.257812 64.226562 197.238281 64.238281 197.21875 C 64.21875 197.207031 64.191406 197.191406 64.164062 197.167969 Z M 48.148438 199.027344 C 48.15625 199.039062 48.164062 199.070312 48.171875 199.074219 C 48.203125 199.066406 48.238281 199.0625 48.257812 199.054688 C 48.25 199.042969 48.246094 199.011719 48.234375 199.007812 C 48.203125 199.015625 48.171875 199.019531 48.148438 199.027344 Z M 45.632812 196.757812 C 45.621094 196.765625 45.597656 196.773438 45.597656 196.78125 C 45.59375 196.792969 45.613281 196.804688 45.621094 196.828125 C 45.632812 196.820312 45.65625 196.8125 45.65625 196.800781 C 45.660156 196.78125 45.640625 196.769531 45.632812 196.757812 Z M 80.011719 209.351562 C 79.835938 209.472656 79.878906 209.695312 79.921875 209.890625 C 79.929688 209.921875 79.996094 209.953125 80.035156 209.980469 C 80.207031 209.652344 80.710938 209.777344 80.839844 209.398438 C 80.878906 209.269531 80.976562 209.085938 80.6875 209.0625 C 80.457031 209.144531 80.207031 209.214844 80.011719 209.351562 Z M 81.273438 209.285156 C 81.332031 209.519531 81.433594 209.753906 81.515625 209.984375 C 81.636719 209.785156 81.8125 209.589844 81.851562 209.378906 C 81.867188 209.277344 81.628906 209.117188 81.527344 209.019531 C 81.28125 209.003906 81.246094 209.164062 81.273438 209.285156 Z M 44.347656 188.566406 C 44.238281 188.46875 44.160156 188.570312 44.15625 188.675781 C 44.148438 188.871094 44.101562 189.125 44.339844 189.203125 C 44.449219 189.238281 44.613281 189.117188 44.8125 189.039062 C 44.628906 188.867188 44.503906 188.703125 44.347656 188.566406 Z M 46.371094 186.839844 C 46.503906 186.617188 46.574219 186.347656 46.683594 186.101562 C 46.71875 186.023438 46.730469 185.921875 46.648438 185.929688 C 46.339844 185.96875 46.363281 186.296875 46.21875 186.449219 C 46.210938 186.636719 46.351562 186.878906 46.371094 186.839844 Z M 86.011719 230.53125 C 86.125 230.328125 86.4375 230.476562 86.46875 230.242188 C 86.492188 230.101562 86.332031 230.046875 86.242188 230.023438 C 86.042969 229.960938 86.003906 230.144531 85.925781 230.269531 C 86.007812 230.34375 85.984375 230.570312 86.011719 230.53125 Z M 84.929688 207.332031 C 84.878906 207.253906 84.753906 207.183594 84.75 207.347656 C 84.746094 207.523438 84.835938 207.703125 84.882812 207.878906 C 85.011719 207.710938 84.953125 207.324219 85.539062 207.597656 C 85.246094 207.304688 85.042969 207.503906 84.929688 207.332031 Z M 55.835938 183.132812 C 56.078125 183.199219 56 183 56.015625 182.898438 C 56.042969 182.789062 56.085938 182.648438 55.90625 182.644531 C 55.710938 182.644531 55.832031 182.871094 55.738281 182.941406 C 55.644531 183.085938 55.746094 183.109375 55.835938 183.132812 Z M 85.839844 207.527344 C 85.785156 207.632812 85.925781 207.664062 85.980469 207.640625 C 86.101562 207.605469 86.332031 207.734375 86.308594 207.46875 C 86.300781 207.386719 86.226562 207.3125 86.09375 207.074219 C 86.128906 207.414062 85.910156 207.402344 85.839844 207.527344 Z M 85.648438 231.96875 C 85.539062 231.777344 86.09375 231.699219 85.738281 231.480469 C 85.578125 231.375 85.5 231.539062 85.433594 231.644531 C 85.246094 231.921875 85.53125 231.898438 85.648438 231.96875 Z M 43.863281 195.074219 C 43.867188 195.125 43.945312 195.230469 44 195.226562 C 44.15625 195.21875 44.195312 195.078125 44.246094 194.960938 C 44.265625 194.882812 44.234375 194.8125 44.132812 194.808594 C 44.019531 194.875 43.867188 194.917969 43.863281 195.074219 Z M 61.511719 192.386719 C 61.441406 192.4375 61.585938 192.519531 61.628906 192.496094 C 61.789062 192.394531 62.039062 192.554688 62.136719 192.320312 C 62.167969 192.230469 62.101562 192.191406 62.011719 192.175781 C 61.84375 192.234375 61.652344 192.28125 61.511719 192.386719 Z M 85.289062 204.9375 C 85.136719 204.894531 84.972656 204.878906 84.875 205.042969 C 84.808594 205.15625 84.871094 205.230469 84.984375 205.246094 C 85.15625 205.28125 85.265625 205.152344 85.394531 205.066406 C 85.453125 204.960938 85.347656 204.945312 85.289062 204.9375 Z M 53.355469 210.703125 C 53.25 210.65625 53.144531 210.734375 53.160156 210.832031 C 53.179688 210.917969 53.292969 210.996094 53.378906 211.050781 C 53.417969 211.066406 53.5 211.003906 53.542969 210.992188 C 53.5625 210.804688 53.464844 210.75 53.355469 210.703125 Z M 77.167969 213.222656 C 77.167969 213.296875 77.105469 213.441406 77.277344 213.40625 C 77.375 213.378906 77.472656 213.296875 77.5625 213.25 C 77.496094 213.195312 77.417969 213.15625 77.371094 213.117188 C 77.226562 213.054688 77.164062 213.117188 77.167969 213.222656 Z M 56.683594 184.902344 C 56.730469 184.949219 56.769531 185.03125 56.828125 185.058594 C 56.925781 185.105469 57.015625 185.066406 57.03125 184.953125 C 57.054688 184.863281 57 184.8125 56.867188 184.792969 C 56.824219 184.820312 56.753906 184.859375 56.683594 184.902344 Z M 83.535156 209.121094 C 83.464844 209.101562 83.347656 209.1875 83.386719 209.226562 C 83.496094 209.3125 83.648438 209.355469 83.796875 209.410156 C 83.824219 209.425781 83.882812 209.378906 83.984375 209.320312 C 83.800781 209.242188 83.675781 209.171875 83.535156 209.121094 Z M 44 186.859375 C 44.023438 186.925781 44.078125 186.984375 44.132812 187.023438 C 44.210938 187.066406 44.300781 187.027344 44.289062 186.945312 C 44.28125 186.859375 44.222656 186.777344 44.214844 186.753906 C 44.039062 186.730469 43.980469 186.785156 44 186.859375 Z M 45.234375 227.148438 C 45.238281 227.203125 45.308594 227.273438 45.359375 227.28125 C 45.421875 227.300781 45.539062 227.277344 45.554688 227.246094 C 45.582031 227.117188 45.433594 227.136719 45.386719 227.089844 C 45.300781 227.054688 45.222656 227.023438 45.234375 227.148438 Z M 47.203125 185.90625 C 47.28125 185.949219 47.355469 185.929688 47.367188 185.835938 C 47.398438 185.695312 47.328125 185.613281 47.191406 185.613281 C 47.128906 185.613281 47.058594 185.667969 46.960938 185.714844 C 47.0625 185.800781 47.125 185.863281 47.203125 185.90625 Z M 87.132812 208.546875 C 87.179688 208.566406 87.226562 208.601562 87.269531 208.609375 C 87.308594 208.605469 87.347656 208.570312 87.382812 208.542969 C 87.332031 208.515625 87.285156 208.488281 87.21875 208.457031 C 87.191406 208.484375 87.167969 208.511719 87.132812 208.546875 Z M 52.242188 182.707031 C 52.199219 182.699219 52.15625 182.703125 52.117188 182.699219 C 52.191406 182.75 52.265625 182.824219 52.34375 182.867188 C 52.371094 182.882812 52.429688 182.839844 52.472656 182.824219 C 52.445312 182.671875 52.332031 182.71875 52.242188 182.707031 Z M 84.632812 231.707031 C 84.527344 231.722656 84.378906 231.734375 84.40625 231.894531 C 84.429688 232.019531 84.550781 231.996094 84.636719 231.957031 C 84.839844 231.863281 84.570312 231.78125 84.632812 231.707031 C 84.625 231.695312 84.632812 231.707031 84.632812 231.707031 Z M 59.207031 186.914062 C 59.1875 186.910156 59.113281 187.003906 59.121094 187.015625 C 59.152344 187.074219 59.207031 187.121094 59.265625 187.152344 C 59.285156 187.164062 59.339844 187.089844 59.410156 187.027344 C 59.324219 186.972656 59.265625 186.933594 59.207031 186.914062 Z M 85.65625 231.96875 C 85.695312 232.078125 85.523438 232.253906 85.746094 232.296875 C 85.808594 232.304688 85.878906 232.242188 85.957031 232.210938 C 85.855469 232.125 85.75 232.046875 85.65625 231.96875 C 85.648438 231.96875 85.65625 231.96875 85.65625 231.96875 Z M 43.195312 193.359375 C 43.34375 193.402344 43.3125 193.261719 43.324219 193.191406 C 43.332031 193.140625 43.289062 193.070312 43.265625 193.015625 C 43.21875 193.0625 43.179688 193.109375 43.128906 193.164062 C 43.148438 193.238281 43.164062 193.355469 43.195312 193.359375 Z M 43.296875 191.582031 C 43.300781 191.625 43.34375 191.683594 43.382812 191.710938 C 43.4375 191.75 43.496094 191.726562 43.464844 191.636719 C 43.453125 191.585938 43.425781 191.539062 43.398438 191.453125 C 43.359375 191.507812 43.300781 191.542969 43.296875 191.582031 Z M 43.019531 189.46875 C 43.054688 189.503906 43.078125 189.570312 43.117188 189.585938 C 43.144531 189.601562 43.195312 189.546875 43.230469 189.53125 C 43.191406 189.492188 43.15625 189.457031 43.121094 189.421875 C 43.074219 189.433594 43.050781 189.453125 43.019531 189.46875 Z M 85.753906 206.097656 C 85.710938 206.113281 85.671875 206.167969 85.65625 206.21875 C 85.640625 206.246094 85.683594 206.296875 85.699219 206.339844 C 85.75 206.292969 85.785156 206.246094 85.835938 206.203125 C 85.789062 206.15625 85.867188 206.050781 85.753906 206.097656 Z M 54.683594 183.769531 C 54.667969 183.789062 54.703125 183.835938 54.71875 183.867188 C 54.765625 183.84375 54.835938 183.84375 54.855469 183.804688 C 54.867188 183.773438 54.835938 183.707031 54.804688 183.628906 C 54.746094 183.695312 54.699219 183.730469 54.683594 183.769531 Z M 85.285156 205.820312 C 85.246094 205.878906 85.1875 205.921875 85.167969 205.980469 C 85.152344 206.019531 85.183594 206.078125 85.199219 206.121094 C 85.261719 206.058594 85.332031 206.003906 85.417969 205.921875 C 85.359375 205.882812 85.320312 205.859375 85.285156 205.820312 Z M 43.648438 193.894531 C 43.632812 193.945312 43.65625 194 43.644531 194.0625 C 43.683594 194.023438 43.738281 193.992188 43.765625 193.945312 C 43.792969 193.90625 43.78125 193.851562 43.789062 193.726562 C 43.703125 193.820312 43.65625 193.855469 43.648438 193.894531 Z M 45.382812 186.519531 C 45.363281 186.453125 45.339844 186.386719 45.320312 186.320312 C 45.296875 186.339844 45.261719 186.355469 45.238281 186.371094 C 45.292969 186.421875 45.339844 186.46875 45.382812 186.519531 C 45.394531 186.519531 45.382812 186.519531 45.382812 186.519531 Z M 85.503906 209.636719 C 85.535156 209.648438 85.558594 209.683594 85.589844 209.679688 C 85.613281 209.671875 85.640625 209.625 85.644531 209.605469 C 85.636719 209.582031 85.597656 209.566406 85.570312 209.550781 C 85.542969 209.578125 85.527344 209.609375 85.503906 209.636719 Z M 85.957031 203.617188 C 86.011719 203.621094 86.066406 203.601562 86.117188 203.597656 C 86.078125 203.570312 86.046875 203.523438 86.003906 203.519531 C 85.953125 203.5 85.898438 203.523438 85.792969 203.527344 C 85.871094 203.570312 85.90625 203.609375 85.957031 203.617188 Z M 45.753906 185.625 C 45.730469 185.558594 45.707031 185.503906 45.6875 185.4375 C 45.664062 185.453125 45.640625 185.472656 45.617188 185.488281 C 45.660156 185.535156 45.71875 185.578125 45.753906 185.625 C 45.765625 185.613281 45.753906 185.625 45.753906 185.625 Z M 83.917969 233.050781 C 83.925781 233.074219 83.964844 233.089844 83.992188 233.105469 C 84.007812 233.074219 84.042969 233.050781 84.035156 233.027344 C 84.027344 233.003906 83.988281 232.988281 83.960938 232.964844 C 83.945312 232.992188 83.910156 233.03125 83.917969 233.050781 Z M 58.328125 186.507812 C 58.359375 186.519531 58.394531 186.566406 58.414062 186.558594 C 58.4375 186.554688 58.453125 186.503906 58.480469 186.476562 C 58.449219 186.460938 58.421875 186.4375 58.382812 186.421875 C 58.367188 186.449219 58.34375 186.476562 58.328125 186.507812 Z M 85.511719 228.226562 C 85.523438 228.230469 85.558594 228.203125 85.546875 228.191406 C 85.542969 228.160156 85.523438 228.136719 85.507812 228.101562 C 85.484375 228.121094 85.453125 228.136719 85.429688 228.152344 C 85.453125 228.1875 85.480469 228.214844 85.511719 228.226562 Z M 63.886719 194.84375 C 63.886719 194.835938 63.859375 194.800781 63.847656 194.808594 C 63.816406 194.8125 63.792969 194.832031 63.757812 194.847656 C 63.777344 194.871094 63.792969 194.90625 63.8125 194.925781 C 63.84375 194.902344 63.871094 194.875 63.886719 194.84375 Z M 83.59375 209.808594 C 83.601562 209.828125 83.648438 209.847656 83.679688 209.859375 C 83.695312 209.832031 83.730469 209.796875 83.734375 209.773438 C 83.726562 209.753906 83.675781 209.734375 83.648438 209.710938 C 83.621094 209.75 83.585938 209.785156 83.59375 209.808594 Z M 79.75 218.359375 C 79.757812 218.378906 79.804688 218.410156 79.828125 218.402344 C 79.847656 218.394531 79.875 218.347656 79.878906 218.324219 C 79.871094 218.304688 79.832031 218.289062 79.804688 218.273438 C 79.777344 218.300781 79.742188 218.328125 79.75 218.359375 Z M 63.585938 223.835938 C 63.59375 223.855469 63.640625 223.882812 63.664062 223.878906 C 63.683594 223.871094 63.710938 223.820312 63.714844 223.800781 C 63.707031 223.78125 63.667969 223.761719 63.640625 223.75 C 63.613281 223.777344 63.578125 223.8125 63.585938 223.835938 Z M 86.15625 228.101562 C 86.140625 228.121094 86.167969 228.167969 86.171875 228.199219 C 86.214844 228.183594 86.25 228.15625 86.296875 228.144531 C 86.277344 228.121094 86.261719 228.085938 86.242188 228.0625 C 86.210938 228.078125 86.167969 228.082031 86.15625 228.101562 Z M 52.78125 210.859375 C 52.765625 210.886719 52.792969 210.921875 52.800781 210.957031 C 52.832031 210.941406 52.875 210.925781 52.910156 210.898438 C 52.894531 210.875 52.878906 210.84375 52.859375 210.820312 C 52.835938 210.835938 52.792969 210.839844 52.78125 210.859375 Z M 65.234375 196.457031 C 65.238281 196.4375 65.242188 196.417969 65.253906 196.398438 C 65.222656 196.394531 65.183594 196.398438 65.152344 196.394531 C 65.152344 196.394531 65.148438 196.414062 65.148438 196.421875 C 65.164062 196.4375 65.195312 196.453125 65.234375 196.457031 Z M 85.761719 229.371094 C 85.761719 229.378906 85.777344 229.414062 85.789062 229.414062 C 85.820312 229.417969 85.84375 229.402344 85.863281 229.394531 C 85.847656 229.371094 85.832031 229.335938 85.8125 229.3125 C 85.800781 229.332031 85.777344 229.351562 85.761719 229.371094 Z M 43.988281 225.96875 C 44.003906 225.9375 44.015625 225.921875 44.019531 225.890625 C 44.019531 225.878906 43.992188 225.855469 43.980469 225.863281 C 43.960938 225.871094 43.9375 225.886719 43.914062 225.894531 C 43.941406 225.921875 43.960938 225.945312 43.988281 225.96875 Z M 81.566406 222.070312 C 81.546875 222.058594 81.503906 222.074219 81.460938 222.078125 C 81.476562 222.109375 81.484375 222.152344 81.5 222.175781 C 81.519531 222.191406 81.5625 222.175781 81.59375 222.167969 C 81.589844 222.136719 81.585938 222.085938 81.566406 222.070312 Z M 83.429688 208.28125 L 83.390625 208.265625 L 83.386719 208.285156 Z M 62.277344 191.558594 C 62.320312 191.554688 62.359375 191.550781 62.414062 191.546875 C 62.40625 191.535156 62.386719 191.523438 62.375 191.53125 C 62.34375 191.527344 62.308594 191.542969 62.277344 191.558594 C 62.285156 191.558594 62.277344 191.558594 62.277344 191.558594 Z M 53.453125 183.613281 C 53.484375 183.617188 53.503906 183.617188 53.535156 183.632812 C 53.527344 183.621094 53.515625 183.609375 53.496094 183.597656 C 53.488281 183.597656 53.464844 183.601562 53.453125 183.613281 Z M 45.765625 185.613281 C 45.789062 185.660156 45.695312 185.75 45.820312 185.738281 C 45.804688 185.703125 45.78125 185.660156 45.765625 185.613281 C 45.753906 185.625 45.765625 185.613281 45.765625 185.613281 Z M 45.394531 186.519531 C 45.429688 186.554688 45.457031 186.589844 45.492188 186.628906 C 45.503906 186.617188 45.519531 186.601562 45.53125 186.589844 C 45.480469 186.5625 45.433594 186.535156 45.394531 186.519531 C 45.382812 186.519531 45.394531 186.519531 45.394531 186.519531 Z M 78.453125 231.050781 C 78.414062 231.046875 78.371094 231.039062 78.332031 231.035156 C 78.332031 231.035156 78.34375 231.023438 78.34375 231.023438 C 78.359375 231.058594 78.375 231.09375 78.382812 231.113281 C 78.40625 231.097656 78.429688 231.070312 78.453125 231.050781 Z M 43.988281 191.277344 C 43.976562 191.285156 43.972656 191.304688 43.960938 191.3125 C 43.972656 191.304688 43.984375 191.296875 43.988281 191.277344 C 43.996094 191.289062 43.988281 191.277344 43.988281 191.277344 Z M 44.539062 194.085938 C 44.527344 194.085938 44.507812 194.082031 44.496094 194.089844 C 44.484375 194.089844 44.484375 194.109375 44.480469 194.121094 C 44.496094 194.101562 44.515625 194.09375 44.539062 194.085938 C 44.53125 194.074219 44.539062 194.085938 44.539062 194.085938 Z M 44.539062 194.085938 " fill-opacity="1" fill-rule="nonzero"/></g></g></g><g clip-path="url(#f0e2b8c152)"><path fill="#000000" d="M 95.558594 164.589844 C 95.5 164.609375 95.449219 164.601562 95.402344 164.550781 C 95.34375 164.484375 95.269531 164.429688 95.210938 164.542969 C 95.164062 164.632812 95.214844 164.683594 95.300781 164.738281 C 95.539062 164.886719 95.550781 164.988281 95.382812 165.207031 C 95.351562 165.253906 95.28125 165.273438 95.273438 165.335938 C 95.261719 165.4375 95.300781 165.640625 95.144531 165.386719 C 95.113281 165.335938 95.03125 165.402344 94.972656 165.453125 C 94.847656 165.546875 94.804688 165.484375 94.765625 165.335938 C 94.726562 165.179688 94.757812 165.039062 94.777344 164.898438 C 94.796875 164.757812 94.964844 164.574219 94.609375 164.640625 C 94.441406 164.671875 94.410156 164.628906 94.441406 164.851562 C 94.460938 165 94.371094 165.175781 94.535156 165.296875 C 94.546875 165.308594 94.539062 165.367188 94.519531 165.394531 C 94.488281 165.445312 94.417969 165.4375 94.398438 165.414062 C 94.238281 165.199219 93.933594 165.511719 93.785156 165.238281 C 93.773438 165.214844 93.691406 165.246094 93.671875 165.289062 C 93.644531 165.355469 93.695312 165.402344 93.746094 165.433594 C 93.785156 165.453125 93.824219 165.472656 93.863281 165.492188 C 93.832031 165.546875 93.765625 165.527344 93.714844 165.535156 C 93.65625 165.542969 93.597656 165.527344 93.542969 165.535156 C 93.417969 165.546875 93.394531 165.605469 93.484375 165.691406 C 93.695312 165.871094 93.675781 166.148438 93.761719 166.371094 C 93.78125 166.4375 93.707031 166.515625 93.691406 166.476562 C 93.605469 166.308594 93.414062 166.425781 93.328125 166.316406 C 93.195312 166.132812 93.058594 166.050781 92.863281 166.230469 C 92.832031 166.261719 92.800781 166.257812 92.773438 166.230469 C 92.710938 166.171875 92.71875 166.117188 92.78125 166.050781 C 92.8125 166.019531 92.851562 165.96875 92.820312 165.929688 C 92.769531 165.871094 92.71875 165.933594 92.660156 165.949219 C 92.609375 165.960938 92.601562 166.011719 92.570312 166.042969 C 92.441406 166.179688 92.292969 166.308594 92.257812 165.980469 C 92.246094 165.851562 92.132812 165.851562 92.046875 165.824219 C 91.984375 165.804688 91.90625 165.851562 91.878906 165.929688 C 91.855469 166 91.90625 166.042969 91.957031 166.0625 C 92.113281 166.121094 92.207031 166.261719 92.382812 166.296875 C 92.515625 166.320312 92.652344 166.390625 92.632812 166.578125 C 92.679688 166.578125 92.738281 166.566406 92.769531 166.585938 C 92.847656 166.628906 92.761719 166.644531 92.742188 166.667969 C 92.699219 166.726562 92.71875 166.765625 92.761719 166.816406 C 92.792969 166.851562 92.902344 166.835938 92.839844 166.921875 C 92.820312 166.945312 92.730469 166.945312 92.710938 166.925781 C 92.660156 166.863281 92.226562 166.964844 92.601562 166.703125 C 92.632812 166.683594 92.625 166.617188 92.640625 166.574219 C 92.351562 166.566406 92.203125 166.683594 92.183594 166.992188 C 92.164062 167.25 91.957031 167.242188 91.765625 167.203125 C 91.660156 167.183594 91.5625 167.113281 91.46875 167.183594 C 91.421875 167.21875 91.449219 167.261719 91.46875 167.308594 C 91.53125 167.460938 91.667969 167.371094 91.769531 167.398438 C 91.859375 167.421875 91.925781 167.371094 92.003906 167.351562 C 92.007812 167.339844 92.019531 167.320312 92.027344 167.308594 C 92.039062 167.320312 92.046875 167.332031 92.058594 167.339844 C 92.039062 167.34375 92.027344 167.351562 92.007812 167.359375 C 92.035156 167.429688 92.007812 167.472656 91.9375 167.492188 C 91.878906 167.507812 91.859375 167.550781 91.886719 167.597656 C 91.894531 167.617188 91.949219 167.621094 91.976562 167.617188 C 92.136719 167.550781 92.273438 167.511719 92.304688 167.75 C 92.304688 167.777344 92.34375 167.808594 92.375 167.824219 C 92.441406 167.855469 92.589844 167.710938 92.574219 167.898438 C 92.570312 168.003906 92.453125 168.023438 92.355469 168.046875 C 92.132812 168.105469 92.132812 168.164062 92.292969 168.351562 C 92.414062 168.5 92.472656 168.621094 92.671875 168.484375 C 92.71875 168.460938 92.828125 168.453125 92.730469 168.542969 C 92.632812 168.632812 92.703125 168.75 92.632812 168.832031 C 92.523438 168.957031 92.574219 169.039062 92.730469 169.078125 C 92.882812 169.117188 92.957031 169.175781 92.890625 169.375 C 92.828125 169.59375 92.847656 169.84375 93.078125 170.011719 C 93.121094 170.042969 93.117188 170.058594 93.027344 170.148438 C 92.671875 170.484375 92.671875 170.488281 93.039062 170.824219 C 93.101562 170.882812 93.167969 170.933594 93.136719 171.03125 C 93.101562 171.140625 93 171.125 92.929688 171.101562 C 92.828125 171.0625 92.679688 171.113281 92.710938 171.152344 C 92.828125 171.292969 92.574219 171.492188 92.789062 171.570312 C 93.046875 171.667969 93.109375 171.847656 93.078125 172.09375 C 93.058594 172.214844 93.089844 172.296875 93.230469 172.316406 C 93.425781 172.351562 93.46875 172.445312 93.359375 172.613281 C 93.226562 172.8125 93.265625 172.957031 93.46875 173.117188 C 93.722656 173.308594 93.753906 173.632812 93.785156 173.921875 C 93.800781 174.03125 93.855469 174.03125 93.894531 174.042969 C 94.070312 174.121094 94.238281 174.1875 94.074219 174.425781 C 94.011719 174.515625 94.109375 174.546875 94.148438 174.59375 C 94.546875 175.105469 94.945312 175.617188 95.273438 176.1875 C 95.449219 176.492188 95.730469 176.761719 95.996094 177.011719 C 96.214844 177.21875 96.34375 177.496094 96.535156 177.722656 C 96.820312 178.050781 96.75 178.449219 96.699219 178.824219 C 96.613281 179.429688 96.652344 180.027344 96.671875 180.632812 C 96.691406 181.433594 96.710938 182.238281 96.535156 183.023438 C 96.460938 183.378906 96.492188 183.738281 96.535156 184.078125 C 96.613281 184.628906 96.535156 185.15625 96.496094 185.695312 C 96.453125 186.351562 96.441406 187.011719 96.53125 187.660156 C 96.574219 187.996094 96.53125 188.316406 96.535156 188.644531 C 96.554688 189.785156 96.644531 190.917969 96.59375 192.058594 C 96.589844 192.207031 96.640625 192.363281 96.671875 192.511719 C 96.710938 192.671875 96.792969 192.800781 96.980469 192.78125 C 97.15625 192.761719 97.269531 192.644531 97.269531 192.472656 C 97.269531 192.09375 97.347656 191.71875 97.347656 191.34375 C 97.347656 190.984375 97.394531 190.617188 97.324219 190.25 C 97.289062 190.09375 97.335938 189.921875 97.386719 189.765625 C 97.414062 189.691406 97.457031 189.597656 97.4375 189.527344 C 97.226562 188.710938 97.503906 187.894531 97.453125 187.082031 C 97.433594 186.804688 97.457031 186.539062 97.5625 186.28125 C 97.65625 186.039062 97.574219 185.792969 97.578125 185.546875 C 97.585938 185.085938 97.566406 184.613281 97.566406 184.148438 C 97.566406 183.671875 97.453125 183.195312 97.515625 182.71875 C 97.574219 182.308594 97.503906 181.894531 97.535156 181.484375 C 97.59375 180.660156 97.597656 179.828125 97.613281 178.996094 C 97.613281 178.886719 97.625 178.777344 97.753906 178.738281 C 97.894531 178.695312 97.933594 178.753906 97.980469 178.902344 C 98.011719 179.003906 98.160156 178.972656 98.242188 178.847656 C 98.3125 178.746094 98.398438 178.726562 98.40625 178.894531 C 98.410156 178.972656 98.4375 179.042969 98.515625 179.0625 C 98.808594 179.121094 98.789062 179.332031 98.816406 179.570312 C 98.882812 180.105469 98.835938 180.640625 98.84375 181.167969 C 98.84375 181.316406 98.894531 181.457031 99.054688 181.496094 C 99.230469 181.542969 99.382812 181.496094 99.488281 181.335938 C 99.5625 181.214844 99.589844 181.070312 99.589844 180.929688 C 99.597656 180.492188 99.601562 180.058594 99.601562 179.621094 C 99.601562 179.46875 99.589844 179.359375 99.828125 179.398438 C 100.046875 179.433594 100.292969 179.324219 100.492188 179.507812 C 100.515625 179.53125 100.550781 179.550781 100.574219 179.507812 C 100.664062 179.308594 100.832031 179.398438 100.9375 179.441406 C 101.226562 179.5625 101.527344 179.398438 101.816406 179.5 C 101.851562 179.511719 101.890625 179.507812 101.921875 179.492188 C 102.257812 179.363281 102.609375 179.300781 102.957031 179.230469 C 103.035156 179.214844 103.082031 179.164062 103.132812 179.121094 C 103.183594 179.074219 103.253906 178.996094 103.3125 179.035156 C 103.582031 179.234375 103.757812 178.976562 103.96875 178.90625 C 104.046875 178.882812 104.128906 178.804688 104.195312 178.816406 C 104.714844 178.933594 105.050781 178.539062 105.449219 178.347656 C 105.625 178.261719 105.800781 178.230469 105.964844 178.1875 C 106.332031 178.097656 106.480469 177.78125 106.726562 177.5625 C 106.992188 177.316406 107.191406 176.996094 107.519531 176.828125 C 107.761719 176.703125 107.867188 176.464844 108.035156 176.285156 C 108.226562 176.078125 108.425781 175.9375 108.671875 175.804688 C 109.019531 175.609375 109.296875 175.320312 109.40625 174.914062 C 109.417969 174.855469 109.40625 174.773438 109.4375 174.746094 C 109.746094 174.527344 109.746094 174.167969 109.882812 173.871094 C 110 173.613281 110.09375 173.335938 110.257812 173.097656 C 110.308594 173.027344 110.367188 172.96875 110.347656 172.886719 C 110.242188 172.523438 110.460938 172.226562 110.527344 171.898438 C 110.546875 171.808594 110.625 171.6875 110.496094 171.660156 C 110.203125 171.601562 110.332031 171.441406 110.417969 171.351562 C 110.617188 171.144531 110.625 171.011719 110.347656 170.882812 C 110.210938 170.816406 110.25 170.765625 110.378906 170.714844 C 110.421875 170.695312 110.578125 170.6875 110.519531 170.648438 C 110.367188 170.546875 110.566406 170.378906 110.429688 170.320312 C 110.09375 170.171875 110.242188 169.882812 110.242188 169.65625 C 110.242188 169.40625 110.191406 169.253906 109.945312 169.160156 C 109.871094 169.136719 109.84375 169.085938 109.890625 169.039062 C 110.0625 168.847656 109.980469 168.800781 109.773438 168.71875 C 109.65625 168.671875 109.566406 168.460938 109.535156 168.304688 C 109.40625 167.707031 108.960938 167.242188 108.8125 166.664062 C 108.683594 166.179688 108.292969 165.921875 108.078125 165.542969 C 107.9375 165.285156 107.632812 165.289062 107.542969 165.058594 C 107.429688 164.789062 107.082031 164.789062 106.976562 164.519531 C 106.972656 164.5 106.914062 164.5 106.882812 164.484375 C 106.695312 164.433594 106.53125 164.363281 106.660156 164.117188 C 106.6875 164.074219 106.675781 164.023438 106.625 164.007812 C 106.597656 164.003906 106.539062 164.023438 106.53125 164.042969 C 106.449219 164.332031 106.421875 164.078125 106.351562 164.035156 C 106.164062 163.914062 105.933594 163.878906 105.761719 163.710938 C 105.675781 163.636719 105.574219 163.585938 105.503906 163.480469 C 105.335938 163.230469 105.027344 163.179688 104.773438 163.042969 C 104.5625 162.925781 104.414062 162.792969 104.332031 162.574219 C 104.285156 162.449219 104.195312 162.398438 104.148438 162.527344 C 104.058594 162.792969 103.859375 162.667969 103.707031 162.6875 C 103.589844 162.703125 103.472656 162.574219 103.34375 162.664062 C 103.324219 162.675781 103.28125 162.644531 103.25 162.636719 C 103.09375 162.585938 103.324219 162.4375 103.210938 162.425781 C 103.140625 162.417969 103.144531 162.613281 103.011719 162.636719 C 102.777344 162.683594 102.570312 162.597656 102.371094 162.515625 C 102.191406 162.4375 102.019531 162.464844 101.921875 162.628906 C 101.722656 163.003906 101.484375 163.101562 101.019531 162.992188 C 100.9375 162.972656 100.890625 163.023438 100.820312 163.042969 C 100.664062 163.089844 100.523438 163.183594 100.480469 162.894531 C 100.453125 162.722656 100.304688 162.804688 100.234375 162.925781 C 100.203125 162.980469 100.238281 163.203125 100.113281 162.964844 C 100.054688 162.851562 99.964844 162.886719 99.875 162.941406 C 99.777344 162.996094 99.796875 163.070312 99.847656 163.144531 C 99.949219 163.300781 99.949219 163.390625 99.726562 163.339844 C 99.667969 163.328125 99.597656 163.308594 99.597656 163.402344 C 99.609375 163.660156 99.402344 163.570312 99.34375 163.527344 C 99.203125 163.410156 98.945312 163.457031 98.886719 163.21875 C 98.875 163.171875 98.808594 163.164062 98.765625 163.183594 C 98.699219 163.21875 98.753906 163.261719 98.765625 163.300781 C 98.867188 163.570312 98.808594 163.765625 98.566406 163.875 C 98.4375 163.933594 98.417969 164.273438 98.203125 164.046875 C 98.074219 163.914062 97.929688 163.859375 97.78125 163.804688 C 97.59375 163.738281 97.625 163.621094 97.644531 163.492188 C 97.652344 163.46875 97.671875 163.421875 97.695312 163.417969 C 97.742188 163.402344 97.746094 163.457031 97.761719 163.480469 C 97.785156 163.53125 97.785156 163.660156 97.882812 163.546875 C 97.933594 163.488281 98.050781 163.402344 97.921875 163.320312 C 97.863281 163.28125 97.800781 163.203125 97.753906 163.203125 C 97.574219 163.222656 97.515625 163.152344 97.507812 162.980469 C 97.507812 162.914062 97.417969 162.867188 97.339844 162.894531 C 97.269531 162.921875 97.21875 162.980469 97.199219 163.042969 C 97.167969 163.132812 97.230469 163.183594 97.304688 163.191406 C 97.445312 163.203125 97.476562 163.292969 97.515625 163.410156 C 97.59375 163.617188 97.394531 163.566406 97.328125 163.636719 C 97.25 163.710938 97.21875 163.769531 97.277344 163.878906 C 97.335938 163.988281 97.386719 163.96875 97.464844 163.898438 C 97.5625 163.816406 97.636719 163.933594 97.722656 163.9375 C 97.761719 163.945312 97.792969 163.964844 97.78125 164.007812 C 97.765625 164.054688 97.734375 164.046875 97.695312 164.046875 C 97.523438 164.035156 97.484375 164.136719 97.425781 164.292969 C 97.367188 164.460938 97.21875 164.628906 96.988281 164.558594 C 96.761719 164.492188 96.722656 164.777344 96.535156 164.769531 C 96.523438 164.820312 96.535156 164.878906 96.460938 164.886719 C 96.453125 164.886719 96.433594 164.871094 96.433594 164.867188 C 96.433594 164.800781 96.484375 164.78125 96.535156 164.777344 C 96.515625 164.628906 96.589844 164.539062 96.710938 164.464844 C 96.832031 164.394531 96.910156 164.28125 96.863281 164.144531 C 96.828125 164.035156 96.734375 163.964844 96.59375 163.898438 C 96.382812 163.808594 96.394531 163.898438 96.355469 164.023438 C 96.335938 164.085938 96.296875 164.152344 96.277344 164.214844 C 96.203125 164.429688 96.097656 164.464844 95.917969 164.332031 C 95.777344 164.226562 95.667969 164.078125 95.460938 164.074219 C 95.324219 164.066406 95.285156 163.96875 95.398438 163.855469 C 95.441406 163.808594 95.449219 163.746094 95.359375 163.726562 C 95.292969 163.710938 95.222656 163.746094 95.234375 163.808594 C 95.273438 164.015625 95.0625 164.332031 95.480469 164.382812 C 95.550781 164.429688 95.582031 164.511719 95.558594 164.589844 C 95.617188 164.570312 95.667969 164.574219 95.691406 164.648438 C 95.707031 164.683594 95.6875 164.71875 95.648438 164.710938 C 95.570312 164.703125 95.558594 164.648438 95.558594 164.589844 Z M 94.289062 165.585938 C 94.289062 165.582031 94.289062 165.566406 94.296875 165.5625 C 94.296875 165.554688 94.308594 165.554688 94.3125 165.554688 C 94.300781 165.5625 94.289062 165.566406 94.289062 165.585938 C 94.257812 165.703125 94.300781 165.8125 94.328125 165.929688 C 94.339844 165.992188 94.308594 166.050781 94.242188 166.0625 C 94.203125 166.070312 94.140625 166.0625 94.113281 166.039062 C 94.003906 165.921875 94.109375 165.792969 94.101562 165.671875 C 94.09375 165.542969 94.203125 165.582031 94.289062 165.585938 Z M 94.714844 165.675781 C 94.71875 165.605469 94.757812 165.585938 94.804688 165.585938 C 94.894531 165.585938 94.90625 165.65625 94.90625 165.730469 C 94.90625 165.773438 94.902344 165.820312 94.828125 165.800781 C 94.765625 165.773438 94.699219 165.753906 94.714844 165.675781 Z M 92.222656 167.222656 C 92.234375 167.160156 92.265625 167.101562 92.335938 167.082031 C 92.402344 167.0625 92.40625 167.105469 92.386719 167.160156 C 92.363281 167.222656 92.421875 167.339844 92.292969 167.332031 C 92.242188 167.339844 92.222656 167.289062 92.222656 167.222656 Z M 93.453125 166.675781 C 93.453125 166.617188 93.464844 166.566406 93.523438 166.546875 C 93.527344 166.546875 93.554688 166.578125 93.554688 166.585938 C 93.527344 166.628906 93.503906 166.675781 93.46875 166.722656 C 93.464844 166.707031 93.457031 166.6875 93.453125 166.675781 Z M 92.820312 167.449219 C 92.792969 167.449219 92.75 167.480469 92.75 167.421875 C 92.75 167.363281 92.792969 167.359375 92.839844 167.359375 C 92.871094 167.359375 92.910156 167.371094 92.910156 167.410156 C 92.917969 167.488281 92.851562 167.4375 92.820312 167.449219 Z M 107.570312 188.316406 C 107.609375 189.199219 107.652344 190.074219 107.511719 190.953125 C 107.480469 191.164062 107.550781 191.34375 107.78125 191.371094 C 108.015625 191.398438 108.046875 191.195312 108.105469 191.023438 C 108.277344 190.46875 108.257812 189.894531 108.234375 189.328125 C 108.214844 188.980469 108.375 188.699219 108.472656 188.394531 C 108.515625 188.265625 108.613281 188.15625 108.820312 188.257812 C 109.167969 188.433594 109.574219 188.375 109.941406 188.5 C 110.222656 188.59375 110.539062 188.738281 110.847656 188.535156 C 111.222656 188.71875 111.484375 188.53125 111.730469 188.273438 C 111.742188 188.257812 111.769531 188.246094 111.796875 188.246094 C 112.046875 188.207031 112.128906 188.167969 112.347656 187.949219 C 112.386719 187.910156 112.421875 187.894531 112.472656 187.917969 C 112.652344 188.007812 112.640625 187.867188 112.640625 187.765625 C 112.644531 187.597656 112.671875 187.453125 112.890625 187.46875 C 112.980469 187.472656 113.046875 187.433594 113.0625 187.332031 C 113.078125 187.269531 113.128906 187.160156 113.179688 187.175781 C 113.449219 187.269531 113.503906 187.230469 113.316406 186.992188 C 113.289062 186.957031 113.300781 186.921875 113.339844 186.914062 C 113.375 186.90625 113.429688 186.925781 113.429688 186.9375 C 113.457031 187.339844 113.714844 187.054688 113.863281 187.082031 C 113.894531 187.085938 113.964844 187.121094 113.964844 187.042969 C 113.964844 187.015625 113.925781 186.976562 113.894531 186.972656 C 113.792969 186.953125 113.761719 186.914062 113.796875 186.804688 C 113.832031 186.707031 113.875 186.578125 113.964844 186.617188 C 114.300781 186.746094 114.261719 186.445312 114.242188 186.339844 C 114.191406 186.078125 114.3125 185.8125 114.203125 185.542969 C 114.140625 185.386719 114.128906 185.214844 114.023438 185.058594 C 113.90625 184.890625 114 184.722656 114.179688 184.730469 C 114.269531 184.738281 114.347656 184.769531 114.371094 184.652344 C 114.398438 184.535156 114.339844 184.472656 114.222656 184.472656 C 114.171875 184.472656 114.121094 184.453125 114.128906 184.402344 C 114.132812 184.34375 114.191406 184.351562 114.238281 184.363281 C 114.257812 184.371094 114.292969 184.375 114.300781 184.363281 C 114.359375 184.253906 114.570312 184.324219 114.566406 184.183594 C 114.558594 184.085938 114.402344 184.066406 114.320312 184.023438 C 114.054688 183.875 114.03125 183.707031 114.273438 183.5 C 114.378906 183.417969 114.351562 183.203125 114.230469 183.160156 C 114.152344 183.132812 114.121094 183.179688 114.121094 183.25 C 114.113281 183.332031 114.144531 183.417969 114.09375 183.488281 C 114.054688 183.539062 114.050781 183.671875 114.011719 183.648438 C 113.933594 183.597656 113.765625 183.601562 113.777344 183.472656 C 113.792969 183.339844 113.675781 183.171875 113.871094 183.074219 C 113.765625 182.972656 113.578125 182.933594 113.554688 182.785156 C 113.507812 182.554688 113.503906 182.339844 113.175781 182.398438 C 113.128906 182.40625 113.160156 182.300781 113.167969 182.242188 C 113.191406 182.070312 113.179688 181.933594 112.980469 181.851562 C 112.8125 181.785156 112.703125 181.175781 112.824219 181.039062 C 112.902344 180.949219 112.863281 180.683594 113.121094 180.808594 C 113.140625 180.8125 113.199219 180.757812 113.191406 180.699219 C 113.1875 180.628906 113.121094 180.574219 113.070312 180.609375 C 112.949219 180.679688 112.789062 180.644531 112.691406 180.8125 C 112.613281 180.949219 112.457031 181.007812 112.421875 180.738281 C 112.375 180.464844 112.175781 180.277344 111.980469 180.097656 C 111.867188 179.996094 111.742188 179.90625 111.789062 179.710938 C 111.800781 179.667969 111.800781 179.46875 111.640625 179.628906 C 111.578125 179.691406 111.503906 179.660156 111.460938 179.601562 C 111.230469 179.3125 110.875 179.195312 110.589844 178.984375 C 110.230469 178.71875 109.8125 178.703125 109.40625 178.667969 C 109.296875 178.664062 109.230469 178.546875 109.101562 178.589844 C 109.039062 178.617188 108.929688 178.515625 108.898438 178.667969 C 108.878906 178.757812 108.800781 178.757812 108.730469 178.757812 C 108.515625 178.773438 108.332031 178.824219 108.136719 178.925781 C 107.988281 179.011719 107.769531 178.957031 107.589844 179.003906 C 107.195312 179.101562 106.828125 179.289062 106.488281 179.507812 C 106.351562 179.597656 106.242188 179.757812 106.132812 179.886719 C 105.632812 180.464844 105.265625 181.125 104.992188 181.839844 C 104.953125 181.933594 105.007812 182.019531 105.007812 182.113281 C 105.007812 182.835938 105.128906 183.542969 105.238281 184.261719 C 105.269531 184.464844 105.414062 184.664062 105.308594 184.882812 C 105.613281 185.136719 105.554688 185.546875 105.734375 185.855469 C 105.933594 186.191406 106.101562 186.539062 106.0625 186.945312 C 106.054688 187.015625 106.074219 187.085938 106.09375 187.152344 C 106.183594 187.429688 106.339844 187.480469 106.566406 187.300781 C 106.625 187.253906 106.679688 187.210938 106.71875 187.152344 C 106.816406 186.984375 106.898438 186.847656 107.132812 186.957031 C 107.351562 187.0625 107.578125 187.144531 107.582031 187.429688 C 107.578125 187.730469 107.570312 188.019531 107.570312 188.316406 Z M 112.5625 181.050781 L 112.582031 181.039062 L 112.582031 181.058594 Z M 98.679688 162.070312 C 98.550781 162.210938 98.605469 162.390625 98.570312 162.554688 C 98.558594 162.625 98.4375 162.695312 98.378906 162.605469 C 98.3125 162.503906 98.128906 162.574219 98.128906 162.410156 C 98.128906 162.390625 98.171875 162.347656 98.199219 162.347656 C 98.40625 162.359375 98.496094 162.257812 98.515625 162.0625 C 98.519531 162.011719 98.566406 161.992188 98.617188 162 C 98.664062 162.007812 98.699219 162.050781 98.679688 162.070312 Z M 90.316406 168.144531 C 90.28125 168.132812 90.296875 168.074219 90.328125 168.054688 C 90.429688 168.003906 90.457031 168.117188 90.527344 168.152344 C 90.554688 168.164062 90.597656 168.164062 90.625 168.144531 C 90.808594 168.035156 90.753906 168.207031 90.757812 168.273438 C 90.777344 168.382812 90.71875 168.453125 90.546875 168.445312 C 90.386719 168.464844 90.457031 168.207031 90.316406 168.144531 Z M 96.054688 163.320312 C 95.6875 163.421875 95.671875 163.449219 95.789062 163.746094 C 95.828125 163.839844 95.867188 163.90625 95.988281 163.867188 C 96.105469 163.828125 96.195312 163.757812 96.128906 163.640625 C 96.066406 163.53125 96.097656 163.417969 96.054688 163.320312 Z M 95.847656 163.621094 C 95.898438 163.609375 95.929688 163.597656 95.964844 163.597656 C 96.007812 163.597656 96.058594 163.609375 96.058594 163.667969 C 96.058594 163.738281 96.015625 163.738281 95.96875 163.710938 C 95.929688 163.6875 95.898438 163.65625 95.847656 163.621094 Z M 111.191406 167.789062 C 111.171875 167.777344 111.210938 167.738281 111.246094 167.71875 C 111.363281 167.667969 111.660156 167.828125 111.652344 167.949219 C 111.652344 168.046875 111.589844 168.097656 111.460938 168.09375 C 111.371094 168.007812 111.320312 167.859375 111.191406 167.789062 Z M 115.339844 187.269531 C 115.410156 187.300781 115.382812 187.382812 115.320312 187.398438 C 115.210938 187.421875 115.175781 187.511719 115.132812 187.582031 C 115.101562 187.636719 115.042969 187.667969 114.976562 187.636719 C 114.953125 187.621094 114.917969 187.589844 114.917969 187.558594 C 114.914062 187.492188 114.957031 187.441406 115.015625 187.433594 C 115.242188 187.421875 115.253906 187.332031 115.125 187.171875 C 115.101562 187.140625 115.085938 187.082031 115.164062 187.0625 C 115.253906 187.101562 115.242188 187.222656 115.339844 187.269531 Z M 90.746094 164.460938 C 90.71875 164.402344 90.734375 164.34375 90.777344 164.304688 C 90.816406 164.265625 90.875 164.214844 90.925781 164.28125 C 91.015625 164.390625 91.105469 164.402344 91.214844 164.304688 C 91.253906 164.273438 91.304688 164.304688 91.3125 164.363281 C 91.3125 164.382812 91.289062 164.414062 91.28125 164.414062 C 91.113281 164.355469 90.984375 164.445312 90.882812 164.539062 C 90.804688 164.53125 90.765625 164.503906 90.746094 164.460938 Z M 112 165.199219 C 111.925781 165.050781 112.136719 165.085938 112.164062 164.980469 C 112.175781 164.921875 112.234375 164.886719 112.296875 164.929688 C 112.355469 164.976562 112.347656 165.035156 112.285156 165.070312 C 112.195312 165.125 112.128906 165.179688 112.207031 165.289062 C 112.253906 165.355469 112.207031 165.363281 112.148438 165.375 C 112.039062 165.367188 112.035156 165.257812 112 165.199219 Z M 93.21875 162.675781 C 93.121094 162.574219 93.027344 162.496094 92.902344 162.65625 C 92.851562 162.726562 92.78125 162.695312 92.742188 162.613281 C 92.699219 162.527344 92.730469 162.484375 92.8125 162.449219 C 92.992188 162.378906 93.175781 162.476562 93.21875 162.675781 Z M 114.5 180.132812 C 114.566406 180.152344 114.585938 180.214844 114.570312 180.273438 C 114.546875 180.363281 114.476562 180.433594 114.390625 180.371094 C 114.300781 180.296875 114.222656 180.214844 114.152344 180.234375 C 114.257812 180.324219 114.347656 180.078125 114.5 180.132812 Z M 98.339844 161.695312 C 98.359375 161.652344 98.359375 161.601562 98.390625 161.574219 C 98.476562 161.496094 98.558594 161.515625 98.628906 161.59375 C 98.664062 161.625 98.6875 161.664062 98.738281 161.664062 C 98.785156 161.664062 98.875 161.621094 98.808594 161.730469 C 98.789062 161.769531 98.738281 161.820312 98.707031 161.78125 C 98.664062 161.722656 98.636719 161.65625 98.550781 161.730469 C 98.480469 161.753906 98.410156 161.730469 98.339844 161.695312 Z M 91.453125 168.410156 C 91.269531 168.414062 91.382812 168.222656 91.28125 168.152344 C 91.175781 168.078125 91.25 167.886719 91.28125 167.867188 C 91.390625 167.804688 91.429688 167.964844 91.519531 168.003906 C 91.601562 168.035156 91.601562 168.105469 91.527344 168.164062 C 91.429688 168.226562 91.433594 168.316406 91.453125 168.410156 Z M 91.414062 166.902344 C 91.414062 167.023438 91.292969 167.074219 91.210938 167.132812 C 91.152344 167.171875 91.0625 167.132812 91.046875 167.050781 C 91.015625 166.855469 91.183594 166.914062 91.25 166.886719 C 91.332031 166.851562 91.414062 166.824219 91.414062 166.902344 Z M 91.460938 166.109375 C 91.429688 165.953125 91.570312 165.914062 91.660156 165.878906 C 91.746094 165.84375 91.808594 165.929688 91.796875 166.023438 C 91.78125 166.191406 91.5625 166.101562 91.519531 166.230469 C 91.421875 166.230469 91.472656 166.152344 91.460938 166.109375 Z M 110.964844 171.519531 C 110.996094 171.617188 110.996094 171.738281 110.84375 171.757812 C 110.757812 171.769531 110.6875 171.726562 110.695312 171.648438 C 110.707031 171.519531 110.757812 171.390625 110.789062 171.25 C 110.945312 171.300781 110.9375 171.429688 110.964844 171.519531 Z M 90.160156 167.339844 C 90.203125 167.332031 90.257812 167.378906 90.242188 167.429688 C 90.21875 167.539062 90.058594 167.558594 90.050781 167.695312 C 90 167.679688 90.039062 167.640625 90.03125 167.597656 C 90.199219 167.578125 89.960938 167.351562 90.160156 167.339844 Z M 111.195312 171.675781 C 111.242188 171.679688 111.285156 171.691406 111.332031 171.691406 C 111.421875 171.691406 111.503906 171.726562 111.5 171.828125 C 111.492188 171.914062 111.429688 171.988281 111.34375 171.988281 C 111.242188 171.984375 111.242188 171.886719 111.234375 171.804688 C 111.222656 171.757812 111.210938 171.710938 111.195312 171.675781 Z M 98.789062 161.328125 C 98.785156 161.265625 98.828125 161.226562 98.894531 161.21875 C 98.972656 161.21875 99.027344 161.257812 99.035156 161.335938 C 99.046875 161.433594 98.972656 161.445312 98.90625 161.472656 C 98.824219 161.464844 98.796875 161.394531 98.789062 161.328125 Z M 90.863281 167.222656 C 90.894531 167.191406 90.957031 167.191406 90.984375 167.230469 C 91.0625 167.34375 90.90625 167.339844 90.882812 167.402344 C 90.875 167.421875 90.875 167.449219 90.875 167.472656 C 90.875 167.53125 90.882812 167.601562 90.796875 167.597656 C 90.6875 167.589844 90.707031 167.480469 90.675781 167.410156 C 90.667969 167.28125 90.804688 167.289062 90.863281 167.222656 Z M 93.464844 162.628906 C 93.386719 162.628906 93.34375 162.574219 93.34375 162.496094 C 93.34375 162.4375 93.386719 162.390625 93.445312 162.378906 C 93.535156 162.367188 93.566406 162.425781 93.582031 162.496094 C 93.585938 162.578125 93.542969 162.636719 93.464844 162.628906 Z M 91.996094 165.375 C 92.074219 165.363281 92.113281 165.1875 92.222656 165.316406 C 92.273438 165.375 92.351562 165.476562 92.304688 165.523438 C 92.234375 165.59375 92.1875 165.453125 92.113281 165.4375 C 92.039062 165.425781 92.015625 165.484375 91.964844 165.496094 C 91.917969 165.503906 91.898438 165.484375 91.898438 165.445312 C 91.898438 165.375 91.957031 165.382812 91.996094 165.375 Z M 93.84375 164.609375 C 93.910156 164.570312 94 164.613281 93.992188 164.699219 C 93.984375 164.871094 93.804688 164.847656 93.707031 164.910156 C 93.65625 164.941406 93.59375 164.9375 93.574219 164.847656 C 93.597656 164.699219 93.742188 164.671875 93.84375 164.609375 Z M 91.949219 168.847656 C 92.003906 168.75 92.066406 168.5625 92.148438 168.609375 C 92.292969 168.683594 92.148438 168.808594 92.085938 168.890625 C 92.039062 168.949219 92.035156 169.019531 92.007812 169.085938 C 92.003906 169.097656 91.96875 169.109375 91.949219 169.109375 C 91.910156 169.109375 91.886719 169.085938 91.894531 169.019531 C 91.945312 168.980469 91.917969 168.898438 91.949219 168.847656 Z M 112.316406 189.1875 C 112.421875 189.199219 112.5625 189.238281 112.535156 189.304688 C 112.492188 189.425781 112.296875 189.207031 112.21875 189.378906 C 112.207031 189.398438 112.164062 189.375 112.164062 189.324219 C 112.1875 189.257812 112.195312 189.175781 112.316406 189.1875 Z M 92.226562 163.808594 C 92.164062 164.085938 92.007812 163.816406 91.90625 163.855469 C 91.894531 163.859375 91.765625 163.886719 91.808594 163.785156 C 91.828125 163.738281 91.886719 163.679688 91.949219 163.710938 C 92.039062 163.757812 92.113281 163.839844 92.226562 163.808594 Z M 114.0625 187.835938 C 114.011719 187.925781 113.953125 188.019531 113.84375 188.039062 C 113.773438 188.054688 113.742188 187.996094 113.746094 187.929688 C 113.753906 187.769531 113.90625 187.835938 113.984375 187.769531 C 114.035156 187.757812 114.09375 187.78125 114.0625 187.835938 Z M 114.996094 185.355469 C 115.015625 185.484375 114.894531 185.433594 114.824219 185.453125 C 114.734375 185.476562 114.648438 185.445312 114.628906 185.359375 C 114.605469 185.257812 114.707031 185.277344 114.769531 185.265625 C 114.847656 185.285156 114.976562 185.234375 114.996094 185.355469 Z M 96.535156 161.402344 C 96.53125 161.476562 96.496094 161.535156 96.40625 161.515625 C 96.335938 161.503906 96.285156 161.453125 96.292969 161.367188 C 96.296875 161.285156 96.34375 161.246094 96.425781 161.246094 C 96.496094 161.273438 96.542969 161.316406 96.535156 161.402344 Z M 113.960938 182.746094 C 113.960938 182.667969 114.011719 182.605469 114.082031 182.597656 C 114.179688 182.589844 114.222656 182.667969 114.222656 182.757812 C 114.222656 182.835938 114.183594 182.894531 114.101562 182.90625 C 114.019531 182.894531 113.960938 182.84375 113.960938 182.746094 Z M 89.914062 169.515625 C 89.921875 169.433594 89.984375 169.398438 90.0625 169.40625 C 90.128906 169.414062 90.171875 169.453125 90.167969 169.523438 C 90.160156 169.605469 90.121094 169.652344 90.039062 169.65625 C 89.949219 169.652344 89.910156 169.601562 89.914062 169.515625 Z M 110.515625 166.535156 C 110.519531 166.464844 110.566406 166.429688 110.628906 166.429688 C 110.714844 166.429688 110.765625 166.476562 110.769531 166.554688 C 110.777344 166.625 110.707031 166.636719 110.636719 166.65625 C 110.585938 166.628906 110.507812 166.636719 110.515625 166.535156 Z M 90.039062 165.910156 C 90.113281 165.902344 90.171875 165.933594 90.191406 166.019531 C 90.210938 166.097656 90.167969 166.121094 90.101562 166.132812 C 90.023438 166.148438 89.964844 166.121094 89.941406 166.039062 C 89.949219 165.972656 89.972656 165.914062 90.039062 165.910156 Z M 97.367188 162.628906 C 97.238281 162.703125 97.207031 162.875 97.058594 162.925781 C 97.046875 162.933594 97.019531 162.90625 97.011719 162.894531 C 97 162.867188 97.308594 162.574219 97.339844 162.578125 C 97.355469 162.597656 97.367188 162.628906 97.367188 162.628906 Z M 116.164062 185.285156 C 116.226562 185.289062 116.265625 185.328125 116.265625 185.398438 C 116.257812 185.476562 116.214844 185.527344 116.136719 185.523438 C 116.074219 185.523438 116.035156 185.484375 116.039062 185.386719 C 116.058594 185.347656 116.078125 185.277344 116.164062 185.285156 Z M 111.191406 173.84375 C 111.136719 173.929688 111.261719 174.0625 111.113281 174.109375 C 111.0625 174.121094 111.023438 174.050781 111.046875 174.019531 C 111.125 173.941406 111.023438 173.8125 111.125 173.75 C 111.195312 173.753906 111.203125 173.8125 111.191406 173.84375 Z M 91.449219 168.414062 C 91.621094 168.394531 91.539062 168.570312 91.609375 168.628906 C 91.640625 168.652344 91.71875 168.667969 91.671875 168.710938 C 91.628906 168.75 91.542969 168.757812 91.480469 168.75 C 91.410156 168.742188 91.449219 168.683594 91.46875 168.648438 C 91.5 168.5625 91.488281 168.484375 91.449219 168.414062 Z M 113.59375 189.597656 C 113.65625 189.582031 113.632812 189.65625 113.644531 189.691406 C 113.664062 189.734375 113.652344 189.792969 113.585938 189.78125 C 113.546875 189.773438 113.507812 189.742188 113.46875 189.722656 C 113.515625 189.675781 113.546875 189.613281 113.59375 189.597656 Z M 92.453125 164.539062 C 92.542969 164.523438 92.613281 164.570312 92.621094 164.667969 C 92.625 164.730469 92.574219 164.777344 92.511719 164.78125 C 92.433594 164.789062 92.375 164.757812 92.363281 164.667969 C 92.371094 164.609375 92.386719 164.542969 92.453125 164.539062 Z M 113.703125 187.726562 C 113.644531 187.730469 113.597656 187.660156 113.625 187.640625 C 113.714844 187.5625 113.59375 187.378906 113.761719 187.359375 C 113.824219 187.351562 113.8125 187.441406 113.8125 187.5 C 113.777344 187.578125 113.84375 187.707031 113.703125 187.726562 Z M 91.210938 170.398438 C 91.210938 170.328125 91.273438 170.296875 91.332031 170.296875 C 91.410156 170.296875 91.421875 170.359375 91.421875 170.417969 C 91.421875 170.46875 91.390625 170.5 91.324219 170.5 C 91.28125 170.476562 91.210938 170.46875 91.210938 170.398438 Z M 90.40625 166.867188 C 90.46875 166.863281 90.519531 166.886719 90.527344 166.960938 C 90.535156 167.035156 90.488281 167.101562 90.417969 167.113281 C 90.339844 167.132812 90.296875 167.070312 90.269531 166.996094 C 90.277344 166.90625 90.332031 166.875 90.40625 166.867188 Z M 112.988281 166.261719 C 113 166.207031 113.050781 166.199219 113.097656 166.207031 C 113.160156 166.210938 113.207031 166.25 113.207031 166.316406 C 113.207031 166.386719 113.160156 166.417969 113.089844 166.410156 C 113.011719 166.398438 112.972656 166.347656 112.988281 166.261719 Z M 92.582031 170.796875 C 92.574219 170.863281 92.535156 170.902344 92.464844 170.894531 C 92.382812 170.882812 92.304688 170.84375 92.3125 170.746094 C 92.3125 170.667969 92.375 170.628906 92.464844 170.625 C 92.53125 170.648438 92.582031 170.703125 92.582031 170.796875 Z M 112.582031 179.996094 C 112.652344 180.054688 112.722656 180.117188 112.773438 180.195312 C 112.808594 180.234375 112.78125 180.253906 112.730469 180.242188 C 112.625 180.207031 112.550781 180.144531 112.496094 180.054688 C 112.515625 180.007812 112.5625 179.976562 112.582031 179.996094 Z M 93.230469 164.699219 C 93.308594 164.722656 93.378906 164.796875 93.453125 164.839844 C 93.386719 164.878906 93.316406 164.921875 93.246094 164.949219 C 93.1875 164.976562 93.15625 164.871094 93.140625 164.800781 C 93.148438 164.75 93.160156 164.671875 93.230469 164.699219 Z M 98.28125 163.253906 C 98.386719 163.269531 98.398438 163.351562 98.398438 163.441406 C 98.398438 163.492188 98.367188 163.539062 98.3125 163.527344 C 98.230469 163.5 98.179688 163.4375 98.152344 163.359375 C 98.179688 163.292969 98.210938 163.242188 98.28125 163.253906 Z M 92.644531 163.382812 C 92.679688 163.460938 92.511719 163.546875 92.644531 163.621094 C 92.691406 163.648438 92.710938 163.707031 92.644531 163.707031 C 92.53125 163.699219 92.523438 163.570312 92.496094 163.492188 C 92.453125 163.347656 92.59375 163.410156 92.644531 163.382812 Z M 110.933594 170.578125 C 110.996094 170.574219 111.042969 170.617188 111.035156 170.6875 C 111.027344 170.792969 110.964844 170.835938 110.875 170.832031 C 110.808594 170.832031 110.769531 170.785156 110.765625 170.714844 C 110.765625 170.617188 110.847656 170.59375 110.933594 170.578125 Z M 91.789062 169.671875 C 91.777344 169.582031 91.808594 169.503906 91.90625 169.476562 C 91.976562 169.457031 92.015625 169.511719 92.019531 169.574219 C 92.035156 169.664062 92.019531 169.742188 91.976562 169.75 C 91.847656 169.765625 91.796875 169.742188 91.789062 169.671875 Z M 94.777344 163.578125 C 94.855469 163.578125 94.816406 163.6875 94.824219 163.75 C 94.828125 163.808594 94.882812 163.90625 94.765625 163.90625 C 94.6875 163.90625 94.71875 163.824219 94.726562 163.769531 C 94.746094 163.707031 94.65625 163.585938 94.777344 163.578125 Z M 96.292969 162.941406 C 96.332031 162.886719 96.34375 162.796875 96.425781 162.785156 C 96.464844 162.777344 96.503906 162.804688 96.496094 162.835938 C 96.480469 162.921875 96.402344 162.925781 96.332031 162.945312 C 96.324219 162.925781 96.257812 162.984375 96.292969 162.941406 Z M 101.160156 161.910156 C 101.21875 161.921875 101.265625 161.960938 101.25 162.023438 C 101.246094 162.078125 101.207031 162.097656 101.15625 162.097656 C 101.082031 162.097656 101.050781 162.058594 101.050781 161.992188 C 101.058594 161.933594 101.089844 161.898438 101.160156 161.910156 Z M 102.886719 160.957031 C 102.957031 160.949219 102.984375 161.007812 102.976562 161.070312 C 102.972656 161.136719 102.933594 161.175781 102.863281 161.167969 C 102.804688 161.164062 102.789062 161.125 102.785156 161.070312 C 102.785156 161.007812 102.824219 160.960938 102.886719 160.957031 Z M 113.175781 188.535156 C 113.175781 188.621094 113.128906 188.660156 113.046875 188.652344 C 112.992188 188.644531 112.917969 188.660156 112.921875 188.574219 C 112.929688 188.503906 112.980469 188.453125 113.050781 188.445312 C 113.121094 188.445312 113.175781 188.460938 113.175781 188.535156 Z M 91.828125 164.335938 C 91.898438 164.335938 91.9375 164.375 91.9375 164.445312 C 91.9375 164.511719 91.910156 164.570312 91.839844 164.558594 C 91.78125 164.550781 91.738281 164.503906 91.746094 164.433594 C 91.75 164.375 91.777344 164.335938 91.828125 164.335938 Z M 109.960938 167.757812 C 109.945312 167.707031 109.980469 167.675781 110.03125 167.667969 C 110.089844 167.660156 110.152344 167.648438 110.148438 167.738281 C 110.148438 167.785156 110.109375 167.816406 110.054688 167.828125 C 110.003906 167.828125 109.964844 167.808594 109.960938 167.757812 Z M 114.132812 186.835938 C 114.113281 186.808594 114.152344 186.773438 114.191406 186.777344 C 114.273438 186.777344 114.351562 186.796875 114.367188 186.902344 C 114.367188 186.925781 114.339844 186.953125 114.3125 186.996094 C 114.242188 186.9375 114.179688 186.894531 114.132812 186.835938 Z M 99.292969 161.265625 C 99.332031 161.257812 99.351562 161.296875 99.351562 161.328125 C 99.351562 161.382812 99.324219 161.417969 99.269531 161.402344 C 99.234375 161.386719 99.214844 161.363281 99.230469 161.308594 C 99.242188 161.296875 99.269531 161.265625 99.292969 161.265625 Z M 111.460938 168.324219 C 111.46875 168.375 111.449219 168.421875 111.394531 168.414062 C 111.371094 168.414062 111.332031 168.382812 111.324219 168.355469 C 111.3125 168.3125 111.34375 168.273438 111.382812 168.261719 C 111.429688 168.265625 111.453125 168.292969 111.460938 168.324219 Z M 116.054688 185.695312 C 116.097656 185.703125 116.128906 185.742188 116.125 185.792969 C 116.117188 185.820312 116.078125 185.851562 116.058594 185.851562 C 116.007812 185.851562 115.980469 185.820312 115.996094 185.753906 C 116.007812 185.734375 116.035156 185.695312 116.054688 185.695312 Z M 111.003906 166.335938 C 111.027344 166.339844 111.066406 166.371094 111.074219 166.390625 C 111.082031 166.445312 111.046875 166.476562 110.996094 166.46875 C 110.957031 166.464844 110.945312 166.429688 110.945312 166.398438 C 110.945312 166.359375 110.972656 166.328125 111.003906 166.335938 Z M 111.957031 166.042969 C 111.957031 166.03125 111.976562 166.007812 111.996094 166 C 112.027344 165.988281 112.058594 166.007812 112.066406 166.039062 C 112.074219 166.070312 112.054688 166.097656 112.019531 166.109375 C 111.980469 166.101562 111.964844 166.078125 111.957031 166.042969 Z M 93.597656 162.792969 C 93.636719 162.792969 93.664062 162.816406 93.664062 162.855469 C 93.664062 162.894531 93.636719 162.921875 93.597656 162.921875 C 93.5625 162.921875 93.535156 162.894531 93.527344 162.855469 C 93.535156 162.816406 93.5625 162.792969 93.597656 162.792969 Z M 91.808594 169.277344 C 91.808594 169.367188 91.730469 169.382812 91.667969 169.40625 C 91.621094 169.425781 91.609375 169.386719 91.617188 169.347656 C 91.628906 169.277344 91.648438 169.214844 91.738281 169.207031 C 91.78125 169.21875 91.808594 169.238281 91.808594 169.277344 Z M 114.074219 188.8125 C 114.09375 188.863281 114.070312 188.902344 114.011719 188.917969 C 113.960938 188.929688 113.90625 188.910156 113.914062 188.851562 C 113.921875 188.800781 113.960938 188.75 113.992188 188.679688 C 114.03125 188.738281 114.0625 188.773438 114.074219 188.8125 Z M 92.652344 163.390625 C 92.699219 163.347656 92.652344 163.234375 92.75 163.234375 C 92.792969 163.234375 92.839844 163.289062 92.820312 163.332031 C 92.792969 163.421875 92.703125 163.359375 92.652344 163.390625 Z M 108.605469 164.117188 C 108.601562 164.0625 108.644531 164.042969 108.699219 164.042969 C 108.75 164.042969 108.789062 164.066406 108.792969 164.125 C 108.800781 164.175781 108.789062 164.214844 108.730469 164.226562 C 108.652344 164.222656 108.613281 164.183594 108.605469 164.117188 Z M 115.125 182.90625 C 115.117188 182.933594 115.085938 182.964844 115.0625 182.972656 C 115.027344 182.976562 114.988281 182.957031 115.003906 182.914062 C 115.007812 182.886719 115.042969 182.863281 115.0625 182.84375 C 115.113281 182.847656 115.136719 182.867188 115.125 182.90625 Z M 96.742188 161.722656 C 96.734375 161.761719 96.71875 161.792969 96.679688 161.785156 C 96.625 161.78125 96.59375 161.742188 96.609375 161.691406 C 96.613281 161.652344 96.652344 161.644531 96.691406 161.644531 C 96.722656 161.65625 96.742188 161.683594 96.742188 161.722656 Z M 114.488281 180.589844 C 114.511719 180.59375 114.558594 180.621094 114.558594 180.644531 C 114.570312 180.703125 114.527344 180.722656 114.476562 180.710938 C 114.449219 180.703125 114.429688 180.671875 114.417969 180.652344 C 114.429688 180.601562 114.457031 180.574219 114.488281 180.589844 Z M 115.910156 188.003906 C 115.90625 188.027344 115.871094 188.054688 115.847656 188.058594 C 115.816406 188.066406 115.777344 188.046875 115.78125 188.007812 C 115.789062 187.984375 115.816406 187.957031 115.816406 187.949219 C 115.886719 187.945312 115.917969 187.964844 115.910156 188.003906 Z M 97.675781 161.175781 C 97.695312 161.167969 97.726562 161.167969 97.742188 161.175781 C 97.773438 161.199219 97.761719 161.234375 97.734375 161.257812 C 97.707031 161.277344 97.675781 161.285156 97.644531 161.253906 C 97.625 161.21875 97.644531 161.1875 97.675781 161.175781 Z M 92.351562 163.21875 C 92.34375 163.253906 92.316406 163.28125 92.277344 163.28125 C 92.242188 163.28125 92.203125 163.261719 92.207031 163.222656 C 92.214844 163.179688 92.253906 163.152344 92.296875 163.144531 C 92.351562 163.144531 92.355469 163.183594 92.351562 163.21875 Z M 92.921875 164.878906 C 92.910156 164.910156 92.902344 164.957031 92.859375 164.949219 C 92.808594 164.9375 92.800781 164.878906 92.800781 164.832031 C 92.800781 164.796875 92.828125 164.769531 92.871094 164.769531 C 92.929688 164.789062 92.941406 164.828125 92.921875 164.878906 Z M 114.660156 186.148438 C 114.746094 186.152344 114.726562 186.222656 114.726562 186.277344 C 114.726562 186.300781 114.707031 186.328125 114.699219 186.359375 C 114.667969 186.316406 114.636719 186.269531 114.609375 186.238281 C 114.609375 186.179688 114.628906 186.148438 114.660156 186.148438 Z M 96.054688 163.320312 C 96.097656 163.273438 96.09375 163.171875 96.195312 163.203125 C 96.207031 163.203125 96.222656 163.222656 96.222656 163.230469 C 96.195312 163.328125 96.09375 163.269531 96.054688 163.320312 Z M 93.953125 163.757812 C 93.972656 163.757812 94.003906 163.765625 94.011719 163.777344 C 94.039062 163.808594 94.011719 163.835938 93.980469 163.847656 C 93.949219 163.859375 93.914062 163.855469 93.894531 163.824219 C 93.890625 163.777344 93.914062 163.765625 93.953125 163.757812 Z M 107.628906 163.765625 C 107.648438 163.765625 107.679688 163.777344 107.679688 163.789062 C 107.691406 163.828125 107.660156 163.855469 107.621094 163.847656 C 107.609375 163.847656 107.597656 163.824219 107.582031 163.804688 C 107.601562 163.789062 107.613281 163.765625 107.628906 163.765625 Z M 113.742188 182.40625 C 113.742188 182.445312 113.722656 182.476562 113.683594 182.46875 C 113.644531 182.460938 113.625 182.429688 113.632812 182.398438 C 113.632812 182.359375 113.65625 182.332031 113.6875 182.332031 C 113.726562 182.339844 113.742188 182.371094 113.742188 182.40625 Z M 90.332031 169.144531 C 90.359375 169.144531 90.40625 169.160156 90.410156 169.179688 C 90.429688 169.234375 90.390625 169.265625 90.347656 169.265625 C 90.320312 169.265625 90.296875 169.234375 90.28125 169.21875 C 90.277344 169.167969 90.296875 169.144531 90.332031 169.144531 Z M 111.007812 169.347656 C 111.027344 169.347656 111.054688 169.355469 111.066406 169.367188 C 111.085938 169.398438 111.066406 169.425781 111.042969 169.4375 C 111.007812 169.453125 110.976562 169.445312 110.964844 169.417969 C 110.945312 169.367188 110.976562 169.347656 111.007812 169.347656 Z M 113.101562 165.382812 C 113.101562 165.394531 113.070312 165.414062 113.050781 165.414062 C 113.011719 165.414062 112.988281 165.386719 112.992188 165.347656 C 112.992188 165.335938 113.027344 165.328125 113.046875 165.324219 C 113.082031 165.328125 113.117188 165.34375 113.101562 165.382812 Z M 112.492188 179.46875 C 112.484375 179.488281 112.457031 179.5 112.441406 179.5 C 112.40625 179.507812 112.375 179.488281 112.375 179.449219 C 112.375 179.410156 112.40625 179.402344 112.441406 179.402344 C 112.476562 179.410156 112.503906 179.429688 112.492188 179.46875 Z M 110.339844 174.257812 C 110.339844 174.296875 110.308594 174.320312 110.269531 174.316406 C 110.230469 174.308594 110.210938 174.28125 110.210938 174.25 C 110.210938 174.210938 110.242188 174.191406 110.261719 174.191406 C 110.320312 174.199219 110.339844 174.226562 110.339844 174.257812 Z M 108.753906 163.191406 C 108.753906 163.203125 108.714844 163.222656 108.699219 163.21875 C 108.660156 163.21875 108.632812 163.191406 108.640625 163.152344 C 108.640625 163.140625 108.679688 163.132812 108.691406 163.125 C 108.734375 163.125 108.769531 163.144531 108.753906 163.191406 Z M 95.035156 164.847656 C 95.015625 164.847656 94.996094 164.828125 94.984375 164.8125 C 94.957031 164.777344 94.976562 164.75 95.015625 164.75 C 95.042969 164.75 95.074219 164.769531 95.09375 164.777344 C 95.09375 164.828125 95.066406 164.851562 95.035156 164.847656 Z M 94.121094 164.335938 C 94.121094 164.355469 94.109375 164.382812 94.101562 164.402344 C 94.074219 164.382812 94.042969 164.371094 94.023438 164.34375 C 94.003906 164.3125 94.019531 164.28125 94.0625 164.265625 C 94.109375 164.265625 94.121094 164.300781 94.121094 164.335938 Z M 101.019531 162.625 C 101.066406 162.636719 101.101562 162.667969 101.097656 162.722656 C 101.097656 162.734375 101.039062 162.746094 101.007812 162.746094 C 100.972656 162.746094 100.941406 162.722656 100.941406 162.753906 C 100.957031 162.636719 100.988281 162.617188 101.019531 162.625 Z M 110.914062 170.992188 C 110.925781 170.984375 110.964844 170.996094 110.972656 171.011719 C 110.984375 171.042969 110.976562 171.082031 110.933594 171.082031 C 110.917969 171.082031 110.898438 171.054688 110.886719 171.042969 C 110.886719 171.023438 110.894531 170.992188 110.914062 170.992188 Z M 111.203125 171.667969 C 111.15625 171.65625 111.085938 171.660156 111.085938 171.582031 C 111.085938 171.578125 111.101562 171.558594 111.105469 171.558594 C 111.183594 171.558594 111.175781 171.621094 111.203125 171.667969 Z M 100.644531 160.582031 C 100.664062 160.574219 100.699219 160.589844 100.703125 160.601562 C 100.71875 160.640625 100.703125 160.671875 100.660156 160.671875 C 100.644531 160.671875 100.625 160.648438 100.613281 160.632812 C 100.621094 160.613281 100.625 160.589844 100.644531 160.582031 Z M 92.441406 171.679688 C 92.472656 171.691406 92.503906 171.707031 92.496094 171.746094 C 92.492188 171.777344 92.472656 171.804688 92.433594 171.789062 C 92.402344 171.785156 92.375 171.765625 92.382812 171.726562 C 92.382812 171.691406 92.394531 171.667969 92.441406 171.679688 Z M 111.246094 172.195312 C 111.214844 172.203125 111.191406 172.214844 111.15625 172.222656 C 111.152344 172.222656 111.132812 172.183594 111.132812 172.171875 C 111.136719 172.136719 111.152344 172.105469 111.210938 172.125 C 111.222656 172.136719 111.234375 172.164062 111.246094 172.195312 Z M 110.636719 173.027344 C 110.65625 173.03125 110.675781 173.046875 110.679688 173.066406 C 110.695312 173.105469 110.667969 173.128906 110.636719 173.128906 C 110.597656 173.136719 110.578125 173.109375 110.578125 173.070312 C 110.578125 173.046875 110.589844 173.015625 110.636719 173.027344 Z M 113.375 188.8125 C 113.414062 188.808594 113.4375 188.832031 113.4375 188.863281 C 113.4375 188.878906 113.417969 188.902344 113.40625 188.902344 C 113.367188 188.910156 113.347656 188.882812 113.339844 188.851562 C 113.347656 188.839844 113.359375 188.820312 113.375 188.8125 Z M 91.289062 165.1875 C 91.304688 165.195312 91.339844 165.199219 91.34375 165.214844 C 91.351562 165.226562 91.332031 165.253906 91.324219 165.273438 C 91.304688 165.265625 91.289062 165.253906 91.269531 165.246094 C 91.273438 165.226562 91.28125 165.207031 91.289062 165.1875 Z M 93.65625 164.445312 C 93.636719 164.453125 93.605469 164.441406 93.597656 164.429688 C 93.585938 164.390625 93.605469 164.363281 93.644531 164.363281 C 93.65625 164.363281 93.675781 164.390625 93.691406 164.402344 C 93.675781 164.414062 93.671875 164.441406 93.65625 164.445312 Z M 109.664062 177.929688 C 109.667969 177.929688 109.683594 177.949219 109.683594 177.953125 C 109.675781 177.972656 109.65625 177.984375 109.652344 178 C 109.636719 177.984375 109.625 177.96875 109.613281 177.953125 C 109.625 177.949219 109.644531 177.933594 109.664062 177.929688 Z M 105.476562 178.558594 C 105.484375 178.578125 105.503906 178.605469 105.496094 178.609375 C 105.488281 178.625 105.464844 178.628906 105.445312 178.636719 C 105.4375 178.617188 105.433594 178.597656 105.417969 178.578125 C 105.445312 178.574219 105.464844 178.566406 105.476562 178.558594 Z M 92.535156 165.257812 C 92.550781 165.265625 92.554688 165.296875 92.5625 165.316406 C 92.542969 165.324219 92.515625 165.34375 92.503906 165.335938 C 92.492188 165.328125 92.484375 165.296875 92.472656 165.285156 C 92.496094 165.273438 92.523438 165.253906 92.535156 165.257812 Z M 90.28125 169.839844 C 90.261719 169.84375 90.242188 169.851562 90.230469 169.851562 C 90.222656 169.851562 90.210938 169.832031 90.21875 169.824219 C 90.230469 169.8125 90.242188 169.800781 90.257812 169.785156 C 90.257812 169.804688 90.269531 169.820312 90.28125 169.839844 Z M 110.578125 169.765625 C 110.597656 169.773438 110.625 169.785156 110.625 169.804688 C 110.636719 169.84375 110.609375 169.871094 110.578125 169.878906 C 110.539062 169.882812 110.519531 169.859375 110.515625 169.820312 C 110.515625 169.773438 110.539062 169.753906 110.578125 169.765625 Z M 101.398438 161.144531 C 101.394531 161.128906 101.414062 161.105469 101.417969 161.085938 C 101.4375 161.089844 101.464844 161.097656 101.46875 161.109375 C 101.476562 161.125 101.464844 161.148438 101.457031 161.167969 C 101.433594 161.164062 101.40625 161.15625 101.398438 161.144531 Z M 92.910156 163.628906 C 92.902344 163.617188 92.921875 163.589844 92.929688 163.578125 C 92.949219 163.585938 92.976562 163.589844 92.980469 163.601562 C 92.988281 163.617188 92.976562 163.640625 92.96875 163.660156 C 92.949219 163.648438 92.921875 163.640625 92.910156 163.628906 Z M 114.550781 187.976562 C 114.566406 187.984375 114.578125 188.015625 114.578125 188.035156 C 114.570312 188.074219 114.53125 188.085938 114.5 188.066406 C 114.488281 188.058594 114.480469 188.027344 114.476562 188.007812 C 114.488281 187.976562 114.519531 187.964844 114.550781 187.976562 Z M 114.785156 187.988281 C 114.796875 187.984375 114.828125 187.988281 114.835938 187.996094 C 114.855469 188.027344 114.835938 188.054688 114.804688 188.066406 C 114.789062 188.074219 114.769531 188.054688 114.75 188.046875 C 114.765625 188.027344 114.769531 188.003906 114.785156 187.988281 Z M 91.125 168.371094 C 91.160156 168.355469 91.191406 168.371094 91.203125 168.410156 C 91.210938 168.421875 91.195312 168.453125 91.183594 168.464844 C 91.152344 168.484375 91.121094 168.472656 91.105469 168.433594 C 91.113281 168.410156 91.113281 168.375 91.125 168.371094 Z M 113.832031 182.648438 C 113.84375 182.65625 113.863281 182.683594 113.863281 182.699219 C 113.855469 182.738281 113.832031 182.757812 113.792969 182.746094 C 113.777344 182.738281 113.773438 182.714844 113.761719 182.695312 C 113.773438 182.648438 113.796875 182.636719 113.832031 182.648438 Z M 114.714844 182.804688 C 114.734375 182.804688 114.765625 182.8125 114.769531 182.824219 C 114.789062 182.863281 114.769531 182.886719 114.726562 182.886719 C 114.714844 182.886719 114.695312 182.863281 114.679688 182.847656 C 114.695312 182.835938 114.707031 182.8125 114.714844 182.804688 Z M 114.570312 183.289062 C 114.605469 183.28125 114.640625 183.292969 114.640625 183.332031 C 114.640625 183.351562 114.628906 183.382812 114.609375 183.382812 C 114.570312 183.398438 114.546875 183.378906 114.539062 183.339844 C 114.550781 183.324219 114.558594 183.292969 114.570312 183.289062 Z M 113.914062 183.359375 C 113.90625 183.34375 113.914062 183.304688 113.921875 183.300781 C 113.953125 183.28125 113.984375 183.292969 114 183.332031 C 114.003906 183.34375 113.980469 183.371094 113.972656 183.382812 C 113.953125 183.378906 113.925781 183.378906 113.914062 183.359375 Z M 93.398438 163.847656 C 93.414062 163.839844 93.445312 163.855469 93.453125 163.859375 C 93.476562 163.886719 93.464844 163.917969 93.425781 163.925781 C 93.414062 163.925781 93.394531 163.90625 93.375 163.898438 C 93.386719 163.878906 93.386719 163.855469 93.398438 163.847656 Z M 115.78125 184.285156 C 115.820312 184.277344 115.847656 184.304688 115.847656 184.34375 C 115.847656 184.355469 115.828125 184.390625 115.816406 184.390625 C 115.777344 184.394531 115.757812 184.371094 115.75 184.332031 C 115.761719 184.3125 115.769531 184.285156 115.78125 184.285156 Z M 115.34375 184.78125 C 115.339844 184.792969 115.3125 184.8125 115.300781 184.808594 C 115.261719 184.800781 115.246094 184.773438 115.253906 184.742188 C 115.261719 184.730469 115.285156 184.722656 115.304688 184.710938 C 115.339844 184.722656 115.355469 184.75 115.34375 184.78125 Z M 90.5 166.097656 C 90.496094 166.109375 90.460938 166.121094 90.449219 166.121094 C 90.417969 166.117188 90.40625 166.082031 90.417969 166.050781 C 90.425781 166.039062 90.449219 166.03125 90.46875 166.023438 C 90.5 166.039062 90.515625 166.0625 90.5 166.097656 Z M 115.0625 186.828125 C 115.054688 186.84375 115.027344 186.847656 115.007812 186.855469 C 115.003906 186.835938 114.984375 186.808594 114.988281 186.804688 C 114.996094 186.792969 115.023438 186.785156 115.042969 186.777344 C 115.054688 186.792969 115.066406 186.808594 115.0625 186.828125 Z M 92.226562 163.816406 C 92.234375 163.796875 92.253906 163.765625 92.253906 163.765625 C 92.285156 163.769531 92.207031 163.660156 92.277344 163.738281 C 92.335938 163.789062 92.226562 163.769531 92.226562 163.816406 C 92.226562 163.808594 92.226562 163.816406 92.226562 163.816406 Z M 90.773438 166.746094 C 90.785156 166.753906 90.796875 166.785156 90.792969 166.796875 C 90.785156 166.832031 90.753906 166.84375 90.71875 166.832031 C 90.707031 166.824219 90.699219 166.796875 90.695312 166.777344 C 90.714844 166.738281 90.738281 166.726562 90.773438 166.746094 Z M 99.488281 162.078125 C 99.507812 162.082031 99.53125 162.089844 99.542969 162.101562 C 99.570312 162.128906 99.570312 162.160156 99.523438 162.167969 C 99.507812 162.167969 99.488281 162.148438 99.46875 162.140625 C 99.472656 162.121094 99.480469 162.097656 99.488281 162.078125 Z M 114.796875 183.421875 C 114.804688 183.417969 114.808594 183.410156 114.824219 183.402344 C 114.84375 183.390625 114.863281 183.402344 114.855469 183.433594 C 114.855469 183.449219 114.828125 183.460938 114.808594 183.46875 C 114.777344 183.46875 114.769531 183.449219 114.796875 183.421875 Z M 96.921875 163.539062 C 96.941406 163.539062 96.960938 163.550781 96.980469 163.558594 C 96.960938 163.566406 96.941406 163.585938 96.921875 163.585938 C 96.902344 163.585938 96.882812 163.570312 96.863281 163.566406 C 96.890625 163.558594 96.910156 163.546875 96.921875 163.539062 Z M 114.609375 184.722656 C 114.609375 184.722656 114.605469 184.742188 114.605469 184.742188 C 114.597656 184.742188 114.585938 184.738281 114.570312 184.738281 C 114.570312 184.710938 114.585938 184.703125 114.609375 184.722656 Z M 91.539062 167.679688 C 91.53125 167.6875 91.519531 167.6875 91.511719 167.6875 C 91.488281 167.675781 91.492188 167.660156 91.519531 167.65625 C 91.527344 167.65625 91.539062 167.660156 91.542969 167.660156 C 91.542969 167.667969 91.542969 167.679688 91.539062 167.679688 Z M 93.21875 162.675781 C 93.226562 162.6875 93.238281 162.703125 93.246094 162.707031 C 93.199219 162.734375 93.226562 162.6875 93.21875 162.675781 Z M 112.839844 188.433594 C 112.820312 188.425781 112.800781 188.421875 112.78125 188.40625 C 112.789062 188.402344 112.792969 188.382812 112.800781 188.382812 C 112.820312 188.386719 112.839844 188.394531 112.859375 188.40625 C 112.851562 188.421875 112.84375 188.433594 112.839844 188.433594 Z M 97.1875 163.382812 C 97.199219 163.382812 97.21875 163.398438 97.238281 163.402344 C 97.230469 163.417969 97.21875 163.441406 97.214844 163.441406 C 97.195312 163.441406 97.179688 163.429688 97.160156 163.417969 C 97.167969 163.410156 97.179688 163.390625 97.1875 163.382812 Z M 110.828125 173.375 C 110.824219 173.414062 110.804688 173.414062 110.789062 173.382812 C 110.785156 173.375 110.789062 173.363281 110.796875 173.347656 C 110.796875 173.34375 110.808594 173.347656 110.824219 173.347656 C 110.824219 173.347656 110.828125 173.363281 110.828125 173.375 Z M 92.257812 164.917969 C 92.277344 164.910156 92.292969 164.898438 92.3125 164.890625 C 92.316406 164.890625 92.332031 164.90625 92.335938 164.910156 C 92.316406 164.917969 92.304688 164.929688 92.285156 164.9375 C 92.277344 164.929688 92.265625 164.921875 92.257812 164.917969 Z M 113.082031 181.40625 L 113.058594 181.40625 L 113.070312 181.378906 Z M 92.773438 170.011719 L 92.753906 170.011719 L 92.761719 169.992188 Z M 92.910156 170.925781 L 92.890625 170.925781 L 92.898438 170.90625 Z M 92.910156 170.925781 " fill-opacity="1" fill-rule="nonzero"/></g><g fill="#000000" fill-opacity="1"><g transform="translate(147.791978, 203.352845)"><g><path d="M 11.5 -10.125 C 12.613281 -9.6875 13.492188 -9.066406 14.140625 -8.265625 C 14.785156 -7.460938 15.109375 -6.535156 15.109375 -5.484375 C 15.109375 -4.234375 14.804688 -3.195312 14.203125 -2.375 C 13.597656 -1.5625 12.804688 -0.960938 11.828125 -0.578125 C 10.847656 -0.191406 9.773438 0 8.609375 0 L 2.8125 0 L 2.8125 -19.515625 L 7.859375 -19.515625 C 9.847656 -19.515625 11.390625 -19.101562 12.484375 -18.28125 C 13.585938 -17.457031 14.140625 -16.226562 14.140625 -14.59375 C 14.140625 -13.570312 13.910156 -12.675781 13.453125 -11.90625 C 12.992188 -11.144531 12.34375 -10.550781 11.5 -10.125 Z M 5.421875 -10.984375 L 8.390625 -10.984375 C 9.398438 -10.984375 10.160156 -11.269531 10.671875 -11.84375 C 11.179688 -12.414062 11.4375 -13.15625 11.4375 -14.0625 C 11.4375 -15.050781 11.128906 -15.785156 10.515625 -16.265625 C 9.910156 -16.753906 9.054688 -17 7.953125 -17 L 5.421875 -17 Z M 8.5 -2.421875 C 9.632812 -2.421875 10.566406 -2.675781 11.296875 -3.1875 C 12.035156 -3.707031 12.40625 -4.460938 12.40625 -5.453125 C 12.40625 -6.472656 12.003906 -7.226562 11.203125 -7.71875 C 10.410156 -8.207031 9.445312 -8.453125 8.3125 -8.453125 L 5.421875 -8.453125 L 5.421875 -2.421875 Z M 8.5 -2.421875 "/></g></g></g><g fill="#000000" fill-opacity="1"><g transform="translate(171.428052, 203.352845)"><g><path d="M 17.921875 -19.515625 L 10.609375 -6.5 L 10.609375 0 L 7.984375 0 L 7.984375 -6.5 L 0.75 -19.515625 L 4 -19.515625 L 9.359375 -9.46875 L 14.703125 -19.515625 Z M 17.921875 -19.515625 "/></g></g></g><g fill="#000000" fill-opacity="1"><g transform="translate(197.033664, 203.352845)"><g/></g></g><g fill="#000000" fill-opacity="1"><g transform="translate(212.494819, 203.352845)"><g><path d="M 7.046875 -3.53125 C 7.046875 -1.988281 6.75 -0.65625 6.15625 0.46875 C 5.5625 1.59375 4.738281 2.457031 3.6875 3.0625 C 2.632812 3.664062 1.429688 3.984375 0.078125 4.015625 L 0.078125 1.484375 C 1.410156 1.410156 2.46875 0.945312 3.25 0.09375 C 4.03125 -0.757812 4.421875 -1.992188 4.421875 -3.609375 L 4.421875 -19.515625 L 7.046875 -19.515625 Z M 7.046875 -3.53125 "/></g></g></g><g fill="#000000" fill-opacity="1"><g transform="translate(229.277981, 203.352845)"><g><path d="M 2.8125 -19.515625 L 8.15625 -19.515625 C 10.582031 -19.515625 12.585938 -19.03125 14.171875 -18.0625 C 15.765625 -17.101562 16.925781 -15.863281 17.65625 -14.34375 C 18.382812 -12.820312 18.75 -11.21875 18.75 -9.53125 C 18.75 -7.632812 18.304688 -5.960938 17.421875 -4.515625 C 16.546875 -3.066406 15.367188 -1.953125 13.890625 -1.171875 C 12.421875 -0.390625 10.820312 0 9.09375 0 L 2.8125 0 Z M 8.578125 -2.53125 C 10.015625 -2.53125 11.300781 -2.8125 12.4375 -3.375 C 13.570312 -3.945312 14.457031 -4.769531 15.09375 -5.84375 C 15.738281 -6.925781 16.0625 -8.21875 16.0625 -9.71875 C 16.0625 -11.25 15.726562 -12.5625 15.0625 -13.65625 C 14.394531 -14.75 13.503906 -15.578125 12.390625 -16.140625 C 11.285156 -16.710938 10.097656 -17 8.828125 -17 L 5.421875 -17 L 5.421875 -2.53125 Z M 8.578125 -2.53125 "/></g></g></g><g fill="#000000" fill-opacity="1"><g transform="translate(256.556339, 203.352845)"><g><path d="M 5.421875 -19.515625 L 5.421875 0 L 2.8125 0 L 2.8125 -19.515625 Z M 5.421875 -19.515625 "/></g></g></g><g fill="#000000" fill-opacity="1"><g transform="translate(271.720724, 203.352845)"><g><path d="M 15.484375 -19.515625 L 15.484375 -17 L 5.421875 -17 L 5.421875 -11.0625 L 14.40625 -11.0625 L 14.40625 -8.546875 L 5.421875 -8.546875 L 5.421875 -2.53125 L 15.859375 -2.53125 L 15.859375 0 L 2.8125 0 L 2.8125 -19.515625 Z M 15.484375 -19.515625 "/></g></g></g><g fill="#000000" fill-opacity="1"><g transform="translate(296.274116, 203.352845)"><g><path d="M 18.109375 -1.671875 C 17.515625 -1.203125 16.582031 -0.769531 15.3125 -0.375 C 14.039062 0.0195312 12.867188 0.21875 11.796875 0.21875 C 9.765625 0.21875 7.972656 -0.195312 6.421875 -1.03125 C 4.878906 -1.875 3.6875 -3.023438 2.84375 -4.484375 C 2.007812 -5.941406 1.59375 -7.578125 1.59375 -9.390625 C 1.59375 -11.515625 2.039062 -13.351562 2.9375 -14.90625 C 3.84375 -16.46875 5.054688 -17.660156 6.578125 -18.484375 C 8.109375 -19.304688 9.785156 -19.71875 11.609375 -19.71875 C 12.703125 -19.71875 13.734375 -19.585938 14.703125 -19.328125 C 15.671875 -19.066406 16.546875 -18.722656 17.328125 -18.296875 L 16.453125 -15.890625 C 15.878906 -16.210938 15.15625 -16.492188 14.28125 -16.734375 C 13.414062 -16.984375 12.628906 -17.109375 11.921875 -17.109375 C 10.410156 -17.109375 9.070312 -16.800781 7.90625 -16.1875 C 6.75 -15.570312 5.859375 -14.695312 5.234375 -13.5625 C 4.609375 -12.4375 4.296875 -11.117188 4.296875 -9.609375 C 4.296875 -8.203125 4.609375 -6.945312 5.234375 -5.84375 C 5.859375 -4.75 6.75 -3.898438 7.90625 -3.296875 C 9.0625 -2.703125 10.375 -2.40625 11.84375 -2.40625 C 12.53125 -2.40625 13.195312 -2.472656 13.84375 -2.609375 C 14.488281 -2.742188 15.03125 -2.9375 15.46875 -3.1875 L 15.46875 -7.046875 L 11.578125 -7.046875 L 11.578125 -9.546875 L 18.109375 -9.546875 Z M 18.109375 -1.671875 "/></g></g></g><g fill="#000000" fill-opacity="1"><g transform="translate(323.498524, 203.352845)"><g><path d="M 13.875 0 L 8.796875 -7.796875 L 4.15625 0 L 0.921875 0 L 7.34375 -10.0625 L 1.1875 -19.515625 L 4.5 -19.515625 L 9.359375 -12.0625 L 13.78125 -19.515625 L 16.953125 -19.515625 L 10.765625 -9.875 L 17.21875 0 Z M 13.875 0 "/></g></g></g></svg>